<mxfile host="Electron" modified="2023-11-25T03:36:37.785Z" agent="Mozilla/5.0 (X11; Linux x86_64) AppleWebKit/537.36 (KHTML, like Gecko) draw.io/21.2.8 Chrome/112.0.5615.165 Electron/24.2.0 Safari/537.36" etag="Mdppp8Qs89txPDTO44yz" version="21.2.8" type="device">
  <diagram id="HrKo_eKujefO3dNRXb7b" name="总框架">
    <mxGraphModel dx="1364" dy="843" grid="0" gridSize="10" guides="1" tooltips="1" connect="1" arrows="1" fold="1" page="1" pageScale="1" pageWidth="827" pageHeight="1169" math="0" shadow="0">
      <root>
        <mxCell id="0" />
        <mxCell id="1" parent="0" />
        <mxCell id="BuZ8btYsFFh4Lj0bBgy9-2" value="总框架--板级模块" style="swimlane;" parent="1" vertex="1">
          <mxGeometry x="21" y="11" width="789" height="1155" as="geometry" />
        </mxCell>
        <mxCell id="GNwVw0A19MFtxDwMuvT--1" value="" style="shape=image;verticalLabelPosition=bottom;labelBackgroundColor=default;verticalAlign=top;aspect=fixed;imageAspect=0;image=data:image/x-icon,AAABAAEAgIAAAAEAIAAoCAEAFgAAACgAAACAAAAAAAEAAAEAIAAAAAAAAAAAAMQOAADEDgAAAAAAAAAAAAAAAAAAAAAAAAAAAAAAAAAAAAAAAAAAAAAAAAAAAAAAAAAAAAAAAAAAAAAAAAAAAAAAAAAAAAAAAAAAAAAAAAAAAAAAAAAAAAAAAAAAAAAAAAAAAAAAAAAAAAAAAAAAAAAAAAAAAAAAAAAAAAAAAAAAAAAAAAAAAAAAAAAAAAAAAAAAAAAAAAAAAAAAAAAAAAAAAAAAAAAAAAAAAAAAAAAAAAAAAAAAAAAAAAAAAAAAAAAAAAAAAAAAAAAAAAAAAAAAAAAAAAAAAAAAAAAAAAAAAAAAAAAAAAAAAAAAAAAAAAAAAAAAAAAAAAAAAAAAAAAAAAAAAAAAAAAAAAAAAAAAAAAAAAAAAAAAAAAAAAAAAAAAAAAAAAAAAAAAAAAAAAAAAAAAAAAAAAAAAAAAAAAAAAAAAAAAAAAAAAAAAAAAAAAAAAAAAAAAAAAAAAAAAAAAAAAAAAAAAAAAAAAAAAAAAAAAAAAAAAAAAAAAAAAAAAAAAAAAAAAAAAAAAAAAAAAAAAAAAAAAAAAAAAAAAAAAAAAAAAAAAAAAAAAAAAAAAAAAAAAAAAAAAAAAAAAAAAAAAAAAAAAAAAAAAAAAAAAAAAAAAAAAAAAAAAAAAAAAAAAAAAAAAAAAAAAAAAAAAAAAAAAAAAAAAAAAAAAAAAAAAAAAAAAAAAAAAAAAAAAAAAAAAAAAAAAAAAAAAAAAAAAAAAAAAAAAAAAAAAAAAAAAAAAAAAAAAAAAAAAAAAAAAAAAAAAAAAAAAAAAAAAAAAAAAAAAAAAAAAAAAAAAAAAAAAAAAAAAAAAAAAAAAAAAAAAAAAAAAAAAAAAAAAAAAAAAAAAAAAAAAAAAAAAAAAAAAAAAAAAAAAAAAAAAAAAAAAAAAAAAAAAAAAAAAAAAAAAAAAAAAAAAAAAAAAAAAAAAAAAAAAAAAAAAAAAAAAAAAAAAAAAAAAAAAAAAAAAAAAAAAAAAAAAAAAAAAAAAAAAAAAAAAAAAAAAAAAAAAAAAAAAAAAAAAAAAAAAAAAAAAAAAAAAAAAAAAAAAAAAAAAAAAAAAAAAAAAAAAAAAAAAAAAAAAAAAAAAAAAAAAAAAAAAAAAAAAAAAAAAAAAAAAAAAAAAAAAAAAAAAAAAAAAAAAAAAAAAAAAAAAAAAAAAAAAAAAAAAAAAAAAAAAAAAAAAAAAAAAAAAAAAAAAAAAAAAAAAAAAAAAAAAAAAAAAAAAAAAAAAAAAAAAAAAAAAAAAAAAAAAAAAAAAAAAAAAAAAAAAAAAAAAAAAAAAAAAAAAAAAAAAAAAAAAAAAAAAAAAAAAAAAAAAAAAAAAAAAAAAAAAAAAAAAAAAAAAAAAAAAAAAAAAAAAAAAAAAAAAAAAAAAAAAAAAAAAAAAAAAAAAAAAAAAAAAAAAAAAAAAAAAAAAAAAAAAAAAAAAAAAAAAAAAAAAAAAAAAAAAAAAAAAAAAAAAAAAAAAAAAAAAAAAAAAAAAAAAAAAAAAAAAAAAAAAAAAAAAAAAAAAAAAAAAAAAAAAAAAAAAAAAAAAAAAAAAAAAAAAAAAAAAAAAAAAAAAAAAAAAAAAAAAAAAAAAAAAAAAAAAAAAAAAAAAAAAAAAAAAAAAAAAAAAAAAAAAAAAAAAAAAAAAAAAAAAAAAAAAAAAAAAAAAAAAAAAAAAAAAAAAAAAAAAAAAAAAAAAAAAAAAAAAAAAAAAAAAAAAAAAAAAAAAAAAAAAAAAAAAAAAAAAAAAAAAAAAAAAAAAAAAAAAAAAAAAAAAAAAAAAAAAAAAAAAAAAAAAAAAAAAAAAAAAAAAAAAAAAAAAAAAAAAAAAAAAAAAAAAAAAAAAAAAAAAAAAAAAAAAAAAAAAAAAAAAAAAAAAAAAAAAAAAAAAAAAAAAAAAAAAAAAAAAAAAAAAAAAAAAAAAAAAAAAAAAAAAAAAAAAAAAAAAAAAAAAAAAAAAAAAAAAAAAAAAAAAAAAAAAAAAAAAAAAAAAAAAAAAAAAAAAAAAAAAAAAAAAAAAAAAAAAAAAAAAAAAAAAAAAAAAAAAAAAAAAAAAAAAAAAAAAAAAAAAAAAAAAAAAAAAAAAAAAAAAAAAAAAAAAAAAAAAAAAAAAAAAAAAAAAAAAAAAAAAAAAAAAAAAAAAAAAAAAAAAAAAAAAAAAAAAAAAAAAAAAAAAAAAAAAAAAAAAAAAAAAAAAAAAAAAAAAAAAAAAAAAAAAAAAAAAAAAAAAAAAAAAAAAAAAAAAAAAAAAAAAAAAAAAAAAAAAAAAAAAAAAAAAAAAAAAAAAAAAAAAAAAAAAAAAAAAAAAAAAAAAAAAAAAAAAAAAAAAAAAAAAAAAAAAAAAAAAAAAAAAAAAAAAAAAAAAAAAAAAAAAAAAAAAAAAAAAAAAAAAAAAAAAAAAAAAAAAAAAAAAAAAAAAAAAAAAAAAAAAAAAAAAAAAAAAAAAAAAAAAAAAAAAAAAAAAAAAAAAAAAAAAAAAAAAAAAAAAAAAAAAAAAAAAAAAAAAAAAAAAAAAAAAAAAAAAAAAAAAAAAAAAAAAAAAAAAAAAAAAAAAAAAAAAAAAAAAAAAAAAAAAAAAAAAAAAAAAAAAAAAAAAAAAAAAAAAAAAAAAAAAAAAAAAAAAAAAAAAAAAAAAAAAAAAAAAAAAAAAAAAAAAAAAAAAAAAAAAAAAAAAAAAAAAAAAAAAAAAAAAAAAAAAAAAAAAAAAAAAAAAAAAAAAAAAAAAAAAAAAAAAAAAAAAAAAAAAAAAAAAAAAAAAAAAAAAAAAAAAAAAAAAAAAAAAAAAAAAAAAAAAAAAAAAAAAAAAAAAAAAAAAAAAAAAAAAAAAAAAAAAAAAAAAAAAAAAAAAAAAAAAAAAAAAAAAAAAAAAAAAAAAAAAAAAAAAAAAAAAAAAAAAAAAAAAAAAAAAAAAAAAAAAAAAAAAAAAAAAAAAAAAAAAAAAAAAAAAAAAAAAAAAAAAAAAAAAAAAAAAAAAAAAAAAAAAAAAAAAAAAAAAAAAAAAAAAAAAAAAAAAAAAAAAAAAAAAAAAAAAAAAAAAAAAAAAAAAAAAAAAAAAAAAAAAAAAAAAAAAAAAAAAAAAAAAAAAAAAAAAAAAAAAAAAAAAAAAAAAAAAAAAAAAAAAAAAAAAAAAAAAAAAAAAAAAAAAAAAAAAAAAAAAAAAAAAAAAAAAAAAAAAAAAAAAAAAAAAAAAAAAAAAAAAAAAAAAAAAAAAAAAAAAAAAAAAAAAAAAAAAAAAAAAAAAAAAAAAAAAAAAAAAAAAAAAAAAAAAAAAAAAAAAAAAAAAAAAAAAAAAAAAAAAAAAAAAAAAAAAAAAAAAAAAAAAAAAAAAAAAAAAAAAAAAAAAAAAAAAAAAAAAAAAAAAAAAAAAAAAAAAAAAAAAAAAAAAAAAAAAAAAAAAAAAAAAAAAAAAAAAAAAAAAAAAAAAAAAAAAAAAAAAAAAAAAAAAAAAAAAAAAAAAAAAAAAAAAAAAAAAAAAAAAAAAAAAAAAAAAAAAAAAAAAAAAAAAAAAAAAAAAAAAAAAAAAAAAAAAAAAAAAAAAAAAAAAAAAAAAAAAAAAAAAAAAAAAAAAAAAAAAAAAAAAAAAAAAAAAAAAAAAAAAAAAAAAAAAAAAAAAAAAAAAAAAAAAAAAAAAAAAAAAAAAAAAAAAAAAAAAAAAAAAAAAAAAAAAAAAAAAAAAAAAAAAAAAAAAAAAAAAAAAAAAAAAAAAAAAAAAAAAAAAAAAAAAAAAAAAAAAAAAAAAAAAAAAAAAAAAAAAAAAAAAAAAAAAAAAAAAAAAAAAAAAAAAAAAAAAAAAAAAAAAAAAAAAAAAAAAAAAAAAAAAAAAAAAAAAAAAAAAAAAAAAAAAAAAAAAAAAAAAAAAAAAAAAAAAAAAAAAAAAAAAAAAAAAAAAAAAAAAAAAAAAAAAAAAAAAAAAAAAAAAAAAAAAAAAAAAAAAAAAAAAAAAAAAAAAAAAAAAAAAAAAAAAAAAAAAAAAAAAAAAAAAAAAAAAAAAAAAAAAAAAAAAAAAAAAAAAAAAAAAAAAAAAAAAAAAAAAAAAAAAAAAAAAAAAAAAAAAAAAAAAAAAAAAAAAAAAAAAAAAAAAAAAAAAAAAAAAAAAAAAAAAAAAAAAAAAAAAAAAAAAAAAAAAAAAAAAAAAAAAAAAAAAAAAAAAAAAAAAAAAAAAAAAAAAAAAAAAAAAAAAAAAAAAAAAAAAAAAAAAAAAAAAAAAAAAAAAAAAAAAAAAAAAAAAAAAAAAAAAAAAAAAAAAAAAAAAAAAAAAAAAAAAAAAAAAAAAAAAAAAAAAAAAAAAAAAAAAAAAAAAAAAAAAAAAAAAAAAAAAAAAAAAAAAAAAAAAAAAAAAAAAAAAAAAAAAAAAAAAAAAAAAAAAAAAAAAAAAAAAAAAAAAAAAAAAAAAAAAAAAAAAAAAAAAAAAAAAAAAAAAAAAAAAAAAAAAAAAAAAAAAAAAAAAAAAAAAAAAAAAAAAAAAAAAAAAAAAAAAAAAAAAAAAAAAAAAAAAAAAAAAAAAAAAAAAAAAAAAAAAAAAAAAAAAAAAAAAAAAAAAAAAAAAAAAAAAAAAAAAAAAAAAAAAAAAAAAAAAAAAAAAAAAAAAAAAAAAAAAAAAAAAAAAAAAAAAAAAAAAAAAAAAAAAAAAAAAAAAAAAAAAAAAAAAAAAAAAAAAAAAAAAAAAAAAAAAAAAAAAAAAAAAAAAAAAAAAAAAAAAAAAAAAAAAAAAAAAAAAAAAAAAAAAAAAAAAAAAAAAAAAAAAAAAAAAAAAAAAAAAAAAAAAAAAAAAAAAAAAAAAAAAAAAAAAAAAAAAAAAAAAAAAAAAAAAAAAAAAAAAAAAAAAAAAAAAAAAAAAAAAAAAAAAAAAAAAAAAAAAAAAAAAAAAAAAAAAAAAAAAAAAAAAAAAAAAAAAAAAAAAAAAAAAAAAAAAAAAAAAAAAAAAAAAAAAAAAAAAAAAAAAAAAAAAAAAAAAAAAAAAAAAAAAAAAAAAAAAAAAAAAAAAAAAAAAAAAAAAAAAAAAAAAAAAAAAAAAAAAAAAAAAAAAAAAAAAAAAAAAAAAAAAAAAAAAAAAAAAAAAAAAAAAAAAAAAAAAAAAAAAAAAAAAAAAAAAAAAAAAAAAAAAAAAAAAAAAAAAAAAAAAAAAAAAAAAAAAAAAAAAAAAAAAAAAAAAAAAAAAAAAAAAAAAAAAAAAAAAAAAAAAAAAAAAAAAAAAAAAAAAAAAAAAAAAAAAAAAAAAAAAAAAAAAAAAAAAAAAAAAAAAAAAAAAAAAAAAAAAAAAAAAAAAAAAAAAAAAAAAAAAAAAAAAAAAAAAAAAAAAAAAAAAAAAAAAAAAAAAAAAAAAAAAAAAAAAAAAAAAAAAAAAAAAAAAAAAAAAAAAAAAAAAAAAAAAAAAAAAAAAAAAAAAAAAAAAAAAAAAAAAAAAAAAAAAAAAAAAAAAAAAAAAAAAAAAAAAAAAAAAAAAAAAAAAAAAAAAAAAAAAAAAAAAAAAAAAAAAAAAAAAAAAAAAAAAAAAAAAAAAAAAAAAAAAAAAAAAAAAAAAAAAAAAAAAAAAAAAAAAAAAAAAAAAAAAAAAAAAAAAAAAAAAAAAAAAAAAAAAAAAAAAAAAAAAAAAAAAAAAAAAAAAAAAAAAAAAAAAAAAAAAAAAAAAAAAAAAAAAAAAAAAAAAAAAAAAAAAAAAAAAAAAAAAAAAAAAAAAAAAAAAAAAAAAAAAAAAAAAAAAAAAAAAAAAAAAAAAAAAAAAAAAAAAAAAAAAAAAAAAAAAAAAAAAAAAAAAAAAAAAAAAAAAAAAAAAAAAAAAAAAAAAAAAAAAAAAAAAAAAAAAAAAAAAAAAAAAAAAAAAAAAAAAAAAAAAAAAAAAAAAAAAAAAAAAAAAAAAAAAAAAAAAAAAAAAAAAAAAAAAAAAAAAAAAAAAAAAAAAAAAAAAAAAAAAAAAAAAAAAAAAAAAAAAAAAAAAAAAAAAAAAAAAAAAAAAAAAAAAAAAAAAAAAAAAAAAAAAAAAAAAAAAAAAAAAAAAAAAAAAAAAAAAAAAAAAAAAAAAAAAAAAAAAAAAAAAAAAAAAAAAAAAAAAAAAAAAAAAAAAAAAAAAAAAAAAAAAAAAAAAAAAAAAAAAAAAAAAAAAAAAAAAAAAAAAAAAAAAAAAAAAAAAAAAAAAAAAAAAAAAAAAAAAAAAAAAAAAAAAAAAAAAAAAAAAAAAAAAAAAAAAAAAAAAAAAAAAAAAAAAAAAAAAAAAAAAAAAAAAAAAAAAAAAAAAAAAAAAAAAAAAAAAAAAAAAAAAAAAAAAAAAAAAAAAAAAAAAAAAAAAAAAAAAAAAAAAAAAAAAAAAAAAAAAAAAAAAAAAAAAAAAAAAAAAAAAAAAAAAAAAAAAAAAAAAAAAAAAAAAAAAAAAAAAAAAAAAAAAAAAAAAAAAAAAAAAAAAAAAAAAAAAAAAAAAAAAAAAAAAAAAAAAAAAAAAAAAAAAAAAAAAAAAAAAAAAAAAAAAAAAAAAAAAAAAAAAAAAAAAAAAAAAAAAAAAAAAAAAAAAAAAAAAAAAAAAAAAAAAAAAAAAAAAAAAAAAAAAAAAAAAAAAAAAAAAAAAAAAAAAAAAAAAAAAAAAAAAAAAAAAAAAAAAAAAAAAAAAAAAAAAAAAAAAAAAAAAAAAAAAAAAAAAAAAAAAAAAAAAAAAAAAAAAAAAAAAAAAAAAAAAAAAAAAAAAAAAAAAAAAAAAAAAAAAAAAAAAAAAAAAAAAAAAAAAAAAAAAAAAAAAAAAAAAAAAAAAAAAAAAAAAAAAAAAAAAAAAAAAAAAAAAAAAAAAAAAAAAAAAAAAAAAAAAAAAAAAAAAAAAAAAAAAAAAAAAAAAAAAAAAAAAAAAAAAAAAAAAAAAAAAAAAAAAAAAAAAAAAAAAAAAAAAAAAAAAAAAAAAAAAAAAAAAAAAAAAAAAAAAAAAAAAAAAAAAAAAAAAAAAAAAAAAAAAAAAAAAAAAAAAAACj3GCAo9xggK/obMCv6GzAr+hswK/obMCv6GzAr+hswK/obMCv6GzAr+hswK/obMCv6GzAr+hswK/obMCv6GzAr+hswK/obMCv6GzAr+hswK/obMCv6GzAr+hswK/obMAAAAAAAAAAAAAAAAAAAAAAAAAAAAAAAAAAAAAAAAAAAAAAAAAAAAAAAAAAAAAAAAAAAAAAAAAAAAAAAAAAAAAAAAAAAAAAAAAAAAAAAAAAAAAAAAAAAAAAAAAAAAAAAAAAAAAAAAAAAAAAAAAAAAAAAAAAAAAAAAAAAAAAAAAAAAAAAAAAAAAAAAAAAAAAAAAAAAAAAAAAAAAAAAAAAAAAAAAAAAAAAAAAAAAAAAAAAKPcYICj3GCAr+hswK/obMCv6GzAr+hswK/obMCv6GzAr+hswK/obMCv6GzAr+hswK/obMCv6GzAr+hswK/obMCv6GzAr+hswK/obMCv6GzAr+hswK/obMCv6GzAr+hswMP8gEDD/IBAAAAAAAAAAAAAAAAAAAAAAAAAAAAAAAAAAAAAAAAAAAAAAAAAAAAAAAAAAAAAAAAAAAAAAAAAAAAAAAAAAAAAAAAAAAAAAAAAAAAAAAAAAAAAAAAAAAAAAAAAAAAAAAAAAAAAAAAAAAAAAAAAAAAAAAAAAAAAAAAAAAAAAAAAAAAAAAAAAAAAAKPcYICj3GCAr+hswK/obMCv6GzAr+hswK/obMCv6GzAr+hswK/obMCv6GzAr+hswK/obMCv6GzAr+hswK/obMCv6GzAr+hswK/obMCv6GzAr+hswK/obMCv6GzAr+hswAAAAAAAAAAAAAAAAAAAAAAAAAAAAAAAAAAAAAAAAAAAAAAAAAAAAAAAAAAAAAAAAAAAAAAAAAAAAAAAAAAAAAAAAAAAAAAAAAAAAAAAAAAAAAAAAAAAAAAAAAAAAAAAAAAAAAAAAAAAAAAAAAAAAAAAAAAAAAAAAAAAAAAAAAAAAAAAAAAAAAAAAAAAAAAAAAAAAAAAAAAAAAAAAAAAAAAAAAAAAAAAAAAAAAAAAAAAo9xggKPcYICv6GzAr+hswK/obMCv6GzAr+hswK/obMCv6GzAr+hswK/obMCv6GzAr+hswK/obMCv6GzAr+hswK/obMCv6GzAr+hswK/obMCv6GzAr+hswK/obMCv6GzAw/yAQMP8gEAAAAAAAAAAAAAAAAAAAAAAAAAAAAAAAAAAAAAAAAAAAAAAAAAAAAAAAAAAAAAAAAAAAAAAAAAAAAAAAAAAAAAAAAAAAAAAAAAAAAAAAAAAAAAAAAAAAAAAAAAAAAAAAAAAAAAAAAAAAAAAAAAAAAAAAAAAAAAAAACn7G48p+xuPKfoa/yn6Gv8p+hr/Kfoa/yn6Gv8p+hr/Kfoa/yn6Gv8p+hr/Kfoa/yn6Gv8p+hr/Kfoa/yn6Gv8p+hr/Kfoa/yn6Gv8p+hr/Kfoa/yn6Gv8p+hr/Kfoa/yn6Gv8p+hr/Kfoazyn6Gs8AAAAAAAAAAAAAAAAAAAAAAAAAAAAAAAAAAAAAAAAAAAAAAAAAAAAAAAAAAAAAAAAAAAAAAAAAAAAAAAAAAAAAAAAAAAAAAAAAAAAAAAAAAAAAAAAAAAAAAAAAAAAAAAAAAAAAAAAAAAAAAAAAAAAAAAAAAAAAAAAAAAAAAAAAAAAAAAAAAAAAAAAAAAAAAAAAAAAAAAAAAAAAAAAAAAAAAAAAAAAAAAAAAAAAAAAAACn6Gb8p+hm/Kfoa/yn6Gv8p+hr/Kfoa/yn6Gv8p+hr/Kfoa/yn6Gv8p+hr/Kfoa/yn6Gv8p+hr/Kfoa/yn6Gv8p+hr/Kfoa/yn6Gv8p+hr/Kfoa/yn6Gv8p+hr/Kfoa/yn6Gu8p+hrvKfsbjyn7G48w/yAQMP8gEAAAAAAAAAAAAAAAAAAAAAAAAAAAAAAAAAAAAAAAAAAAAAAAAAAAAAAAAAAAAAAAAAAAAAAAAAAAAAAAAAAAAAAAAAAAAAAAAAAAAAAAAAAAAAAAAAAAAAAAAAAAAAAAAAAAAAAAAAAAKfsbjyn7G48p+hr/Kfoa/yn6Gv8p+hr/Kfoa/yn6Gv8p+hr/Kfoa/yn6Gv8p+hr/Kfoa/yn6Gv8p+hr/Kfoa/yn6Gv8p+hr/Kfoa/yn6Gv8p+hr/Kfoa/yn6Gv8p+hr/Kfoa/yn6Gv8p+hrPKfoazwAAAAAAAAAAAAAAAAAAAAAAAAAAAAAAAAAAAAAAAAAAAAAAAAAAAAAAAAAAAAAAAAAAAAAAAAAAAAAAAAAAAAAAAAAAAAAAAAAAAAAAAAAAAAAAAAAAAAAAAAAAAAAAAAAAAAAAAAAAAAAAAAAAAAAAAAAAAAAAAAAAAAAAAAAAAAAAAAAAAAAAAAAAAAAAAAAAAAAAAAAAAAAAAAAAAAAAAAAAAAAAAAAAAAAAAAAAKfoZvyn6Gb8p+hr/Kfoa/yn6Gv8p+hr/Kfoa/yn6Gv8p+hr/Kfoa/yn6Gv8p+hr/Kfoa/yn6Gv8p+hr/Kfoa/yn6Gv8p+hr/Kfoa/yn6Gv8p+hr/Kfoa/yn6Gv8p+hr/Kfoa7yn6Gu8p+xuPKfsbjzD/IBAw/yAQAAAAAAAAAAAAAAAAAAAAAAAAAAAAAAAAAAAAAAAAAAAAAAAAAAAAAAAAAAAAAAAAAAAAAAAAAAAAAAAAAAAAAAAAAAAAAAAAAAAAAAAAAAAAAAAAAAAAAAAAAAAAAAAAKfsbjyn7G48p+hr/Kfoa/yn6Gv8p+hr/Kfoa/yn6Gv8p+hr/Kfoa/yn6Gv8p+hr/Kfoa/yn6Gv8p+hr/Kfoa/yn6Gv8p+hr/Kfoa/yn6Gv8p+hr/Kfoa/yn6Gv8p+hr/Kfoa/yn6Gv8p+hr/Kfoa/yn6Gs8p+hrPAAAAAAAAAAAAAAAAAAAAAAAAAAAAAAAAAAAAAAAAAAAAAAAAAAAAAAAAAAAAAAAAAAAAAAAAAAAAAAAAAAAAAAAAAAAAAAAAAAAAAAAAAAAAAAAAAAAAAAAAAAAAAAAAAAAAAAAAAAAAAAAAAAAAAAAAAAAAAAAAAAAAAAAAAAAAAAAAAAAAAAAAAAAAAAAAAAAAAAAAAAAAAAAAAAAAAAAAAAAAAAAAAAAAAAAAAAAp+hm/KfoZvyn6Gv8p+hr/Kfoa/yn6Gv8p+hr/Kfoa/yn6Gv8p+hr/Kfoa/yn6Gv8p+hr/Kfoa/yn6Gv8p+hr/Kfoa/yn6Gv8p+hr/Kfoa/yn6Gv8p+hr/Kfoa/yn6Gv8p+hr/Kfoa/yn6Gv8p+hr/Kfsbjyn7G48AAAAAAAAAAAAAAAAAAAAAAAAAAAAAAAAAAAAAAAAAAAAAAAAAAAAAAAAAAAAAAAAAAAAAAAAAAAAAAAAAAAAAAAAAAAAAAAAAAAAAAAAAAAAAAAAAAAAAAAAAAAAAAAAp+xuPKfsbjyn6Gv8p+hr/Kfoa/yn6Gv8p+hr/Kfoa/yn6Gv8p+hr/Kfoa/yn6Gv8p+hr/Kfoa/yn6Gv8p+hr/Kfoa/yn6Gv8p+hr/Kfoa/yn6Gv8p+hr/Kfoa/yn6Gv8p+hr/Kfoa/yn6Gv8p+hr/Kfoazyn6Gs8AAAAAAAAAAAAAAAAAAAAAAAAAAAAAAAAAAAAAAAAAAAAAAAAAAAAAAAAAAAAAAAAAAAAAAAAAAAAAAAAAAAAAAAAAAAAAAAAAAAAAAAAAAAAAAAAAAAAAAAAAAAAAAAAAAAAAAAAAAAAAAAAAAAAAAAAAAAAAAAAAAAAAAAAAAAAAAAAAAAAAAAAAAAAAAAAAAAAAAAAAAAAAAAAAAAAAAAAAAAAAAAAAAAAAAAAAACn6Gb8p+hm/Kfoa/yn6Gv8p+hr/Kfoa/yn6Gv8p+hr/Kfoa/yn6Gv8p+hr/Kfoa/yn6Gv8p+hr/Kfoa/yn6Gv8p+hr/Kfoa/yn6Gv8p+hr/Kfoa/yn6Gv8p+hr/Kfoa/yn6Gv8p+hr/Kfoa/yn6Gv8p+xuPKfsbjwAAAAAAAAAAAAAAAAAAAAAAAAAAAAAAAAAAAAAAAAAAAAAAAAAAAAAAAAAAAAAAAAAAAAAAAAAAAAAAAAAAAAAAAAAAAAAAAAAAAAAAAAAAAAAAAAAAAAAAAAAAAAAAACn6Gu8p+hrvKfoa/yn6Gv8p+hr/Kfoa/yn6Gv8p+hr/Kfoa/yn6Gv8p+hr/Kfoa/yn6Gv8p+hr/Kfoa/yn6Gv8p+hr/Kfoa/yn6Gv8p+hr/Kfoa/yn6Gv8p+hr/Kfoa/yn6Gv8p+hr/Kfoa/yn6Gv8p+hrPKfoazwAAAAAAAAAAAAAAAAAAAAAAAAAAAAAAAAAAAAAAAAAAAAAAAAAAAAAAAAAAAAAAAAAAAAAAAAAAAAAAAAAAAAAAAAAAAAAAAAAAAAAAAAAAAAAAAAAAAAAAAAAAAAAAAAAAAAAAAAAAAAAAAAAAAAAAAAAAAAAAAAAAAAAAAAAAAAAAAAAAAAAAAAAAAAAAAAAAAAAAAAAAAAAAAAAAAAAAAAAAAAAAAAAAAAAAAAAAKfoZvyn6Gb8p+hr/Kfoa/yn6Gv8p+hr/Kfoa/yn6Gv8p+hr/Kfoa/yn6Gv8p+hr/Kfoa/yn6Gv8p+hr/Kfoa/yn6Gv8p+hr/Kfoa/yn6Gv8p+hr/Kfoa/yn6Gv8p+hr/Kfoa/yn6Gv8p+hr/Kfoa/yn6Gv8p+hr/MP8gEDD/IBAAAAAAAAAAAAAAAAAAAAAAAAAAAAAAAAAAAAAAAAAAAAAAAAAAAAAAAAAAAAAAAAAAAAAAAAAAAAAAAAAAAAAAAAAAAAAAAAAAAAAAAAAAAAAAAAAAAAAAKfoa7yn6Gu8p+hr/Kfoa/yn6Gv8p+hr/Kfoa/yn6Gv8p+hr/Kfoa/yn6Gv8p+hr/Kfoa/yn6Gv8p+hr/Kfoa/yn6Gv8p+hr/Kfoa/yn6Gv8p+hr/Kfoa/yn6Gv8p+hr/Kfoa/yn6Gv8p+hr/Kfoa/yn6Gs8p+hrPAAAAAAAAAAAAAAAAAAAAAAAAAAAAAAAAAAAAAAAAAAAAAAAAAAAAAAAAAAAAAAAAAAAAAAAAAAAAAAAAAAAAAAAAAAAAAAAAAAAAAAAAAAAAAAAAAAAAAAAAAAAAAAAAAAAAAAAAAAAAAAAAAAAAAAAAAAAAAAAAAAAAAAAAAAAAAAAAAAAAAAAAAAAAAAAAAAAAAAAAAAAAAAAAAAAAAAAAAAAAAAAAAAAAAAAAAAAp+hm/KfoZvyn6Gv8p+hr/Kfoa/yn6Gv8p+hr/Kfoa/yn6Gv8p+hr/Kfoa/yn6Gv8p+hr/Kfoa/yn6Gv8p+hr/Kfoa/yn6Gv8p+hr/Kfoa/yn6Gv8p+hr/Kfoa/yn6Gv8p+hr/Kfoa/yn6Gv8p+hr/Kfoa/yn6Gv8w/yAQMP8gEAAAAAAAAAAAAAAAAAAAAAAAAAAAAAAAAAAAAAAAAAAAAAAAAAAAAAAAAAAAAAAAAAAAAAAAAAAAAAAAAAAAAAAAAAAAAAAAAAAAAAAAAAAAMP8gEDD/IBAp+hr/Kfoa/yn6Gv8p+hr/Kfoa/yn6Gv8p+hr/Kfoa/yn6Gu8p+hrvKfoazyn6Gs8p+hrPKfoazyn6Gs8p+hrPKfoazyn6Gs8p+hrPKfoazyn6Gs8p+hrPKfoazyn6Gs8p+hrPKfoazyn6Gs8p+hrPKvoanyr6Gp8AAAAAAAAAAAAAAAAAAAAAAAAAAAAAAAAAAAAAAAAAAAAAAAAAAAAAAAAAAAAAAAAAAAAAAAAAAAAAAAAAAAAAAAAAAAAAAAAAAAAAAAAAAAAAAAAAAAAAAAAAAAAAAAAAAAAAAAAAAAAAAAAAAAAAAAAAAAAAAAAAAAAAAAAAAAAAAAAAAAAAAAAAAAAAAAAAAAAAAAAAAAAAAAAAAAAAAAAAAAAAAAAAAAAAAAAAACr6Gp8q+hqfKfoazyn6Gs8p+hrPKfoazyn6Gs8p+hrPKfoazyn6Gs8p+hrPKfoazyn6Gs8p+hrPKfoazyn6Gs8p+hrPKfoazyn6Gs8p+hrPKfoazyn6Gs8p+hr/Kfoa/yn6Gv8p+hr/Kfoa/yn6Gv8p+hr/Kfoa/yj3GCAo9xggAAAAAAAAAAAAAAAAAAAAAAAAAAAAAAAAAAAAAAAAAAAAAAAAAAAAAAAAAAAAAAAAAAAAAAAAAAAAAAAAAAAAAAAAAAAAAAAAAAAAAAAAAAAw/yAQMP8gECn6Gv8p+hr/Kfoa/yn6Gv8p+hr/Kfoa/yn6Gv8p+hr/Kfoa7yn6Gu8p+hrPKfoazyn6Gs8p+hrPKfoazyn6Gs8p+hrPKfoazyn6Gs8p+hrPKfoazyn6Gs8p+hrPKfoazyn6Gs8p+hrPKfoazyn6Gs8q+hqfKvoanwAAAAAAAAAAAAAAAAAAAAAAAAAAAAAAAAAAAAAAAAAAAAAAAAAAAAAAAAAAAAAAAAAAAAAAAAAAAAAAAAAAAAAAAAAAAAAAAAAAAAAAAAAAAAAAAAAAAAAAAAAAAAAAAAAAAAAAAAAAAAAAAAAAAAAAAAAAAAAAAAAAAAAAAAAAAAAAAAAAAAAAAAAAAAAAAAAAAAAAAAAAAAAAAAAAAAAAAAAAAAAAAAAAAAAAAAAAKvoanyr6Gp8p+hrPKfoazyn6Gs8p+hrPKfoazyn6Gs8p+hrPKfoazyn6Gs8p+hrPKfoazyn6Gs8p+hrPKfoazyn6Gs8p+hrPKfoazyn6Gs8p+hrPKfoazyn6Gv8p+hr/Kfoa/yn6Gv8p+hr/Kfoa/yn6Gv8p+hr/KPcYICj3GCAAAAAAAAAAAAAAAAAAAAAAAAAAAAAAAAAAAAAAAAAAAAAAAAAAAAAAAAAAAAAAAAAAAAAAAAAAAAAAAAAAAAAAAAAAAAAAAAAAAAAAAAAAACj3GCAo9xggKfoa/yn6Gv8p+hr/Kfoa/yn6Gv8p+hr/Kfoa7yn6Gu8AAAAAAAAAAAAAAAAAAAAAAAAAAAAAAAAAAAAAAAAAAAAAAAAAAAAAAAAAAAAAAAAAAAAAAAAAAAAAAAAAAAAAAAAAAAAAAAAAAAAAAAAAAAAAAAAAAAAAAAAAAAAAAAAAAAAAAAAAAAAAAAAAAAAAAAAAAAAAAAAAAAAAAAAAAAAAAAAAAAAAAAAAAAAAAAAAAAAAAAAAAAAAAAAAAAAAAAAAAAAAAAAAAAAAAAAAAAAAAAAAAAAAAAAAAAAAAAAAAAAAAAAAAAAAAAAAAAAAAAAAAAAAAAAAAAAAAAAAAAAAAAAAAAAAAAAAAAAAAAAAAAAAAAAAAAAAAAAAAAAAAAAAAAAAAAAAAAAAAAAAAAAAAAAAAAAAAAAAAAAAAAAAAAAAAAAAAAAAAAAAAAAAAAAAAAAAAAAAAAAAAAAAAAAAAAAAAAAAAAAAAAAAAAAAAAAAAAAAAAAAAAAAAAAAKfoa3yn6Gt8p+hr/Kfoa/yn6Gv8p+hr/Kfoa/yn6Gv8r+hswK/obMAAAAAAAAAAAAAAAAAAAAAAAAAAAAAAAAAAAAAAAAAAAAAAAAAAAAAAAAAAAAAAAAAAAAAAAAAAAAAAAAAAAAAAAAAAAAAAAAAAAAAAAAAAAKPcYICj3GCAp+hr/Kfoa/yn6Gv8p+hr/Kfoa/yn6Gv8p+hrvKfoa7wAAAAAAAAAAAAAAAAAAAAAAAAAAAAAAAAAAAAAAAAAAAAAAAAAAAAAAAAAAAAAAAAAAAAAAAAAAAAAAAAAAAAAAAAAAAAAAAAAAAAAAAAAAAAAAAAAAAAAAAAAAAAAAAAAAAAAAAAAAAAAAAAAAAAAAAAAAAAAAAAAAAAAAAAAAAAAAAAAAAAAAAAAAAAAAAAAAAAAAAAAAAAAAAAAAAAAAAAAAAAAAAAAAAAAAAAAAAAAAAAAAAAAAAAAAAAAAAAAAAAAAAAAAAAAAAAAAAAAAAAAAAAAAAAAAAAAAAAAAAAAAAAAAAAAAAAAAAAAAAAAAAAAAAAAAAAAAAAAAAAAAAAAAAAAAAAAAAAAAAAAAAAAAAAAAAAAAAAAAAAAAAAAAAAAAAAAAAAAAAAAAAAAAAAAAAAAAAAAAAAAAAAAAAAAAAAAAAAAAAAAAAAAAAAAAAAAAAAAAAAAAAAAAAAAp+hrfKfoa3yn6Gv8p+hr/Kfoa/yn6Gv8p+hr/Kfoa/yv6GzAr+hswAAAAAAAAAAAAAAAAAAAAAAAAAAAAAAAAAAAAAAAAAAAAAAAAAAAAAAAAAAAAAAAAAAAAAAAAAAAAAAAAAAAAAAAAAAAAAAAAAAAAAAAAAAAo9xggKPcYICn6Gv8p+hr/Kfoa/yn6Gv8p+hr/Kfoa/yn6Gt8p+hrfAAAAAAAAAAAAAAAAAAAAAAAAAAAAAAAAAAAAAAAAAAAAAAAAAAAAAAAAAAAAAAAAAAAAAAAAAAAAAAAAAAAAAAAAAAAAAAAAAAAAAAAAAAAAAAAAAAAAAAAAAAAAAAAAAAAAAAAAAAAAAAAAAAAAAAAAAAAAAAAAAAAAAAAAAAAAAAAAAAAAAAAAAAAAAAAAAAAAAAAAAAAAAAAAAAAAAAAAAAAAAAAAAAAAAAAAAAAAAAAAAAAAAAAAAAAAAAAAAAAAAAAAAAAAAAAAAAAAAAAAAAAAAAAAAAAAAAAAAAAAAAAAAAAAAAAAAAAAAAAAAAAAAAAAAAAAAAAAAAAAAAAAAAAAAAAAAAAAAAAAAAAAAAAAAAAAAAAAAAAAAAAAAAAAAAAAAAAAAAAAAAAAAAAAAAAAAAAAAAAAAAAAAAAAAAAAAAAAAAAAAAAAAAAAAAAAAAAAAAAAAAAAAAAAACn6Gt8p+hrfKfoa/yn6Gv8p+hr/Kfoa/yn6Gv8p+hr/K/obMCv6GzAAAAAAAAAAAAAAAAAAAAAAAAAAAAAAAAAAAAAAAAAAAAAAAAAAAAAAAAAAAAAAAAAAAAAAAAAAAAAAAAAAAAAAAAAAAAAAAAAAAAAAAAAAACj3GCAo9xggKfoa/yn6Gv8p+hr/Kfoa/yn6Gv8p+hr/Kfoa3yn6Gt8AAAAAAAAAAAAAAAAAAAAAAAAAAAAAAAAAAAAAAAAAAAAAAAAAAAAAAAAAAAAAAAAAAAAAAAAAAAAAAAAAAAAAAAAAAAAAAAAAAAAAAAAAAAAAAAAAAAAAAAAAAAAAAAAAAAAAAAAAAAAAAAAAAAAAAAAAAAAAAAAAAAAAAAAAAAAAAAAAAAAAAAAAAAAAAAAAAAAAAAAAAAAAAAAAAAAAAAAAAAAAAAAAAAAAAAAAAAAAAAAAAAAAAAAAAAAAAAAAAAAAAAAAAAAAAAAAAAAAAAAAAAAAAAAAAAAAAAAAAAAAAAAAAAAAAAAAAAAAAAAAAAAAAAAAAAAAAAAAAAAAAAAAAAAAAAAAAAAAAAAAAAAAAAAAAAAAAAAAAAAAAAAAAAAAAAAAAAAAAAAAAAAAAAAAAAAAAAAAAAAAAAAAAAAAAAAAAAAAAAAAAAAAAAAAAAAAAAAAAAAAAAAAAAAAKfoa3yn6Gt8p+hr/Kfoa/yn6Gv8p+hr/Kfoa/yn6Gv8r+hswK/obMAAAAAAAAAAAAAAAAAAAAAAAAAAAAAAAAAAAAAAAAAAAAAAAAAAAAAAAAAAAAAAAAAAAAAAAAAAAAAAAAAAAAAAAAAAAAAAAAAAAAAAAAAAAKPcYICj3GCAp+hr/Kfoa/yn6Gv8p+hr/Kfoa/yn6Gv8p+hrfKfoa3wAAAAAAAAAAAAAAAAAAAAAAAAAAAAAAAAAAAAAAAAAAAAAAAAAAAAAAAAAAAAAAAAAAAAAAAAAAAAAAAAAAAAAAAAAAAAAAAAAAAAAAAAAAAAAAAAAAAAAAAAAAAAAAAAAAAAAAAAAAAAAAAAAAAAAAAAAAAAAAAAAAAAAAAAAAAAAAAAAAAAAAAAAAAAAAAAAAAAAAAAAAAAAAAAAAAAAAAAAAAAAAAAAAAAAAAAAAAAAAAAAAAAAAAAAAAAAAAAAAAAAAAAAAAAAAAAAAAAAAAAAAAAAAAAAAAAAAAAAAAAAAAAAAAAAAAAAAAAAAAAAAAAAAAAAAAAAAAAAAAAAAAAAAAAAAAAAAAAAAAAAAAAAAAAAAAAAAAAAAAAAAAAAAAAAAAAAAAAAAAAAAAAAAAAAAAAAAAAAAAAAAAAAAAAAAAAAAAAAAAAAAAAAAAAAAAAAAAAAAAAAAAAAAAAAp+hrfKfoa3yn6Gv8p+hr/Kfoa/yn6Gv8p+hr/Kfoa/yv6GzAr+hswAAAAAAAAAAAAAAAAAAAAAAAAAAAAAAAAAAAAAAAAAAAAAAAAAAAAAAAAAAAAAAAAAAAAAAAAAAAAAAAAAAAAAAAAAAAAAAAAAAAAAAAAAAAo9xggKPcYICn6Gv8p+hr/Kfoa/yn6Gv8p+hr/Kfoa/yn6Gt8p+hrfAAAAAAAAAAAAAAAAAAAAAAAAAAAAAAAAAAAAAAAAAAAAAAAAAAAAAAAAAAAAAAAAAAAAAAAAAAAAAAAAAAAAAAAAAAAAAAAAAAAAAAAAAAAAAAAAAAAAAAAAAAAAAAAAAAAAAAAAAAAAAAAAAAAAAAAAAAAAAAAAAAAAAAAAAAAAAAAAAAAAAAAAAAAAAAAAAAAAAAAAAAAAAAAAAAAAAAAAAAAAAAAAAAAAAAAAAAAAAAAAAAAAAAAAAAAAAAAAAAAAAAAAAAAAAAAAAAAAAAAAAAAAAAAAAAAAAAAAAAAAAAAAAAAAAAAAAAAAAAAAAAAAAAAAAAAAAAAAAAAAAAAAAAAAAAAAAAAAAAAAAAAAAAAAAAAAAAAAAAAAAAAAAAAAAAAAAAAAAAAAAAAAAAAAAAAAAAAAAAAAAAAAAAAAAAAAAAAAAAAAAAAAAAAAAAAAAAAAAAAAAAAAAAAAACn6Gt8p+hrfKfoa/yn6Gv8p+hr/Kfoa/yn6Gv8p+hr/K/obMCv6GzAAAAAAAAAAAAAAAAAAAAAAAAAAAAAAAAAAAAAAAAAAAAAAAAAAAAAAAAAAAAAAAAAAAAAAAAAAAAAAAAAAAAAAAAAAAAAAAAAAAAAAAAAAACj3GCAo9xggKfoa/yn6Gv8p+hr/Kfoa/yn6Gv8p+hr/Kfoa3yn6Gt8AAAAAAAAAAAAAAAAAAAAAAAAAAAAAAAAAAAAAAAAAAAAAAAAAAAAAAAAAAAAAAAAAAAAAAAAAAAAAAAAAAAAAAAAAAAAAAAAAAAAAAAAAAAAAAAAAAAAAAAAAAAAAAAAAAAAAAAAAAAAAAAAAAAAAAAAAAAAAAAAAAAAAAAAAAAAAAAAAAAAAAAAAAAAAAAAAAAAAAAAAAAAAAAAAAAAAAAAAAAAAAAAAAAAAAAAAAAAAAAAAAAAAAAAAAAAAAAAAAAAAAAAAAAAAAAAAAAAAAAAAAAAAAAAAAAAAAAAAAAAAAAAAAAAAAAAAAAAAAAAAAAAAAAAAAAAAAAAAAAAAAAAAAAAAAAAAAAAAAAAAAAAAAAAAAAAAAAAAAAAAAAAAAAAAAAAAAAAAAAAAAAAAAAAAAAAAAAAAAAAAAAAAAAAAAAAAAAAAAAAAAAAAAAAAAAAAAAAAAAAAAAAAAAAAKfoa3yn6Gt8p+hr/Kfoa/yn6Gv8p+hr/Kfoa/yn6Gv8r+hswK/obMAAAAAAAAAAAAAAAAAAAAAAAAAAAAAAAAAAAAAAAAAAAAAAAAAAAAAAAAAAAAAAAAAAAAAAAAAAAAAAAAAAAAAAAAAAAAAAAAAAAAAAAAAAAKPcYICj3GCAp+hr/Kfoa/yn6Gv8p+hr/Kfoa/yn6Gv8p+hrfKfoa3wAAAAAAAAAAAAAAAAAAAAAAAAAAAAAAAAAAAAAAAAAAAAAAAAAAAAAAAAAAAAAAAAAAAAAAAAAAAAAAAAAAAAAAAAAAAAAAAAAAAAAAAAAAAAAAAAAAAAAAAAAAAAAAAAAAAAAAAAAAAAAAAAAAAAAAAAAAAAAAAAAAAAAAAAAAAAAAAAAAAAAAAAAAAAAAAAAAAAAAAAAAAAAAAAAAAAAAAAAAAAAAAAAAAAAAAAAAAAAAAAAAAAAAAAAAAAAAAAAAAAAAAAAAAAAAAAAAAAAAAAAAAAAAAAAAAAAAAAAAAAAAAAAAAAAAAAAAAAAAAAAAAAAAAAAAAAAAAAAAAAAAAAAAAAAAAAAAAAAAAAAAAAAAAAAAAAAAAAAAAAAAAAAAAAAAAAAAAAAAAAAAAAAAAAAAAAAAAAAAAAAAAAAAAAAAAAAAAAAAAAAAAAAAAAAAAAAAAAAAAAAAAAAAAAAp+hrfKfoa3yn6Gv8p+hr/Kfoa/yn6Gv8p+hr/Kfoa/yv6GzAr+hswAAAAAAAAAAAAAAAAAAAAAAAAAAAAAAAAAAAAAAAAAAAAAAAAAAAAAAAAAAAAAAAAAAAAAAAAAAAAAAAAAAAAAAAAAAAAAAAAAAAAAAAAAAAo9xggKPcYICn6Gv8p+hr/Kfoa/yn6Gv8p+hr/Kfoa/yn6Gt8p+hrfAAAAAAAAAAAAAAAAAAAAAAAAAAAAAAAAAAAAAAAAAAAAAAAAAAAAAAAAAAAAAAAAAAAAAAAAAAAAAAAAAAAAAAAAAAAAAAAAAAAAAAAAAAAAAAAAAAAAAAAAAAAAAAAAAAAAAAAAAAAAAAAAAAAAAAAAAAAAAAAAAAAAAAAAAAAAAAAAAAAAAAAAAAAAAAAAAAAAAAAAAAAAAAAAAAAAAAAAAAAAAAAAAAAAAAAAAAAAAAAAAAAAAAAAAAAAAAAAAAAAAAAAAAAAAAAAAAAAAAAAAAAAAAAAAAAAAAAAAAAAAAAAAAAAAAAAAAAAAAAAAAAAAAAAAAAAAAAAAAAAAAAAAAAAAAAAAAAAAAAAAAAAAAAAAAAAAAAAAAAAAAAAAAAAAAAAAAAAAAAAAAAAAAAAAAAAAAAAAAAAAAAAAAAAAAAAAAAAAAAAAAAAAAAAAAAAAAAAAAAAAAAAAAAAACn6Gt8p+hrfKfoa/yn6Gv8p+hr/Kfoa/yn6Gv8p+hr/K/obMCv6GzAAAAAAAAAAAAAAAAAAAAAAAAAAAAAAAAAAAAAAAAAAAAAAAAAAAAAAAAAAAAAAAAAAAAAAAAAAAAAAAAAAAAAAAAAAAAAAAAAAAAAAAAAAACj3GCAo9xggKfoa/yn6Gv8p+hr/Kfoa/yn6Gv8p+hr/Kfoa3yn6Gt8AAAAAAAAAAAAAAAAAAAAAAAAAAAAAAAAAAAAAAAAAAAAAAAAAAAAAAAAAAAAAAAAAAAAAAAAAAAAAAAAAAAAAAAAAAAAAAAAAAAAAAAAAAAAAAAAAAAAAAAAAAAAAAAAAAAAAAAAAAAAAAAAAAAAAAAAAAAAAAAAAAAAAAAAAAAAAAAAAAAAAAAAAAAAAAAAAAAAAAAAAAAAAAAAAAAAAAAAAAAAAAAAAAAAAAAAAAAAAAAAAAAAAAAAAAAAAAAAAAAAAAAAAAAAAAAAAAAAAAAAAAAAAAAAAAAAAAAAAAAAAAAAAAAAAAAAAAAAAAAAAAAAAAAAAAAAAAAAAAAAAAAAAAAAAAAAAAAAAAAAAAAAAAAAAAAAAAAAAAAAAAAAAAAAAAAAAAAAAAAAAAAAAAAAAAAAAAAAAAAAAAAAAAAAAAAAAAAAAAAAAAAAAAAAAAAAAAAAAAAAAAAAAAAAAKfoa3yn6Gt8p+hr/Kfoa/yn6Gv8p+hr/Kfoa/yn6Gv8r+hswK/obMAAAAAAAAAAAAAAAAAAAAAAAAAAAAAAAAAAAAAAAAAAAAAAAAAAAAAAAAAAAAAAAAAAAAAAAAAAAAAAAAAAAAAAAAAAAAAAAAAAAAAAAAAAAKPcYICj3GCAp+hr/Kfoa/yn6Gv8p+hr/Kfoa/yn6Gv8p+hrfKfoa3wAAAAAAAAAAAAAAAAAAAAAAAAAAAAAAAAAAAAAAAAAAAAAAAAAAAAAAAAAAAAAAAAAAAAAAAAAAAAAAAAAAAAAAAAAAAAAAAAAAAAAAAAAAAAAAAAAAAAAAAAAAAAAAAAAAAAAAAAAAAAAAAAAAAAAAAAAAAAAAAAAAAAAAAAAAAAAAAAAAAAAAAAAAAAAAAAAAAAAAAAAAAAAAAAAAAAAAAAAAAAAAAAAAAAAAAAAAAAAAAAAAAAAAAAAAAAAAAAAAAAAAAAAAAAAAAAAAAAAAAAAAAAAAAAAAAAAAAAAAAAAAAAAAAAAAAAAAAAAAAAAAAAAAAAAAAAAAAAAAAAAAAAAAAAAAAAAAAAAAAAAAAAAAAAAAAAAAAAAAAAAAAAAAAAAAAAAAAAAAAAAAAAAAAAAAAAAAAAAAAAAAAAAAAAAAAAAAAAAAAAAAAAAAAAAAAAAAAAAAAAAAAAAAAAAp+hrfKfoa3yn6Gv8p+hr/Kfoa/yn6Gv8p+hr/Kfoa/yv6GzAr+hswAAAAAAAAAAAAAAAAAAAAAAAAAAAAAAAAAAAAAAAAAAAAAAAAAAAAAAAAAAAAAAAAAAAAAAAAAAAAAAAAAAAAAAAAAAAAAAAAAAAAAAAAAAAo9xggKPcYICn6Gv8p+hr/Kfoa/yn6Gv8p+hr/Kfoa/yn6Gt8p+hrfAAAAAAAAAAAAAAAAAAAAAAAAAAAAAAAAAAAAAAAAAAAAAAAAAAAAAAAAAAAAAAAAAAAAAAAAAAAAAAAAAAAAAAAAAAAAAAAAAAAAAAAAAAAAAAAAAAAAAAAAAAAAAAAAAAAAAAAAAAAAAAAAAAAAAAAAAAAAAAAAAAAAAAAAAAAAAAAAAAAAAAAAAAAAAAAAAAAAAAAAAAAAAAAAAAAAAAAAAAAAAAAAAAAAAAAAAAAAAAAAAAAAAAAAAAAAAAAAAAAAAAAAAAAAAAAAAAAAAAAAAAAAAAAAAAAAAAAAAAAAAAAAAAAAAAAAAAAAAAAAAAAAAAAAAAAAAAAAAAAAAAAAAAAAAAAAAAAAAAAAAAAAAAAAAAAAAAAAAAAAAAAAAAAAAAAAAAAAAAAAAAAAAAAAAAAAAAAAAAAAAAAAAAAAAAAAAAAAAAAAAAAAAAAAAAAAAAAAAAAAAAAAAAAAACn6Gt8p+hrfKfoa/yn6Gv8p+hr/Kfoa/yn6Gv8p+hr/K/obMCv6GzAAAAAAAAAAAAAAAAAAAAAAAAAAAAAAAAAAAAAAAAAAAAAAAAAAAAAAAAAAAAAAAAAAAAAAAAAAAAAAAAAAAAAAAAAAAAAAAAAAAAAAAAAAACj3GCAo9xggKfoa/yn6Gv8p+hr/Kfoa/yn6Gv8p+hr/Kfoa3yn6Gt8AAAAAAAAAAAAAAAAAAAAAAAAAAAAAAAAAAAAAAAAAAAAAAAAAAAAAAAAAAAAAAAAAAAAAAAAAAAAAAAAAAAAAAAAAAAAAAAAAAAAAAAAAAAAAAAAAAAAAAAAAAAAAAAAAAAAAAAAAAAAAAAAAAAAAAAAAAAAAAAAAAAAAAAAAAAAAAAAAAAAAAAAAAAAAAAAAAAAAAAAAAAAAAAAAAAAAAAAAAAAAAAAAAAAAAAAAAAAAAAAAAAAAAAAAAAAAAAAAAAAAAAAAAAAAAAAAAAAAAAAAAAAAAAAAAAAAAAAAAAAAAAAAAAAAAAAAAAAAAAAAAAAAAAAAAAAAAAAAAAAAAAAAAAAAAAAAAAAAAAAAAAAAAAAAAAAAAAAAAAAAAAAAAAAAAAAAAAAAAAAAAAAAAAAAAAAAAAAAAAAAAAAAAAAAAAAAAAAAAAAAAAAAAAAAAAAAAAAAAAAAAAAAAAAAKfoa3yn6Gt8p+hr/Kfoa/yn6Gv8p+hr/Kfoa/yn6Gv8r+hswK/obMAAAAAAAAAAAAAAAAAAAAAAAAAAAAAAAAAAAAAAAAAAAAAAAAAAAAAAAAAAAAAAAAAAAAAAAAAAAAAAAAAAAAAAAAAAAAAAAAAAAAAAAAAAAKPcYICj3GCAp+hr/Kfoa/yn6Gv8p+hr/Kfoa/yn6Gv8p+hrfKfoa3wAAAAAAAAAAAAAAAAAAAAAAAAAAAAAAAAAAAAAAAAAAAAAAAAAAAAAAAAAAAAAAAAAAAAAAAAAAAAAAAAAAAAAAAAAAAAAAAAAAAAAAAAAAAAAAAAAAAAAAAAAAAAAAAAAAAAAAAAAAAAAAAAAAAAAAAAAAAAAAAAAAAAAAAAAAAAAAAAAAAAAAAAAAAAAAAAAAAAAAAAAAAAAAAAAAAAAAAAAAAAAAAAAAAAAAAAAAAAAAAAAAAAAAAAAAAAAAAAAAAAAAAAAAAAAAAAAAAAAAAAAAAAAAAAAAAAAAAAAAAAAAAAAAAAAAAAAAAAAAAAAAAAAAAAAAAAAAAAAAAAAAAAAAAAAAAAAAAAAAAAAAAAAAAAAAAAAAAAAAAAAAAAAAAAAAAAAAAAAAAAAAAAAAAAAAAAAAAAAAAAAAAAAAAAAAAAAAAAAAAAAAAAAAAAAAAAAAAAAAAAAAAAAAAAAp+hrfKfoa3yn6Gv8p+hr/Kfoa/yn6Gv8p+hr/Kfoa/yv6GzAr+hswAAAAAAAAAAAAAAAAAAAAAAAAAAAAAAAAAAAAAAAAAAAAAAAAAAAAAAAAAAAAAAAAAAAAAAAAAAAAAAAAAAAAAAAAAAAAAAAAAAAAAAAAAAAo9xggKPcYICn6Gv8p+hr/Kfoa/yn6Gv8p+hr/Kfoa/yn6Gt8p+hrfAAAAAAAAAAAAAAAAAAAAAAAAAAAAAAAAAAAAAAAAAAAAAAAAAAAAAAAAAAAAAAAAAAAAAAAAAAAAAAAAAAAAAAAAAAAAAAAAAAAAAAAAAAAAAAAAAAAAAAAAAAAAAAAAAAAAAAAAAAAAAAAAAAAAAAAAAAAAAAAAAAAAAAAAAAAAAAAAAAAAAAAAAAAAAAAAAAAAAAAAAAAAAAAAAAAAAAAAAAAAAAAAAAAAAAAAAAAAAAAAAAAAAAAAAAAAAAAAAAAAAAAAAAAAAAAAAAAAAAAAAAAAAAAAAAAAAAAAAAAAAAAAAAAAAAAAAAAAAAAAAAAAAAAAAAAAAAAAAAAAAAAAAAAAAAAAAAAAAAAAAAAAAAAAAAAAAAAAAAAAAAAAAAAAAAAAAAAAAAAAAAAAAAAAAAAAAAAAAAAAAAAAAAAAAAAAAAAAAAAAAAAAAAAAAAAAAAAAAAAAAAAAAAAAACn6Gt8p+hrfKfoa/yn6Gv8p+hr/Kfoa/yn6Gv8p+hr/K/obMCv6GzAAAAAAAAAAAAAAAAAAAAAAAAAAAAAAAAAAAAAAAAAAAAAAAAAAAAAAAAAAAAAAAAAAAAAAAAAAAAAAAAAAAAAAAAAAAAAAAAAAAAAAAAAAACj3GCAo9xggKfoa/yn6Gv8p+hr/Kfoa/yn6Gv8p+hr/Kfoa3yn6Gt8AAAAAAAAAAAAAAAAAAAAAAAAAAAAAAAAAAAAAAAAAAAAAAAAAAAAAAAAAAAAAAAAAAAAAAAAAAAAAAAAAAAAAAAAAAAAAAAAAAAAAAAAAAAAAAAAAAAAAAAAAAAAAAAAAAAAAAAAAAAAAAAAAAAAAAAAAAAAAAAAAAAAAAAAAAAAAAAAAAAAAAAAAAAAAAAAAAAAAAAAAAAAAAAAAAAAAAAAAAAAAAAAAAAAAAAAAAAAAAAAAAAAAAAAAAAAAAAAAAAAAAAAAAAAAAAAAAAAAAAAAAAAAAAAAAAAAAAAAAAAAAAAAAAAAAAAAAAAAAAAAAAAAAAAAAAAAAAAAAAAAAAAAAAAAAAAAAAAAAAAAAAAAAAAAAAAAAAAAAAAAAAAAAAAAAAAAAAAAAAAAAAAAAAAAAAAAAAAAAAAAAAAAAAAAAAAAAAAAAAAAAAAAAAAAAAAAAAAAAAAAAAAAAAAAKfoa3yn6Gt8p+hr/Kfoa/yn6Gv8p+hr/Kfoa/yn6Gv8r+hswK/obMAAAAAAAAAAAAAAAAAAAAAAAAAAAAAAAAAAAAAAAAAAAAAAAAAAAAAAAAAAAAAAAAAAAAAAAAAAAAAAAAAAAAAAAAAAAAAAAAAAAAAAAAAAAKPcYICj3GCAp+hr/Kfoa/yn6Gv8p+hr/Kfoa/yn6Gv8p+hrfKfoa3wAAAAAAAAAAAAAAAAAAAAAAAAAAAAAAAAAAAAAAAAAAAAAAAAAAAAAAAAAAAAAAAAAAAAAAAAAAAAAAAAAAAAAAAAAAAAAAAAAAAAAAAAAAAAAAAAAAAAAAAAAAAAAAAAAAAAAAAAAAAAAAAAAAAAAAAAAAAAAAAAAAAAAAAAAAAAAAAAAAAAAAAAAAAAAAAAAAAAAAAAAAAAAAAAAAAAAAAAAAAAAAADD/IBAw/yAQMP8gEDD/IBAw/yAQMP8gEAAAAAAAAAAAAAAAAAAAAAAAAAAAAAAAAAAAAAAAAAAAAAAAAAAAAAAAAAAAAAAAAAAAAAAAAAAAAAAAAAAAAAAAAAAAAAAAAAAAAAAAAAAAAAAAAAAAAAAAAAAAAAAAAAAAAAAAAAAAAAAAAAAAAAAAAAAAAAAAAAAAAAAAAAAAAAAAAAAAAAAAAAAAAAAAAAAAAAAAAAAAAAAAAAAAAAAp+hrfKfoa3yn6Gv8p+hr/Kfoa/yn6Gv8p+hr/Kfoa/yv6GzAr+hswAAAAAAAAAAAAAAAAAAAAAAAAAAAAAAAAAAAAAAAAAAAAAAAAAAAAAAAAAAAAAAAAAAAAAAAAAAAAAAAAAAAAAAAAAAAAAAAAAAAAAAAAAAAo9xggKPcYICn6Gv8p+hr/Kfoa/yn6Gv8p+hr/Kfoa/yn6Gt8p+hrfAAAAAAAAAAAAAAAAAAAAAAAAAAAAAAAAAAAAAAAAAAAAAAAAAAAAAAAAAAAAAAAAAAAAAAAAAAAAAAAAAAAAAAAAAAAAAAAAAAAAAAAAAAAAAAAAAAAAAAAAAAAAAAAAAAAAAAAAAAAAAAAAAAAAAAAAAAAAAAAAAAAAAAAAAAAAAAAAAAAAAAAAAAAAAAAAAAAAAAAAAAAAAAAAAAAAAAAAAAAAAAAAMP8gEDD/IBAw/yAQMP8gEDD/IBAw/yAQAAAAAAAAAAAAAAAAAAAAAAAAAAAAAAAAAAAAAAAAAAAAAAAAAAAAAAAAAAAAAAAAAAAAAAAAAAAAAAAAAAAAAAAAAAAAAAAAAAAAAAAAAAAAAAAAAAAAAAAAAAAAAAAAAAAAAAAAAAAAAAAAAAAAAAAAAAAAAAAAAAAAAAAAAAAAAAAAAAAAAAAAAAAAAAAAAAAAAAAAAAAAAAAAAAAAACn6Gt8p+hrfKfoa/yn6Gv8p+hr/Kfoa/yn6Gv8p+hr/K/obMCv6GzAAAAAAAAAAAAAAAAAAAAAAAAAAAAAAAAAAAAAAAAAAAAAAAAAAAAAAAAAAAAAAAAAAAAAAAAAAAAAAAAAAAAAAAAAAAAAAAAAAAAAAAAAAACj3GCAo9xggKfoa/yn6Gv8p+hr/Kfoa/yn6Gv8p+hr/Kfoa3yn6Gt8AAAAAAAAAAAAAAAAAAAAAAAAAAAAAAAAAAAAAAAAAAAAAAAAAAAAAAAAAAAAAAAAAAAAAAAAAAAAAAAAAAAAAAAAAAAAAAAAAAAAAAAAAAAAAAAAAAAAAAAAAAAAAAAAAAAAAAAAAAAAAAAAAAAAAAAAAAAAAAAAAAAAAAAAAACn5GlAp+RpQKPkagCj5GoAp+hm/KfoZvyn6Gv8p+hr/Kfoa/yn6Gv8p+hr/Kfoa/yn6Gv8p+hr/Kfoa/yn6Gv8p+hrvKfoa7yn6Gb8p+hm/Kfsbjyn7G48o9xhAKPcYQDD/IBAw/yAQAAAAAAAAAAAAAAAAAAAAAAAAAAAAAAAAAAAAAAAAAAAAAAAAAAAAAAAAAAAAAAAAAAAAAAAAAAAAAAAAAAAAAAAAAAAAAAAAAAAAAAAAAAAAAAAAAAAAAAAAAAAAAAAAAAAAAAAAAAAAAAAAAAAAAAAAAAAAAAAAKfoa3yn6Gt8p+hr/Kfoa/yn6Gv8p+hr/Kfoa/yn6Gv8r+hswK/obMAAAAAAAAAAAAAAAAAAAAAAAAAAAAAAAAAAAAAAAAAAAAAAAAAAAAAAAAAAAAAAAAAAAAAAAAAAAAAAAAAAAAAAAAAAAAAAAAAAAAAAAAAAAKPcYICj3GCAp+hr/Kfoa/yn6Gv8p+hr/Kfoa/yn6Gv8p+hrfKfoa3wAAAAAAAAAAAAAAAAAAAAAAAAAAAAAAAAAAAAAAAAAAAAAAAAAAAAAAAAAAAAAAAAAAAAAAAAAAAAAAAAAAAAAAAAAAAAAAAAAAAAAAAAAAAAAAAAAAAAAAAAAAAAAAAAAAAAAAAAAAAAAAAAAAAAAAAAAAAAAAAAAAAAAAAAAAKfkaUCn5GlAo+RqAKPkagCn6Gb8p+hm/Kfoa/yn6Gv8p+hr/Kfoa/yn6Gv8p+hr/Kfoa/yn6Gv8p+hr/Kfoa/yn6Gu8p+hrvKfoZvyn6Gb8p+xuPKfsbjyj3GEAo9xhAMP8gEDD/IBAAAAAAAAAAAAAAAAAAAAAAAAAAAAAAAAAAAAAAAAAAAAAAAAAAAAAAAAAAAAAAAAAAAAAAAAAAAAAAAAAAAAAAAAAAAAAAAAAAAAAAAAAAAAAAAAAAAAAAAAAAAAAAAAAAAAAAAAAAAAAAAAAAAAAAAAAAAAAAAAAp+hrfKfoa3yn6Gv8p+hr/Kfoa/yn6Gv8p+hr/Kfoa/yv6GzAr+hswAAAAAAAAAAAAAAAAAAAAAAAAAAAAAAAAAAAAAAAAAAAAAAAAAAAAAAAAAAAAAAAAAAAAAAAAAAAAAAAAAAAAAAAAAAAAAAAAAAAAAAAAAAAo9xggKPcYICn6Gb8p+hm/KfoZvyn6Gb8p+hm/KfoZvyr6Gp8q+hqfAAAAAAAAAAAAAAAAAAAAAAAAAAAAAAAAAAAAAAAAAAAAAAAAAAAAAAAAAAAAAAAAAAAAAAAAAAAAAAAAAAAAAAAAAAAAAAAAAAAAAAAAAAAAAAAAAAAAAAAAAAAAAAAAAAAAAAAAAAAr+hswK/obMCj5GoAo+RqAKfoa7yn6Gu8p+hr/Kfoa/yn6Gv8p+hr/Kfoa/yn6Gv8p+hr/Kfoa/yn6Gv8p+hr/Kfoa/yn6Gv8p+hr/Kfoa/yn6Gv8p+hr/Kfoa/yn6Gv8p+hr/Kfoa/yn6Gv8p+hr/Kfoa/yn6Gv8p+hrvKfoa7yj5GoAo+RqAK/obMCv6GzAAAAAAAAAAAAAAAAAAAAAAAAAAAAAAAAAAAAAAAAAAAAAAAAAAAAAAAAAAAAAAAAAAAAAAAAAAAAAAAAAAAAAAAAAAAAAAAAAAAAAAAAAAAAAAAAAAAAAAAAAAAAAAAAAAAAAAAAAAACn7Gq8p+xqvKfoZvyn6Gb8p+hm/KfoZvyn6Gb8p+hm/KPcYICj3GCAAAAAAAAAAAAAAAAAAAAAAAAAAAAAAAAAAAAAAAAAAAAAAAAAAAAAAAAAAAAAAAAAAAAAAAAAAAAAAAAAAAAAAAAAAAAAAAAAAAAAAAAAAACj3GCAo9xggKfoZvyn6Gb8p+hm/KfoZvyn6Gb8p+hm/Kvoanyr6Gp8AAAAAAAAAAAAAAAAAAAAAAAAAAAAAAAAAAAAAAAAAAAAAAAAAAAAAAAAAAAAAAAAAAAAAAAAAAAAAAAAAAAAAAAAAAAAAAAAAAAAAAAAAAAAAAAAAAAAAAAAAAAAAAAAAAAAAAAAAACv6GzAr+hswKPkagCj5GoAp+hrvKfoa7yn6Gv8p+hr/Kfoa/yn6Gv8p+hr/Kfoa/yn6Gv8p+hr/Kfoa/yn6Gv8p+hr/Kfoa/yn6Gv8p+hr/Kfoa/yn6Gv8p+hr/Kfoa/yn6Gv8p+hr/Kfoa/yn6Gv8p+hr/Kfoa/yn6Gu8p+hrvKPkagCj5GoAr+hswK/obMAAAAAAAAAAAAAAAAAAAAAAAAAAAAAAAAAAAAAAAAAAAAAAAAAAAAAAAAAAAAAAAAAAAAAAAAAAAAAAAAAAAAAAAAAAAAAAAAAAAAAAAAAAAAAAAAAAAAAAAAAAAAAAAAAAAAAAAAAAAKfsaryn7Gq8p+hm/KfoZvyn6Gb8p+hm/KfoZvyn6Gb8o9xggKPcYIAAAAAAAAAAAAAAAAAAAAAAAAAAAAAAAAAAAAAAAAAAAAAAAAAAAAAAAAAAAAAAAAAAAAAAAAAAAAAAAAAAAAAAAAAAAAAAAAAAAAAAAAAAAAAAAAAAAAAAAAAAAAAAAAAAAAAAAAAAAAAAAAAAAAAAAAAAAAAAAAAAAAAAAAAAAAAAAAAAAAAAAAAAAAAAAAAAAAAAAAAAAAAAAAAAAAAAAAAAAAAAAAAAAAAAAAAAAAAAAAAAAAAAAAAAAAAAAAAAAAAAAAAAAAAAAAAAAAAAAAAAAAAAAACn7G48p+xuPKfoa/yn6Gv8p+hr/Kfoa/yn6Gv8p+hr/Kfoa/yn6Gv8p+hr/Kfoa/yn6Gv8p+hr/Kfoa/yn6Gv8p+hr/Kfoa/yn6Gv8p+hr/Kfoa/yn6Gv8p+hr/Kfoa/yn6Gv8p+hr/Kfoa/yn6Gv8p+hr/Kfoa/yn6Gv8p+hr/Kfoa/yn6Gv8p+hr/Kfoa/yn6Gu8p+hrvKfsbjyn7G48w/yAQMP8gEAAAAAAAAAAAAAAAAAAAAAAAAAAAAAAAAAAAAAAAAAAAAAAAAAAAAAAAAAAAAAAAAAAAAAAAAAAAAAAAAAAAAAAAAAAAAAAAAAAAAAAAAAAAAAAAAAAAAAAAAAAAAAAAAAAAAAAAAAAAAAAAAAAAAAAAAAAAAAAAAAAAAAAAAAAAAAAAAAAAAAAAAAAAAAAAAAAAAAAAAAAAAAAAAAAAAAAAAAAAAAAAAAAAAAAAAAAAAAAAAAAAAAAAAAAAAAAAAAAAAAAAAAAAAAAAAAAAAAAAAAAAAAAAAAAAAAAAAAAAAAAAAAAAAAAAAAAAAAAAAAAAAAAAAAAAAAAAAAAAAAAAAAAAAAAAAAAAAAAAAAAAAAAAAAAAAAAAAAAAAAAAAAAAAAAAAAAAAAAAAAAAAAAAAAAAAAAAAAAAAAAAAAAAAAAAAAAAAAAAAAAAAAAAAAAAAAAAAAAAKfsbjyn7G48p+hr/Kfoa/yn6Gv8p+hr/Kfoa/yn6Gv8p+hr/Kfoa/yn6Gv8p+hr/Kfoa/yn6Gv8p+hr/Kfoa/yn6Gv8p+hr/Kfoa/yn6Gv8p+hr/Kfoa/yn6Gv8p+hr/Kfoa/yn6Gv8p+hr/Kfoa/yn6Gv8p+hr/Kfoa/yn6Gv8p+hr/Kfoa/yn6Gv8p+hr/Kfoa7yn6Gu8p+xuPKfsbjzD/IBAw/yAQAAAAAAAAAAAAAAAAAAAAAAAAAAAAAAAAAAAAAAAAAAAAAAAAAAAAAAAAAAAAAAAAAAAAAAAAAAAAAAAAAAAAAAAAAAAAAAAAAAAAAAAAAAAAAAAAAAAAAAAAAAAAAAAAAAAAAAAAAAAAAAAAAAAAAAAAAAAAAAAAAAAAAAAAAAAAAAAAAAAAAAAAAAAAAAAAAAAAAAAAAAAAAAAAAAAAAAAAAAAAAAAAAAAAAAAAAAAAAAAAAAAAAAAAAAAAAAAAAAAAAAAAAAAAAAAAAAAAAAAAAAAAAAAAAAAAAAAAAAAAAAAAAAAAAAAAAAAAAAAAAAAAAAAAAAAAAAAAAAAAAAAAAAAAAAAAAAAAAAAAAAAAAAAAAAAAAAAAAAAAAAAAAAAAAAAAAAAAAAAAAAAAAAAAAAAAAAAAAAAAAAAAAAAAAAAAAAAAACj6G2Ao+htgKfoa/yn6Gv8p+hr/Kfoa/yn6Gv8p+hr/Kfoa/yn6Gv8p+hr/Kfoa/yn6Gv8p+hr/Kfoa/yn6Gv8p+hr/Kfoa/yn6Gv8p+hr/Kfsaryn7Gq8q+hqfKvoanyn6Gb8p+hm/Kfoazyn6Gs8p+hrvKfoa7yn6Gv8p+hr/Kfoa/yn6Gv8p+hr/Kfoa/yn6Gv8p+hr/Kfoa/yn6Gv8p+hr/Kfoa/yn6Gv8p+hr/Kfoa7yn6Gu8o+htgKPobYAAAAAAAAAAAAAAAAAAAAAAAAAAAAAAAAAAAAAAAAAAAAAAAAAAAAAAAAAAAAAAAAAAAAAAAAAAAAAAAAAAAAAAAAAAAAAAAAAAAAAAAAAAAAAAAAAAAAAAAAAAAAAAAAAAAAAAAAAAAAAAAAAAAAAAAAAAAAAAAAAAAAAAAAAAAAAAAAAAAAAAAAAAAAAAAAAAAAAAAAAAAAAAAAAAAAAAAAAAAAAAAAAAAAAAAAAAAAAAAAAAAAAAAAAAAAAAAAAAAAAAAAAAAAAAAAAAAAAAAAAAAAAAAAAAAAAAAAAAAAAAAAAAAAAAAAAAAAAAAAAAAAAAAAAAAAAAAAAAAAAAAAAAAAAAAAAAAAAAAAAAAAAAAAAAAAAAAAAAAAAAAAAAAAAAAAAAAAAAAAAAAAAAAAAAAAAAAAAAAAAAAAAAAKPobYCj6G2Ap+hr/Kfoa/yn6Gv8p+hr/Kfoa/yn6Gv8p+hr/Kfoa/yn6Gv8p+hr/Kfoa/yn6Gv8p+hr/Kfoa/yn6Gv8p+hr/Kfoa/yn6Gv8p+xqvKfsaryr6Gp8q+hqfKfoZvyn6Gb8p+hrPKfoazyn6Gu8p+hrvKfoa/yn6Gv8p+hr/Kfoa/yn6Gv8p+hr/Kfoa/yn6Gv8p+hr/Kfoa/yn6Gv8p+hr/Kfoa/yn6Gv8p+hrvKfoa7yj6G2Ao+htgAAAAAAAAAAAAAAAAAAAAAAAAAAAAAAAAAAAAAAAAAAAAAAAAAAAAAAAAAAAAAAAAAAAAAAAAAAAAAAAAAAAAAAAAAAAAAAAAAAAAAAAAAAAAAAAAAAAAAAAAAAAAAAAAAAAAAAAAAAAAAAAAAAAAAAAAAAAAAAAAAAAAAAAAAAAAAAAAAAAAAAAAAAAAAAAAAAAAAAAAAAAAAAAAAAAAAAAAAAAAAAAAAAAAAAAAAAAAAAAAAAAAAAAAAAAAAAAAAAAAAAAAAAAAAAAAAAAAAAAAAAAAAAAAAAAAAAAAAAAAAAAAAAAAAAAAAAAAAAAAAAAAAAAAAAAAAAAAAAAAAAAAAAAAAAAAAAAAAAAAAAAAAAAAAAAAAAAAAAAAAAAAAAAAAAAAAAAAAAAAAAAAAAAAAAAAAAAAKfsbjyn7G48p+hr/Kfoa/yn6Gv8p+hr/Kfoa/yn6Gv8p+hr/Kfoa/yn6Gv8p+hr/Kfoa/yn6Gv8p+hm/KfoZvyj6G2Ao+htgKPcYICj3GCAAAAAAAAAAAAAAAAAAAAAAAAAAAAAAAAAAAAAAAAAAAAAAAAAAAAAAAAAAAAAAAAAw/yAQMP8gECj3GEAo9xhAKfoazyn6Gs8p+hr/Kfoa/yn6Gv8p+hr/Kfoa/yn6Gv8p+hr/Kfoa/yn6Gv8p+hr/Kfoa/yn6Gv8q+hqfKvoanzD/IBAw/yAQAAAAAAAAAAAAAAAAAAAAAAAAAAAAAAAAAAAAAAAAAAAAAAAAAAAAAAAAAAAAAAAAAAAAAAAAAAAAAAAAAAAAAAAAAAAAAAAAAAAAAAAAAAAAAAAAAAAAAAAAAAAAAAAAAAAAAAAAAAAAAAAAAAAAAAAAAAAAAAAAAAAAAAAAAAAAAAAAAAAAAAAAAAAAAAAAAAAAAAAAAAAAAAAAAAAAAAAAAAAAAAAAAAAAAAAAAAAAAAAAAAAAAAAAAAAAAAAAAAAAAAAAAAAAAAAAAAAAAAAAAAAAAAAAAAAAAAAAAAAAAAAAAAAAAAAAAAAAAAAAAAAAAAAAAAAAAAAAAAAAAAAAAAAAAAAAAAAAAAAAAAAAAAAAAAAAAAAAAAAAAAAAAAAAAAAAAAAp+xuPKfsbjyn6Gv8p+hr/Kfoa/yn6Gv8p+hr/Kfoa/yn6Gv8p+hr/Kfoa/yn6Gv8p+hr/Kfoa/yn6Gb8p+hm/KPobYCj6G2Ao9xggKPcYIAAAAAAAAAAAAAAAAAAAAAAAAAAAAAAAAAAAAAAAAAAAAAAAAAAAAAAAAAAAAAAAADD/IBAw/yAQKPcYQCj3GEAp+hrPKfoazyn6Gv8p+hr/Kfoa/yn6Gv8p+hr/Kfoa/yn6Gv8p+hr/Kfoa/yn6Gv8p+hr/Kfoa/yr6Gp8q+hqfMP8gEDD/IBAAAAAAAAAAAAAAAAAAAAAAAAAAAAAAAAAAAAAAAAAAAAAAAAAAAAAAAAAAAAAAAAAAAAAAAAAAAAAAAAAAAAAAAAAAAAAAAAAAAAAAAAAAAAAAAAAAAAAAAAAAAAAAAAAAAAAAAAAAAAAAAAAAAAAAAAAAAAAAAAAAAAAAAAAAAAAAAAAAAAAAAAAAAAAAAAAAAAAAAAAAAAAAAAAAAAAAAAAAAAAAAAAAAAAAAAAAAAAAAAAAAAAAAAAAAAAAAAAAAAAAAAAAAAAAAAAAAAAAAAAAAAAAAAAAAAAAAAAAAAAAAAAAAAAAAAAAAAAAAAAAAAAAAAAAAAAAAAAAAAAAAAAAAAAAAAAAAAAAAAAAAAAAAAAAAAAAMP8gEDD/IBAp+hrPKfoazyn6Gv8p+hr/Kfoa/yn6Gv8p+hr/Kfoa/yn6Gv8p+hr/Kfoa/yn6Gv8p+xqvKfsaryj3GCAo9xggAAAAAAAAAAAAAAAAAAAAAAAAAAAAAAAAAAAAAAAAAAAAAAAAAAAAAAAAAAAAAAAAAAAAAAAAAAAAAAAAAAAAAAAAAAAAAAAAAAAAAAAAAAAAAAAAAAAAAAAAAAAAAAAAKPcYQCj3GEAp+xuPKfsbjyn6Gu8p+hrvKfoa/yn6Gv8p+hr/Kfoa/yn6Gv8p+hr/Kfoa/yn6Gv8p+hrPKfoazyj3GCAo9xggAAAAAAAAAAAAAAAAAAAAAAAAAAAAAAAAAAAAAAAAAAAAAAAAAAAAAAAAAAAAAAAAAAAAAAAAAAAAAAAAAAAAAAAAAAAAAAAAAAAAAAAAAAAAAAAAAAAAAAAAAAAAAAAAAAAAAAAAAAAAAAAAAAAAAAAAAAAAAAAAAAAAAAAAAAAAAAAAAAAAAAAAAAAAAAAAAAAAAAAAAAAAAAAAAAAAAAAAAAAAAAAAAAAAAAAAAAAAAAAAAAAAAAAAAAAAAAAAAAAAAAAAAAAAAAAAAAAAAAAAAAAAAAAAAAAAAAAAAAAAAAAAAAAAAAAAAAAAAAAAAAAAAAAAAAAAAAAAAAAAAAAAAAAAAAAAAAAAAAAAAAAw/yAQMP8gECn6Gs8p+hrPKfoa/yn6Gv8p+hr/Kfoa/yn6Gv8p+hr/Kfoa/yn6Gv8p+hr/Kfoa/yn7Gq8p+xqvKPcYICj3GCAAAAAAAAAAAAAAAAAAAAAAAAAAAAAAAAAAAAAAAAAAAAAAAAAAAAAAAAAAAAAAAAAAAAAAAAAAAAAAAAAAAAAAAAAAAAAAAAAAAAAAAAAAAAAAAAAAAAAAAAAAAAAAAAAo9xhAKPcYQCn7G48p+xuPKfoa7yn6Gu8p+hr/Kfoa/yn6Gv8p+hr/Kfoa/yn6Gv8p+hr/Kfoa/yn6Gs8p+hrPKPcYICj3GCAAAAAAAAAAAAAAAAAAAAAAAAAAAAAAAAAAAAAAAAAAAAAAAAAAAAAAAAAAAAAAAAAAAAAAAAAAAAAAAAAAAAAAAAAAAAAAAAAAAAAAAAAAAAAAAAAAAAAAAAAAAAAAAAAAAAAAAAAAAAAAAAAAAAAAAAAAAAAAAAAAAAAAAAAAAAAAAAAAAAAAAAAAAAAAAAAAAAAAAAAAAAAAAAAAAAAAAAAAAAAAAAAAAAAAAAAAAAAAAAAAAAAAAAAAAAAAAAAAAAAAAAAAAAAAAAAAAAAAAAAAAAAAAAAAAAAAAAAAAAAAAAAAAAAAAAAAAAAAAAAAAAAAAAAAAAAAAAAAAAAAAAAAAAAAAAAo9xggKPcYICn6Gs8p+hrPKfoa/yn6Gv8p+hr/Kfoa/yn6Gv8p+hr/Kfoa/yn6Gv8p+hrPKfoazyv6GzAr+hswAAAAAAAAAAAAAAAAAAAAAAAAAAAAAAAAAAAAAAAAAAAAAAAAAAAAAAAAAAAAAAAAKfkaUCn5GlAp+BlwKfgZcCn4GXAp+BlwKPcYQCj3GEAw/yAQMP8gEAAAAAAAAAAAAAAAAAAAAAAAAAAAAAAAAAAAAAAAAAAAAAAAAAAAAAAo9xhAKPcYQCn6Gt8p+hrfKfoa/yn6Gv8p+hr/Kfoa/yn6Gv8p+hr/Kfoa/yn6Gv8p+hrPKfoazyj3GCAo9xggAAAAAAAAAAAAAAAAAAAAAAAAAAAAAAAAAAAAAAAAAAAAAAAAAAAAAAAAAAAAAAAAAAAAAAAAAAAAAAAAAAAAAAAAAAAAAAAAAAAAAAAAAAAAAAAAAAAAAAAAAAAAAAAAAAAAAAAAAAAAAAAAAAAAAAAAAAAAAAAAAAAAAAAAAAAAAAAAAAAAAAAAAAAAAAAAAAAAAAAAAAAAAAAAAAAAAAAAAAAAAAAAAAAAAAAAAAAAAAAAAAAAAAAAAAAAAAAAAAAAAAAAAAAAAAAAAAAAAAAAAAAAAAAAAAAAAAAAAAAAAAAAAAAAAAAAAAAAAAAAAAAAAAAAAAAAAAAAAAAAACj3GCAo9xggKfoazyn6Gs8p+hr/Kfoa/yn6Gv8p+hr/Kfoa/yn6Gv8p+hr/Kfoa/yn6Gs8p+hrPK/obMCv6GzAAAAAAAAAAAAAAAAAAAAAAAAAAAAAAAAAAAAAAAAAAAAAAAAAAAAAAAAAAAAAAAAAp+RpQKfkaUCn4GXAp+BlwKfgZcCn4GXAo9xhAKPcYQDD/IBAw/yAQAAAAAAAAAAAAAAAAAAAAAAAAAAAAAAAAAAAAAAAAAAAAAAAAAAAAACj3GEAo9xhAKfoa3yn6Gt8p+hr/Kfoa/yn6Gv8p+hr/Kfoa/yn6Gv8p+hr/Kfoa/yn6Gs8p+hrPKPcYICj3GCAAAAAAAAAAAAAAAAAAAAAAAAAAAAAAAAAAAAAAAAAAAAAAAAAAAAAAAAAAAAAAAAAAAAAAAAAAAAAAAAAAAAAAAAAAAAAAAAAAAAAAAAAAAAAAAAAAAAAAAAAAAAAAAAAAAAAAAAAAAAAAAAAAAAAAAAAAAAAAAAAAAAAAAAAAAAAAAAAAAAAAAAAAAAAAAAAAAAAAAAAAAAAAAAAAAAAAAAAAAAAAAAAAAAAAAAAAAAAAAAAAAAAAAAAAAAAAAAAAAAAAAAAAAAAAAAAAAAAAAAAAAAAAAAAAAAAAAAAAAAAAAAAAAAAAAAAAAAAAAAAAAAAAAAAAADD/IBAw/yAQKfoa7yn6Gu8p+hr/Kfoa/yn6Gv8p+hr/Kfoa/yn6Gv8p+hr/Kfoa/yr6Gp8q+hqfAAAAAAAAAAAAAAAAAAAAAAAAAAAAAAAAAAAAAAAAAAAAAAAAAAAAAAAAAAAAAAAAKfgZcCn4GXAp+hr/Kfoa/yn6Gv8p+hr/Kfoa/yn6Gv8p+hr/Kfoa/yn6Gv8p+hr/Kfoa7yn6Gu8p+BlwKfgZcDD/IBAw/yAQAAAAAAAAAAAAAAAAAAAAAAAAAAAAAAAAAAAAAAAAAAAw/yAQMP8gECn7G48p+xuPKfoa/yn6Gv8p+hr/Kfoa/yn6Gv8p+hr/Kfoa/yn6Gv8p+hrvKfoa7yv6GzAr+hswAAAAAAAAAAAAAAAAAAAAAAAAAAAAAAAAAAAAAAAAAAAAAAAAAAAAAAAAAAAAAAAAAAAAAAAAAAAAAAAAAAAAAAAAAAAAAAAAAAAAAAAAAAAAAAAAAAAAAAAAAAAAAAAAAAAAAAAAAAAAAAAAAAAAAAAAAAAAAAAAAAAAAAAAAAAAAAAAAAAAAAAAAAAAAAAAAAAAAAAAAAAAAAAAAAAAAAAAAAAAAAAAAAAAAAAAAAAAAAAAAAAAAAAAAAAAAAAAAAAAAAAAAAAAAAAAAAAAAAAAAAAAAAAAAAAAAAAAAAAAAAAAAAAAAAAAAAAAAAAAMP8gEDD/IBAp+hrvKfoa7yn6Gv8p+hr/Kfoa/yn6Gv8p+hr/Kfoa/yn6Gv8p+hr/Kvoanyr6Gp8AAAAAAAAAAAAAAAAAAAAAAAAAAAAAAAAAAAAAAAAAAAAAAAAAAAAAAAAAAAAAAAAp+BlwKfgZcCn6Gv8p+hr/Kfoa/yn6Gv8p+hr/Kfoa/yn6Gv8p+hr/Kfoa/yn6Gv8p+hrvKfoa7yn4GXAp+BlwMP8gEDD/IBAAAAAAAAAAAAAAAAAAAAAAAAAAAAAAAAAAAAAAAAAAADD/IBAw/yAQKfsbjyn7G48p+hr/Kfoa/yn6Gv8p+hr/Kfoa/yn6Gv8p+hr/Kfoa/yn6Gu8p+hrvK/obMCv6GzAAAAAAAAAAAAAAAAAAAAAAAAAAAAAAAAAAAAAAAAAAAAAAAAAAAAAAAAAAAAAAAAAAAAAAAAAAAAAAAAAAAAAAAAAAAAAAAAAAAAAAAAAAAAAAAAAAAAAAAAAAAAAAAAAAAAAAAAAAAAAAAAAAAAAAAAAAAAAAAAAAAAAAAAAAAAAAAAAAAAAAAAAAAAAAAAAAAAAAAAAAAAAAAAAAAAAAAAAAAAAAAAAAAAAAAAAAAAAAAAAAAAAAAAAAAAAAAAAAAAAAAAAAAAAAAAAAAAAAAAAAAAAAAAAAAAAAAAAAAAAAAAAAAAAAMP8gEDD/IBAp+hrPKfoazyn6Gv8p+hr/Kfoa/yn6Gv8p+hr/Kfoa/yn6Gv8p+hr/KfgZcCn4GXAAAAAAAAAAAAAAAAAAAAAAAAAAAAAAAAAAAAAAAAAAAAAAAAAAAAAAAAAAAAAAAAAp+xqvKfsaryn6Gv8p+hr/Kfoa/yn6Gv8p+hr/Kfoa/yn6Gv8p+hr/Kfoa/yn6Gv8p+hr/Kfoa/yn6Gv8p+hr/Kfoa/yn6Gv8p+xqvKfsarwAAAAAAAAAAAAAAAAAAAAAAAAAAAAAAAAAAAAAAAAAAAAAAAAAAAAAAAAAAAAAAACj6G2Ao+htgKfoa7yn6Gu8p+hr/Kfoa/yn6Gv8p+hr/Kfoa/yn6Gv8p+hrfKfoa3zD/IBAw/yAQAAAAAAAAAAAAAAAAAAAAAAAAAAAAAAAAAAAAAAAAAAAAAAAAAAAAAAAAAAAAAAAAAAAAAAAAAAAAAAAAAAAAAAAAAAAAAAAAAAAAAAAAAAAAAAAAAAAAAAAAAAAAAAAAAAAAAAAAAAAAAAAAAAAAAAAAAAAAAAAAAAAAAAAAAAAAAAAAAAAAAAAAAAAAAAAAAAAAAAAAAAAAAAAAAAAAAAAAAAAAAAAAAAAAAAAAAAAAAAAAAAAAAAAAAAAAAAAAAAAAAAAAAAAAAAAAAAAAAAAAAAAAAAAAAAAAAAAAAAAw/yAQMP8gECn6Gs8p+hrPKfoa/yn6Gv8p+hr/Kfoa/yn6Gv8p+hr/Kfoa/yn6Gv8p+BlwKfgZcAAAAAAAAAAAAAAAAAAAAAAAAAAAAAAAAAAAAAAAAAAAAAAAAAAAAAAAAAAAAAAAACn7Gq8p+xqvKfoa/yn6Gv8p+hr/Kfoa/yn6Gv8p+hr/Kfoa/yn6Gv8p+hr/Kfoa/yn6Gv8p+hr/Kfoa/yn6Gv8p+hr/Kfoa/yn7Gq8p+xqvAAAAAAAAAAAAAAAAAAAAAAAAAAAAAAAAAAAAAAAAAAAAAAAAAAAAAAAAAAAAAAAAKPobYCj6G2Ap+hrvKfoa7yn6Gv8p+hr/Kfoa/yn6Gv8p+hr/Kfoa/yn6Gt8p+hrfMP8gEDD/IBAAAAAAAAAAAAAAAAAAAAAAAAAAAAAAAAAAAAAAAAAAAAAAAAAAAAAAAAAAAAAAAAAAAAAAAAAAAAAAAAAAAAAAAAAAAAAAAAAAAAAAAAAAAAAAAAAAAAAAAAAAAAAAAAAAAAAAAAAAAAAAAAAAAAAAAAAAAAAAAAAAAAAAAAAAAAAAAAAAAAAAAAAAAAAAAAAAAAAAAAAAAAAAAAAAAAAAAAAAAAAAAAAAAAAAAAAAAAAAAAAAAAAAAAAAAAAAAAAAAAAAAAAAAAAAAAAAAAAAAAAAAAAAAAAAAAAAAAAAACn6Gs8p+hrPKfoa/yn6Gv8p+hr/Kfoa/yn6Gv8p+hr/Kfoa/yn6Gv8o+htgKPobYAAAAAAAAAAAAAAAAAAAAAAAAAAAAAAAAAAAAAAAAAAAAAAAAAAAAAAAAAAAAAAAACn5GlAp+RpQKfoa/yn6Gv8p+hr/Kfoa/yn6Gv8p+hr/Kfoa/yn6Gv8p+hr/Kfoa/yn6Gv8p+hr/Kfoa/yn6Gv8p+hr/Kfoa/yn6Gv8p+hr/Kfoa/yn6Gv8o+RqAKPkagAAAAAAAAAAAAAAAAAAAAAAAAAAAAAAAAAAAAAAAAAAAAAAAAAAAAAAAAAAAAAAAACj6G2Ao+htgKfoa7yn6Gu8p+hr/Kfoa/yn6Gv8p+hr/Kfoa/yn6Gv8p+hrPKfoazzD/IBAw/yAQAAAAAAAAAAAAAAAAAAAAAAAAAAAAAAAAAAAAAAAAAAAAAAAAAAAAAAAAAAAAAAAAAAAAAAAAAAAAAAAAAAAAAAAAAAAAAAAAAAAAAAAAAAAAAAAAAAAAAAAAAAAAAAAAAAAAAAAAAAAAAAAAAAAAAAAAAAAAAAAAAAAAAAAAAAAAAAAAAAAAAAAAAAAAAAAAAAAAAAAAAAAAAAAAAAAAAAAAAAAAAAAAAAAAAAAAAAAAAAAAAAAAAAAAAAAAAAAAAAAAAAAAAAAAAAAAAAAAAAAAAAAAAAAAKfoazyn6Gs8p+hr/Kfoa/yn6Gv8p+hr/Kfoa/yn6Gv8p+hr/Kfoa/yj6G2Ao+htgAAAAAAAAAAAAAAAAAAAAAAAAAAAAAAAAAAAAAAAAAAAAAAAAAAAAAAAAAAAAAAAAKfkaUCn5GlAp+hr/Kfoa/yn6Gv8p+hr/Kfoa/yn6Gv8p+hr/Kfoa/yn6Gv8p+hr/Kfoa/yn6Gv8p+hr/Kfoa/yn6Gv8p+hr/Kfoa/yn6Gv8p+hr/Kfoa/yj5GoAo+RqAAAAAAAAAAAAAAAAAAAAAAAAAAAAAAAAAAAAAAAAAAAAAAAAAAAAAAAAAAAAAAAAAKPobYCj6G2Ap+hrvKfoa7yn6Gv8p+hr/Kfoa/yn6Gv8p+hr/Kfoa/yn6Gs8p+hrPMP8gEDD/IBAAAAAAAAAAAAAAAAAAAAAAAAAAAAAAAAAAAAAAAAAAAAAAAAAAAAAAAAAAAAAAAAAAAAAAAAAAAAAAAAAAAAAAAAAAAAAAAAAAAAAAAAAAAAAAAAAAAAAAAAAAAAAAAAAAAAAAAAAAAAAAAAAAAAAAAAAAAAAAAAAAAAAAAAAAAAAAAAAAAAAAAAAAAAAAAAAAAAAAAAAAAAAAAAAAAAAAAAAAAAAAAAAAAAAAAAAAAAAAAAAAAAAAAAAAAAAAAAAAAAAAAAAAAAAAAAAAAAAAKfsaryn7Gq8p+hr/Kfoa/yn6Gv8p+hr/Kfoa/yn6Gv8p+hr/Kfoa/yj6G2Ao+htgAAAAAAAAAAAAAAAAAAAAAAAAAAAAAAAAAAAAAAAAAAAAAAAAAAAAAAAAAAAAAAAAMP8gEDD/IBAp+hr/Kfoa/yn6Gv8p+hr/Kfoa/yn6Gv8p+hr/Kfoa/yr6Gp8q+hqfKPcYQCj3GEAo9xhAKPcYQCn7G48p+xuPKfoa/yn6Gv8p+hr/Kfoa/yn6Gv8p+hr/Kfoa7yn6Gu8o9xggKPcYIAAAAAAAAAAAAAAAAAAAAAAAAAAAAAAAAAAAAAAAAAAAAAAAAAAAAAAAAAAAAAAAACn4GXAp+BlwKfoa7yn6Gu8p+hr/Kfoa/yn6Gv8p+hr/Kfoa/yn6Gv8q+hqfKvoanwAAAAAAAAAAAAAAAAAAAAAAAAAAAAAAAAAAAAAAAAAAAAAAAAAAAAAAAAAAAAAAAAAAAAAAAAAAAAAAAAAAAAAAAAAAAAAAAAAAAAAAAAAAAAAAAAAAAAAAAAAAAAAAAAAAAAAAAAAAAAAAAAAAAAAAAAAAAAAAAAAAAAAAAAAAAAAAAAAAAAAAAAAAAAAAAAAAAAAAAAAAAAAAAAAAAAAAAAAAAAAAAAAAAAAAAAAAAAAAAAAAAAAAAAAAAAAAAAAAAAAAAAAAAAAAAAAAAAAp+xqvKfsaryn6Gv8p+hr/Kfoa/yn6Gv8p+hr/Kfoa/yn6Gv8p+hr/KPobYCj6G2AAAAAAAAAAAAAAAAAAAAAAAAAAAAAAAAAAAAAAAAAAAAAAAAAAAAAAAAAAAAAAAAAw/yAQMP8gECn6Gv8p+hr/Kfoa/yn6Gv8p+hr/Kfoa/yn6Gv8p+hr/Kvoanyr6Gp8o9xhAKPcYQCj3GEAo9xhAKfsbjyn7G48p+hr/Kfoa/yn6Gv8p+hr/Kfoa/yn6Gv8p+hrvKfoa7yj3GCAo9xggAAAAAAAAAAAAAAAAAAAAAAAAAAAAAAAAAAAAAAAAAAAAAAAAAAAAAAAAAAAAAAAAKfgZcCn4GXAp+hrvKfoa7yn6Gv8p+hr/Kfoa/yn6Gv8p+hr/Kfoa/yr6Gp8q+hqfAAAAAAAAAAAAAAAAAAAAAAAAAAAAAAAAAAAAAAAAAAAAAAAAAAAAAAAAAAAAAAAAAAAAAAAAAAAAAAAAAAAAAAAAAAAAAAAAAAAAAAAAAAAAAAAAAAAAAAAAAAAAAAAAAAAAAAAAAAAAAAAAAAAAAAAAAAAAAAAAAAAAAAAAAAAAAAAAAAAAAAAAAAAAAAAAAAAAAAAAAAAAAAAAAAAAAAAAAAAAAAAAAAAAAAAAAAAAAAAAAAAAAAAAAAAAAAAAAAAAAAAAAAAp+RpQKfkaUCn6Gv8p+hr/Kfoa/yn6Gv8p+hr/Kfoa/yn6Gv8p+hr/KPobYCj6G2AAAAAAAAAAAAAAAAAAAAAAAAAAAAAAAAAAAAAAAAAAAAAAAAAAAAAAAAAAAAAAAAAAAAAAAAAAACj3GCAo9xggKfoa/yn6Gv8p+hr/Kfoa/yn6Gv8p+hr/KfoZvyn6Gb8AAAAAAAAAAAAAAAAAAAAAAAAAAAAAAAAAAAAAAAAAACn7G48p+xuPKfoa/yn6Gv8p+hr/Kfoa/yn6Gv8p+hr/KfkaUCn5GlAAAAAAAAAAAAAAAAAAAAAAAAAAAAAAAAAAAAAAAAAAAAAAAAAAAAAAAAAAAAAAAAAAAAAAAAAAACn4GXAp+BlwKfoa/yn6Gv8p+hr/Kfoa/yn6Gv8p+hr/Kfoa/yn6Gv8p+BlwKfgZcAAAAAAAAAAAAAAAAAAAAAAAAAAAAAAAAAAAAAAAAAAAAAAAAAAAAAAAAAAAAAAAAAAAAAAAAAAAAAAAAAAAAAAAAAAAAAAAAAAAAAAAAAAAAAAAAAAAAAAAAAAAAAAAAAAAAAAAAAAAAAAAAAAAAAAAAAAAAAAAAAAAAAAAAAAAAAAAAAAAAAAAAAAAAAAAAAAAAAAAAAAAAAAAAAAAAAAAAAAAAAAAAAAAAAAAAAAAAAAAAAAAAAAAAAAAAAAAACn5GlAp+RpQKfoa/yn6Gv8p+hr/Kfoa/yn6Gv8p+hr/Kfoa/yn6Gv8o+htgKPobYAAAAAAAAAAAAAAAAAAAAAAAAAAAAAAAAAAAAAAAAAAAAAAAAAAAAAAAAAAAAAAAAAAAAAAAAAAAKPcYICj3GCAp+hr/Kfoa/yn6Gv8p+hr/Kfoa/yn6Gv8p+hm/KfoZvwAAAAAAAAAAAAAAAAAAAAAAAAAAAAAAAAAAAAAAAAAAKfsbjyn7G48p+hr/Kfoa/yn6Gv8p+hr/Kfoa/yn6Gv8p+RpQKfkaUAAAAAAAAAAAAAAAAAAAAAAAAAAAAAAAAAAAAAAAAAAAAAAAAAAAAAAAAAAAAAAAAAAAAAAAAAAAKfgZcCn4GXAp+hr/Kfoa/yn6Gv8p+hr/Kfoa/yn6Gv8p+hr/Kfoa/yn4GXAp+BlwAAAAAAAAAAAAAAAAAAAAAAAAAAAAAAAAAAAAAAAAAAAAAAAAAAAAAAAAAAAAAAAAAAAAAAAAAAAAAAAAAAAAAAAAAAAAAAAAAAAAAAAAAAAAAAAAAAAAAAAAAAAAAAAAAAAAAAAAAAAAAAAAAAAAAAAAAAAAAAAAAAAAAAAAAAAAAAAAAAAAAAAAAAAAAAAAAAAAAAAAAAAAAAAAAAAAAAAAAAAAAAAAAAAAAAAAAAAAAAAAAAAAACj3GCAo9xggKfoa/yn6Gv8p+hr/Kfoa/yn6Gv8p+hr/Kfoa/yn6Gv8p+xuPKfsbjwAAAAAAAAAAAAAAAAAAAAAAAAAAAAAAAAAAAAAAAAAAAAAAAAAAAAAAAAAAAAAAAAAAAAAAAAAAAAAAAAAAAAAo+htgKPobYCn6Gv8p+hr/Kfoa/yn6Gv8p+hr/Kfoa/yn5GlAp+RpQAAAAAAAAAAAAAAAAAAAAAAAAAAAAAAAAAAAAAAAAAAAo9xhAKPcYQCn6Gv8p+hr/Kfoa/yn6Gv8p+hr/Kfoa/yj5GoAo+RqAAAAAAAAAAAAAAAAAAAAAAAAAAAAAAAAAAAAAAAAAAAAAAAAAAAAAAAAAAAAAAAAAAAAAAAAAAAAAAAAAAAAAACn4GXAp+BlwKfoa/yn6Gv8p+hr/Kfoa/yn6Gv8p+hr/Kfoa7yn6Gu8o9xhAKPcYQAAAAAAAAAAAAAAAAAAAAAAAAAAAAAAAAAAAAAAAAAAAAAAAAAAAAAAAAAAAAAAAAAAAAAAAAAAAAAAAAAAAAAAAAAAAAAAAAAAAAAAAAAAAAAAAAAAAAAAAAAAAAAAAAAAAAAAAAAAAAAAAAAAAAAAAAAAAAAAAAAAAAAAAAAAAAAAAAAAAAAAAAAAAAAAAAAAAAAAAAAAAAAAAAAAAAAAAAAAAAAAAAAAAAAAAAAAAKPcYICj3GCAp+hr/Kfoa/yn6Gv8p+hr/Kfoa/yn6Gv8p+hr/Kfoa/yn7G48p+xuPAAAAAAAAAAAAAAAAAAAAAAAAAAAAAAAAAAAAAAAAAAAAAAAAAAAAAAAAAAAAAAAAAAAAAAAAAAAAAAAAAAAAACj6G2Ao+htgKfoa/yn6Gv8p+hr/Kfoa/yn6Gv8p+hr/KfkaUCn5GlAAAAAAAAAAAAAAAAAAAAAAAAAAAAAAAAAAAAAAAAAAACj3GEAo9xhAKfoa/yn6Gv8p+hr/Kfoa/yn6Gv8p+hr/KPkagCj5GoAAAAAAAAAAAAAAAAAAAAAAAAAAAAAAAAAAAAAAAAAAAAAAAAAAAAAAAAAAAAAAAAAAAAAAAAAAAAAAAAAAAAAAKfgZcCn4GXAp+hr/Kfoa/yn6Gv8p+hr/Kfoa/yn6Gv8p+hrvKfoa7yj3GEAo9xhAAAAAAAAAAAAAAAAAAAAAAAAAAAAAAAAAAAAAAAAAAAAAAAAAAAAAAAAAAAAAAAAAAAAAAAAAAAAAAAAAAAAAAAAAAAAAAAAAAAAAAAAAAAAAAAAAAAAAAAAAAAAAAAAAAAAAAAAAAAAAAAAAAAAAAAAAAAAAAAAAAAAAAAAAAAAAAAAAAAAAAAAAAAAAAAAAAAAAAAAAAAAAAAAAAAAAAAAAAAAAAAAAAAAAAAAAAAAr+hswK/obMCn6Gu8p+hrvKfoa/yn6Gv8p+hr/Kfoa/yn6Gv8p+hr/Kfsbjyn7G48AAAAAAAAAAAAAAAAAAAAAAAAAAAAAAAAAAAAAAAAAAAAAAAAAAAAAAAAAAAAAAAAAAAAAAAAAAAAAAAAAAAAAKfgZcCn4GXAp+hr/Kfoa/yn6Gv8p+hr/Kfoa/yn6Gv8p+RpQKfkaUAAAAAAAAAAAAAAAAAAAAAAAAAAAAAAAAAAAAAAAAAAAKfkaUCn5GlAp+hr/Kfoa/yn6Gv8p+hr/Kfoa/yn6Gv8p+BlwKfgZcAAAAAAAAAAAAAAAAAAAAAAAAAAAAAAAAAAAAAAAAAAAAAAAAAAAAAAAAAAAAAAAAAAAAAAAAAAAAAAAAAAAAAAq+hqfKvoanyn6Gv8p+hr/Kfoa/yn6Gv8p+hr/Kfoa/yn6Gv8p+hr/K/obMCv6GzAAAAAAAAAAAAAAAAAAAAAAAAAAAAAAAAAAAAAAAAAAAAAAAAAAAAAAAAAAAAAAAAAAAAAAAAAAAAAAAAAAAAAAAAAAAAAAAAAAAAAAAAAAAAAAAAAAAAAAAAAAAAAAAAAAAAAAAAAAAAAAAAAAAAAAAAAAAAAAAAAAAAAAAAAAAAAAAAAAAAAAAAAAAAAAAAAAAAAAAAAAAAAAAAAAAAAAAAAAAAAAAAAAAAAAAAAAACv6GzAr+hswKfoa7yn6Gu8p+hr/Kfoa/yn6Gv8p+hr/Kfoa/yn6Gv8p+xuPKfsbjwAAAAAAAAAAAAAAAAAAAAAAAAAAAAAAAAAAAAAAAAAAAAAAAAAAAAAAAAAAAAAAAAAAAAAAAAAAAAAAAAAAAAAp+BlwKfgZcCn6Gv8p+hr/Kfoa/yn6Gv8p+hr/Kfoa/yn5GlAp+RpQAAAAAAAAAAAAAAAAAAAAAAAAAAAAAAAAAAAAAAAAAAAp+RpQKfkaUCn6Gv8p+hr/Kfoa/yn6Gv8p+hr/Kfoa/yn4GXAp+BlwAAAAAAAAAAAAAAAAAAAAAAAAAAAAAAAAAAAAAAAAAAAAAAAAAAAAAAAAAAAAAAAAAAAAAAAAAAAAAAAAAAAAACr6Gp8q+hqfKfoa/yn6Gv8p+hr/Kfoa/yn6Gv8p+hr/Kfoa/yn6Gv8r+hswK/obMAAAAAAAAAAAAAAAAAAAAAAAAAAAAAAAAAAAAAAAAAAAAAAAAAAAAAAAAAAAAAAAAAAAAAAAAAAAAAAAAAAAAAAAAAAAAAAAAAAAAAAAAAAAAAAAAAAAAAAAAAAAAAAAAAAAAAAAAAAAAAAAAAAAAAAAAAAAAAAAAAAAAAAAAAAAAAAAAAAAAAAAAAAAAAAAAAAAAAAAAAAAAAAAAAAAAAAAAAAAAAAAAAAAAAAAAAAAAAAAAAAAAAAp+BlwKfgZcCn6Gv8p+hr/Kfoa/yn6Gv8p+hr/Kfoa/yn6Gv8p+hr/Kfsbjyn7G48AAAAAAAAAAAAAAAAAAAAAAAAAAAAAAAAAAAAAAAAAAAAAAAAAAAAAAAAAAAAAAAAAAAAAAAAAACv6GzAr+hswKfoa/yn6Gv8p+hr/Kfoa/yn6Gv8p+hr/Kfsaryn7Gq8AAAAAAAAAAAAAAAAAAAAAAAAAAAAAAAAAAAAAAAAAACn7Gq8p+xqvKfoa/yn6Gv8p+hr/Kfoa/yn6Gv8p+hr/KPcYQCj3GEAAAAAAAAAAAAAAAAAAAAAAAAAAAAAAAAAAAAAAAAAAAAAAAAAAAAAAAAAAAAAAAAAAAAAAAAAAACn4GXAp+BlwKfoa/yn6Gv8p+hr/Kfoa/yn6Gv8p+hr/Kfoa/yn6Gv8o+htgKPobYAAAAAAAAAAAAAAAAAAAAAAAAAAAAAAAAAAAAAAAAAAAAAAAAAAAAAAAAAAAAAAAAAAAAAAAAAAAAAAAAAAAAAAAAAAAAAAAAAAAAAAAAAAAAAAAAAAAAAAAAAAAAAAAAAAAAAAAAAAAAAAAAAAAAAAAAAAAAAAAAAAAAAAAAAAAAAAAAAAAAAAAAAAAAAAAAAAAAAAAAAAAAAAAAAAAAAAAAAAAAAAAAAAAAAAAAAAAAAAAAAAAAAAAAAAAAAAAACn4GXAp+BlwKfoa/yn6Gv8p+hr/Kfoa/yn6Gv8p+hr/Kfoa/yn6Gv8p+xuPKfsbjwAAAAAAAAAAAAAAAAAAAAAAAAAAAAAAAAAAAAAAAAAAAAAAAAAAAAAAAAAAAAAAAAAAAAAAAAAAK/obMCv6GzAp+hr/Kfoa/yn6Gv8p+hr/Kfoa/yn6Gv8p+xqvKfsarwAAAAAAAAAAAAAAAAAAAAAAAAAAAAAAAAAAAAAAAAAAKfsaryn7Gq8p+hr/Kfoa/yn6Gv8p+hr/Kfoa/yn6Gv8o9xhAKPcYQAAAAAAAAAAAAAAAAAAAAAAAAAAAAAAAAAAAAAAAAAAAAAAAAAAAAAAAAAAAAAAAAAAAAAAAAAAAKfgZcCn4GXAp+hr/Kfoa/yn6Gv8p+hr/Kfoa/yn6Gv8p+hr/Kfoa/yj6G2Ao+htgAAAAAAAAAAAAAAAAAAAAAAAAAAAAAAAAAAAAAAAAAAAAAAAAAAAAAAAAAAAAAAAAAAAAAAAAAAAAAAAAAAAAAAAAAAAAAAAAAAAAAAAAAAAAAAAAAAAAAAAAAAAAAAAAAAAAAAAAAAAAAAAAAAAAAAAAAAAAAAAAAAAAAAAAAAAAAAAAAAAAAAAAAAAAAAAAAAAAAAAAAAAAAAAAAAAAAAAAAAAAAAAAAAAAAAAAAAAAAAAAAAAAAAAAAAAAAAAAAAAAAAAAAAAp+xuPKfsbjyn6Gv8p+hr/Kfoa/yn6Gv8p+hr/Kfoa/yn6Gv8p+hr/KPkagCj5GoAAAAAAAAAAAAAAAAAAAAAAAAAAAAAAAAAAAAAAAAAAAAAAAAAAAAAAAAAAAAAAAAAAAAAAAAAAACn6Gu8p+hrvKfoa/yn6Gv8p+hr/Kfoa/yn6Gv8p+hr/KfoZvyn6Gb8o9xhAKPcYQCn5GlAp+RpQKfsaryn7Gq8p+hr/Kfoa/yn6Gv8p+hr/Kfoa/yn6Gv8p+hrvKfoa7yj3GCAo9xggAAAAAAAAAAAAAAAAAAAAAAAAAAAAAAAAAAAAAAAAAAAAAAAAAAAAAAAAAAAAAAAAKPobYCj6G2Ap+hr/Kfoa/yn6Gv8p+hr/Kfoa/yn6Gv8p+hr/Kfoa/yn7Gq8p+xqvAAAAAAAAAAAAAAAAAAAAAAAAAAAAAAAAAAAAAAAAAAAAAAAAAAAAAAAAAAAAAAAAAAAAAAAAAAAAAAAAAAAAAAAAAAAAAAAAAAAAAAAAAAAAAAAAAAAAAAAAAAAAAAAAAAAAAAAAAAAAAAAAAAAAAAAAAAAAAAAAAAAAAAAAAAAAAAAAAAAAAAAAAAAAAAAAAAAAAAAAAAAAAAAAAAAAAAAAAAAAAAAAAAAAAAAAAAAAAAAAAAAAAAAAAAAAAAAAAAAAAAAAAAAAAAAAAAAAACn7G48p+xuPKfoa/yn6Gv8p+hr/Kfoa/yn6Gv8p+hr/Kfoa/yn6Gv8o+RqAKPkagAAAAAAAAAAAAAAAAAAAAAAAAAAAAAAAAAAAAAAAAAAAAAAAAAAAAAAAAAAAAAAAAAAAAAAAAAAAKfoa7yn6Gu8p+hr/Kfoa/yn6Gv8p+hr/Kfoa/yn6Gv8p+hm/KfoZvyj3GEAo9xhAKfkaUCn5GlAp+xqvKfsaryn6Gv8p+hr/Kfoa/yn6Gv8p+hr/Kfoa/yn6Gu8p+hrvKPcYICj3GCAAAAAAAAAAAAAAAAAAAAAAAAAAAAAAAAAAAAAAAAAAAAAAAAAAAAAAAAAAAAAAAAAo+htgKPobYCn6Gv8p+hr/Kfoa/yn6Gv8p+hr/Kfoa/yn6Gv8p+hr/Kfsaryn7Gq8AAAAAAAAAAAAAAAAAAAAAAAAAAAAAAAAAAAAAAAAAAAAAAAAAAAAAAAAAAAAAAAAAAAAAAAAAAAAAAAAAAAAAAAAAAAAAAAAAAAAAAAAAAAAAAAAAAAAAAAAAAAAAAAAAAAAAAAAAAAAAAAAAAAAAAAAAAAAAAAAAAAAAAAAAAAAAAAAAAAAAAAAAAAAAAAAAAAAAAAAAAAAAAAAAAAAAAAAAAAAAAAAAAAAAAAAAAAAAAAAAAAAAAAAAAAAAAAAAAAAAAAAAAAAAAAAAAAAAMP8gEDD/IBAp+xqvKfsaryn6Gv8p+hr/Kfoa/yn6Gv8p+hr/Kfoa/yn6Gv8p+hr/KPobYCj6G2AAAAAAAAAAAAAAAAAAAAAAAAAAAAAAAAAAAAAAAAAAAAAAAAAAAAAAAAAAAAAAAAAo+htgKPobYCn6Gv8p+hr/Kfoa/yn6Gv8p+hr/Kfoa/yn6Gv8p+hr/Kfoa/yn6Gv8p+hr/Kfoa/yn6Gv8p+hr/Kfoa/yn6Gv8p+hr/Kfoa/yn6Gv8p+hr/KPobYCj6G2AAAAAAAAAAAAAAAAAAAAAAAAAAAAAAAAAAAAAAAAAAAAAAAAAAAAAAAAAAAAAAAAAo9xhAKPcYQCn6Gv8p+hr/Kfoa/yn6Gv8p+hr/Kfoa/yn6Gv8p+hr/Kfoazyn6Gs8AAAAAAAAAAAAAAAAAAAAAAAAAAAAAAAAAAAAAAAAAAAAAAAAAAAAAAAAAAAAAAAAAAAAAAAAAAAAAAAAAAAAAAAAAAAAAAAAAAAAAAAAAAAAAAAAAAAAAAAAAAAAAAAAAAAAAAAAAAAAAAAAAAAAAAAAAAAAAAAAAAAAAAAAAAAAAAAAAAAAAAAAAAAAAAAAAAAAAAAAAAAAAAAAAAAAAAAAAAAAAAAAAAAAAAAAAAAAAAAAAAAAAAAAAAAAAAAAAAAAAAAAAAAAAAAAAAAAAAAAAAAAAAAAw/yAQMP8gECn7Gq8p+xqvKfoa/yn6Gv8p+hr/Kfoa/yn6Gv8p+hr/Kfoa/yn6Gv8o+htgKPobYAAAAAAAAAAAAAAAAAAAAAAAAAAAAAAAAAAAAAAAAAAAAAAAAAAAAAAAAAAAAAAAACj6G2Ao+htgKfoa/yn6Gv8p+hr/Kfoa/yn6Gv8p+hr/Kfoa/yn6Gv8p+hr/Kfoa/yn6Gv8p+hr/Kfoa/yn6Gv8p+hr/Kfoa/yn6Gv8p+hr/Kfoa/yn6Gv8o+htgKPobYAAAAAAAAAAAAAAAAAAAAAAAAAAAAAAAAAAAAAAAAAAAAAAAAAAAAAAAAAAAAAAAACj3GEAo9xhAKfoa/yn6Gv8p+hr/Kfoa/yn6Gv8p+hr/Kfoa/yn6Gv8p+hrPKfoazwAAAAAAAAAAAAAAAAAAAAAAAAAAAAAAAAAAAAAAAAAAAAAAAAAAAAAAAAAAAAAAAAAAAAAAAAAAAAAAAAAAAAAAAAAAAAAAAAAAAAAAAAAAAAAAAAAAAAAAAAAAAAAAAAAAAAAAAAAAAAAAAAAAAAAAAAAAAAAAAAAAAAAAAAAAAAAAAAAAAAAAAAAAAAAAAAAAAAAAAAAAAAAAAAAAAAAAAAAAAAAAAAAAAAAAAAAAAAAAAAAAAAAAAAAAAAAAAAAAAAAAAAAAAAAAAAAAAAAAAAAAAAAAAAAAAAAAAAAAMP8gEDD/IBAp+hm/KfoZvyn6Gv8p+hr/Kfoa/yn6Gv8p+hr/Kfoa/yn6Gv8p+hr/KfgZcCn4GXAAAAAAAAAAAAAAAAAAAAAAAAAAAAAAAAAAAAAAAAAAAAAAAAAAAAAAAAAAAAAAAAAq+hqfKvoanyn6Gv8p+hr/Kfoa/yn6Gv8p+hr/Kfoa/yn6Gv8p+hr/Kfoa/yn6Gv8p+hr/Kfoa/yn6Gv8p+hr/Kfoa/yn6Gv8q+hqfKvoanwAAAAAAAAAAAAAAAAAAAAAAAAAAAAAAAAAAAAAAAAAAAAAAAAAAAAAAAAAAAAAAACn4GXAp+BlwKfoa/yn6Gv8p+hr/Kfoa/yn6Gv8p+hr/Kfoa/yn6Gv8p+hrfKfoa3zD/IBAw/yAQAAAAAAAAAAAAAAAAAAAAAAAAAAAAAAAAAAAAAAAAAAAAAAAAAAAAAAAAAAAAAAAAAAAAAAAAAAAAAAAAAAAAAAAAAAAAAAAAAAAAAAAAAAAAAAAAAAAAAAAAAAAAAAAAAAAAAAAAAAAAAAAAAAAAAAAAAAAAAAAAAAAAAAAAAAAAAAAAAAAAAAAAAAAAAAAAAAAAAAAAAAAAAAAAAAAAAAAAAAAAAAAAAAAAAAAAAAAAAAAAAAAAAAAAAAAAAAAAAAAAAAAAAAAAAAAAAAAAAAAAAAAAAAAAAAAAAAAAAAAw/yAQMP8gECn6Gb8p+hm/Kfoa/yn6Gv8p+hr/Kfoa/yn6Gv8p+hr/Kfoa/yn6Gv8p+BlwKfgZcAAAAAAAAAAAAAAAAAAAAAAAAAAAAAAAAAAAAAAAAAAAAAAAAAAAAAAAAAAAAAAAACr6Gp8q+hqfKfoa/yn6Gv8p+hr/Kfoa/yn6Gv8p+hr/Kfoa/yn6Gv8p+hr/Kfoa/yn6Gv8p+hr/Kfoa/yn6Gv8p+hr/Kfoa/yr6Gp8q+hqfAAAAAAAAAAAAAAAAAAAAAAAAAAAAAAAAAAAAAAAAAAAAAAAAAAAAAAAAAAAAAAAAKfgZcCn4GXAp+hr/Kfoa/yn6Gv8p+hr/Kfoa/yn6Gv8p+hr/Kfoa/yn6Gt8p+hrfMP8gEDD/IBAAAAAAAAAAAAAAAAAAAAAAAAAAAAAAAAAAAAAAAAAAAAAAAAAAAAAAAAAAAAAAAAAAAAAAAAAAAAAAAAAAAAAAAAAAAAAAAAAAAAAAAAAAAAAAAAAAAAAAAAAAAAAAAAAAAAAAAAAAAAAAAAAAAAAAAAAAAAAAAAAAAAAAAAAAAAAAAAAAAAAAAAAAAAAAAAAAAAAAAAAAAAAAAAAAAAAAAAAAAAAAAAAAAAAAAAAAAAAAAAAAAAAAAAAAAAAAAAAAAAAAAAAAAAAAAAAAAAAAAAAAAAAAAAAAAAAAAAAAAAAAAAAAAAAAMP8gEDD/IBAp+hrfKfoa3yn6Gv8p+hr/Kfoa/yn6Gv8p+hr/Kfoa/yn6Gv8p+hr/KfoZvyn6Gb8w/yAQMP8gEAAAAAAAAAAAAAAAAAAAAAAAAAAAAAAAAAAAAAAAAAAAAAAAAAAAAAAo9xhAKPcYQCn6Gu8p+hrvKfoa/yn6Gv8p+hr/Kfoa/yn6Gv8p+hr/Kfoa/yn6Gv8p+hr/Kfoa/yj6G2Ao+htgAAAAAAAAAAAAAAAAAAAAAAAAAAAAAAAAAAAAAAAAAAAAAAAAAAAAADD/IBAw/yAQKfsaryn7Gq8p+hr/Kfoa/yn6Gv8p+hr/Kfoa/yn6Gv8p+hr/Kfoa/yn6Gu8p+hrvKPcYICj3GCAAAAAAAAAAAAAAAAAAAAAAAAAAAAAAAAAAAAAAAAAAAAAAAAAAAAAAAAAAAAAAAAAAAAAAAAAAAAAAAAAAAAAAAAAAAAAAAAAAAAAAAAAAAAAAAAAAAAAAAAAAAAAAAAAAAAAAAAAAAAAAAAAAAAAAAAAAAAAAAAAAAAAAAAAAAAAAAAAAAAAAAAAAAAAAAAAAAAAAAAAAAAAAAAAAAAAAAAAAAAAAAAAAAAAAAAAAAAAAAAAAAAAAAAAAAAAAAAAAAAAAAAAAAAAAAAAAAAAAAAAAAAAAAAAAAAAAAAAAAAAAAAAAAAAAAAAAAAAAAAAw/yAQMP8gECn6Gt8p+hrfKfoa/yn6Gv8p+hr/Kfoa/yn6Gv8p+hr/Kfoa/yn6Gv8p+hm/KfoZvzD/IBAw/yAQAAAAAAAAAAAAAAAAAAAAAAAAAAAAAAAAAAAAAAAAAAAAAAAAAAAAACj3GEAo9xhAKfoa7yn6Gu8p+hr/Kfoa/yn6Gv8p+hr/Kfoa/yn6Gv8p+hr/Kfoa/yn6Gv8p+hr/KPobYCj6G2AAAAAAAAAAAAAAAAAAAAAAAAAAAAAAAAAAAAAAAAAAAAAAAAAAAAAAMP8gEDD/IBAp+xqvKfsaryn6Gv8p+hr/Kfoa/yn6Gv8p+hr/Kfoa/yn6Gv8p+hr/Kfoa7yn6Gu8o9xggKPcYIAAAAAAAAAAAAAAAAAAAAAAAAAAAAAAAAAAAAAAAAAAAAAAAAAAAAAAAAAAAAAAAAAAAAAAAAAAAAAAAAAAAAAAAAAAAAAAAAAAAAAAAAAAAAAAAAAAAAAAAAAAAAAAAAAAAAAAAAAAAAAAAAAAAAAAAAAAAAAAAAAAAAAAAAAAAAAAAAAAAAAAAAAAAAAAAAAAAAAAAAAAAAAAAAAAAAAAAAAAAAAAAAAAAAAAAAAAAAAAAAAAAAAAAAAAAAAAAAAAAAAAAAAAAAAAAAAAAAAAAAAAAAAAAAAAAAAAAAAAAAAAAAAAAAAAAAAAAAAAAAAAAAAAAAAAAMP8gEDD/IBAp+hm/KfoZvyn6Gv8p+hr/Kfoa/yn6Gv8p+hr/Kfoa/yn6Gv8p+hr/Kfoa7yn6Gu8p+RpQKfkaUAAAAAAAAAAAAAAAAAAAAAAAAAAAAAAAAAAAAAAAAAAAAAAAAAAAAAAw/yAQMP8gECv6GzAr+hswKfgZcCn4GXAp+BlwKfgZcCj3GEAo9xhAAAAAAAAAAAAAAAAAAAAAAAAAAAAAAAAAAAAAAAAAAAAAAAAAAAAAAAAAAAAAAAAAK/obMCv6GzAp+hrfKfoa3yn6Gv8p+hr/Kfoa/yn6Gv8p+hr/Kfoa/yn6Gv8p+hr/Kfoazyn6Gs8o9xggKPcYIAAAAAAAAAAAAAAAAAAAAAAAAAAAAAAAAAAAAAAAAAAAAAAAAAAAAAAAAAAAAAAAAAAAAAAAAAAAAAAAAAAAAAAAAAAAAAAAAAAAAAAAAAAAAAAAAAAAAAAAAAAAAAAAAAAAAAAAAAAAAAAAAAAAAAAAAAAAAAAAAAAAAAAAAAAAAAAAAAAAAAAAAAAAAAAAAAAAAAAAAAAAAAAAAAAAAAAAAAAAAAAAAAAAAAAAAAAAAAAAAAAAAAAAAAAAAAAAAAAAAAAAAAAAAAAAAAAAAAAAAAAAAAAAAAAAAAAAAAAAAAAAAAAAAAAAAAAAAAAAAAAAAAAAAAAAAAAAAAAAAAAw/yAQMP8gECn6Gb8p+hm/Kfoa/yn6Gv8p+hr/Kfoa/yn6Gv8p+hr/Kfoa/yn6Gv8p+hrvKfoa7yn5GlAp+RpQAAAAAAAAAAAAAAAAAAAAAAAAAAAAAAAAAAAAAAAAAAAAAAAAAAAAADD/IBAw/yAQK/obMCv6GzAp+BlwKfgZcCn4GXAp+BlwKPcYQCj3GEAAAAAAAAAAAAAAAAAAAAAAAAAAAAAAAAAAAAAAAAAAAAAAAAAAAAAAAAAAAAAAAAAr+hswK/obMCn6Gt8p+hrfKfoa/yn6Gv8p+hr/Kfoa/yn6Gv8p+hr/Kfoa/yn6Gv8p+hrPKfoazyj3GCAo9xggAAAAAAAAAAAAAAAAAAAAAAAAAAAAAAAAAAAAAAAAAAAAAAAAAAAAAAAAAAAAAAAAAAAAAAAAAAAAAAAAAAAAAAAAAAAAAAAAAAAAAAAAAAAAAAAAAAAAAAAAAAAAAAAAAAAAAAAAAAAAAAAAAAAAAAAAAAAAAAAAAAAAAAAAAAAAAAAAAAAAAAAAAAAAAAAAAAAAAAAAAAAAAAAAAAAAAAAAAAAAAAAAAAAAAAAAAAAAAAAAAAAAAAAAAAAAAAAAAAAAAAAAAAAAAAAAAAAAAAAAAAAAAAAAAAAAAAAAAAAAAAAAAAAAAAAAAAAAAAAAAAAAAAAAAAAAAAAAAAAAAAAAAAAAAAAAMP8gEDD/IBAp+xqvKfsaryn6Gv8p+hr/Kfoa/yn6Gv8p+hr/Kfoa/yn6Gv8p+hr/Kfoa/yn6Gv8p+hm/KfoZvyv6GzAr+hswAAAAAAAAAAAAAAAAAAAAAAAAAAAAAAAAAAAAAAAAAAAAAAAAAAAAAAAAAAAAAAAAAAAAAAAAAAAAAAAAAAAAAAAAAAAAAAAAAAAAAAAAAAAAAAAAAAAAAAAAAAAAAAAAKPcYQCj3GEAq+hqfKvoanyn6Gv8p+hr/Kfoa/yn6Gv8p+hr/Kfoa/yn6Gv8p+hr/Kfoa/yn6Gv8p+hrPKfoazzD/IBAw/yAQAAAAAAAAAAAAAAAAAAAAAAAAAAAAAAAAAAAAAAAAAAAAAAAAAAAAAAAAAAAAAAAAAAAAAAAAAAAAAAAAAAAAAAAAAAAAAAAAAAAAAAAAAAAAAAAAAAAAAAAAAAAAAAAAAAAAAAAAAAAAAAAAAAAAAAAAAAAAAAAAAAAAAAAAAAAAAAAAAAAAAAAAAAAAAAAAAAAAAAAAAAAAAAAAAAAAAAAAAAAAAAAAAAAAAAAAAAAAAAAAAAAAAAAAAAAAAAAAAAAAAAAAAAAAAAAAAAAAAAAAAAAAAAAAAAAAAAAAAAAAAAAAAAAAAAAAAAAAAAAAAAAAAAAAAAAAAAAAAAAAAAAAAAAAAAAAAAAAAAAAAAAw/yAQMP8gECn7Gq8p+xqvKfoa/yn6Gv8p+hr/Kfoa/yn6Gv8p+hr/Kfoa/yn6Gv8p+hr/Kfoa/yn6Gb8p+hm/K/obMCv6GzAAAAAAAAAAAAAAAAAAAAAAAAAAAAAAAAAAAAAAAAAAAAAAAAAAAAAAAAAAAAAAAAAAAAAAAAAAAAAAAAAAAAAAAAAAAAAAAAAAAAAAAAAAAAAAAAAAAAAAAAAAAAAAAAAo9xhAKPcYQCr6Gp8q+hqfKfoa/yn6Gv8p+hr/Kfoa/yn6Gv8p+hr/Kfoa/yn6Gv8p+hr/Kfoa/yn6Gs8p+hrPMP8gEDD/IBAAAAAAAAAAAAAAAAAAAAAAAAAAAAAAAAAAAAAAAAAAAAAAAAAAAAAAAAAAAAAAAAAAAAAAAAAAAAAAAAAAAAAAAAAAAAAAAAAAAAAAAAAAAAAAAAAAAAAAAAAAAAAAAAAAAAAAAAAAAAAAAAAAAAAAAAAAAAAAAAAAAAAAAAAAAAAAAAAAAAAAAAAAAAAAAAAAAAAAAAAAAAAAAAAAAAAAAAAAAAAAAAAAAAAAAAAAAAAAAAAAAAAAAAAAAAAAAAAAAAAAAAAAAAAAAAAAAAAAAAAAAAAAAAAAAAAAAAAAAAAAAAAAAAAAAAAAAAAAAAAAAAAAAAAAAAAAAAAAAAAAAAAAAAAAAAAAAAAAAAAAAAAAAAAAAAAAMP8gEDD/IBAp+xuPKfsbjyn6Gu8p+hrvKfoa/yn6Gv8p+hr/Kfoa/yn6Gv8p+hr/Kfoa/yn6Gv8p+hr/Kfoa/yn6Gb8p+hm/KfgZcCn4GXAr+hswK/obMDD/IBAw/yAQAAAAAAAAAAAAAAAAAAAAAAAAAAAAAAAAAAAAAAAAAAAAAAAAAAAAACj3GEAo9xhAKPobYCj6G2Ap+hrfKfoa3yn6Gv8p+hr/Kfoa/yn6Gv8p+hr/Kfoa/yn6Gv8p+hr/Kfoa/yn6Gv8p+hr/Kfoa/yn7G48p+xuPAAAAAAAAAAAAAAAAAAAAAAAAAAAAAAAAAAAAAAAAAAAAAAAAAAAAAAAAAAAAAAAAAAAAAAAAAAAAAAAAAAAAAAAAAAAAAAAAAAAAAAAAAAAAAAAAAAAAAAAAAAAAAAAAAAAAAAAAAAAAAAAAAAAAAAAAAAAAAAAAAAAAAAAAAAAAAAAAAAAAAAAAAAAAAAAAAAAAAAAAAAAAAAAAAAAAAAAAAAAAAAAAAAAAAAAAAAAAAAAAAAAAAAAAAAAAAAAAAAAAAAAAAAAAAAAAAAAAAAAAAAAAAAAAAAAAAAAAAAAAAAAAAAAAAAAAAAAAAAAAAAAAAAAAAAAAAAAAAAAAAAAAAAAAAAAAAAAAAAAAAAAAAAAAAAAAAAAAAAAAAAAAAAAAAAAAAAAw/yAQMP8gECn7G48p+xuPKfoa7yn6Gu8p+hr/Kfoa/yn6Gv8p+hr/Kfoa/yn6Gv8p+hr/Kfoa/yn6Gv8p+hr/KfoZvyn6Gb8p+BlwKfgZcCv6GzAr+hswMP8gEDD/IBAAAAAAAAAAAAAAAAAAAAAAAAAAAAAAAAAAAAAAAAAAAAAAAAAAAAAAKPcYQCj3GEAo+htgKPobYCn6Gt8p+hrfKfoa/yn6Gv8p+hr/Kfoa/yn6Gv8p+hr/Kfoa/yn6Gv8p+hr/Kfoa/yn6Gv8p+hr/Kfsbjyn7G48AAAAAAAAAAAAAAAAAAAAAAAAAAAAAAAAAAAAAAAAAAAAAAAAAAAAAAAAAAAAAAAAAAAAAAAAAAAAAAAAAAAAAAAAAAAAAAAAAAAAAAAAAAAAAAAAAAAAAAAAAAAAAAAAAAAAAAAAAAAAAAAAAAAAAAAAAAAAAAAAAAAAAAAAAAAAAAAAAAAAAAAAAAAAAAAAAAAAAAAAAAAAAAAAAAAAAAAAAAAAAAAAAAAAAAAAAAAAAAAAAAAAAAAAAAAAAAAAAAAAAAAAAAAAAAAAAAAAAAAAAAAAAAAAAAAAAAAAAAAAAAAAAAAAAAAAAAAAAAAAAAAAAAAAAAAAAAAAAAAAAAAAAAAAAAAAAAAAAAAAAAAAAAAAAAAAAAAAAAAAAAAAAAAAAAAAAAAAAAAAAAAAAAAAAAAAAAAAo9xhAKPcYQCn6Gt8p+hrfKfoa/yn6Gv8p+hr/Kfoa/yn6Gv8p+hr/Kfoa/yn6Gv8p+hr/Kfoa/yn6Gv8p+hr/Kfoa/yn6Gv8p+hrvKfoa7yn6Gt8p+hrfKfoZvyn6Gb8p+hm/KfoZvyn6Gt8p+hrfKfoa/yn6Gv8p+hr/Kfoa/yn6Gv8p+hr/Kfoa/yn6Gv8p+hr/Kfoa/yn6Gv8p+hr/Kfoa/yn6Gv8p+hr/Kfoa/yn6Gu8p+hrvKfkaUCn5GlAAAAAAAAAAAAAAAAAAAAAAAAAAAAAAAAAAAAAAAAAAAAAAAAAAAAAAAAAAAAAAAAAAAAAAAAAAAAAAAAAAAAAAAAAAAAAAAAAAAAAAAAAAAAAAAAAAAAAAAAAAAAAAAAAAAAAAAAAAAAAAAAAAAAAAAAAAAAAAAAAAAAAAAAAAAAAAAAAAAAAAAAAAAAAAAAAAAAAAAAAAAAAAAAAAAAAAAAAAAAAAAAAAAAAAAAAAAAAAAAAAAAAAAAAAAAAAAAAAAAAAAAAAAAAAAAAAAAAAAAAAAAAAAAAAAAAAAAAAAAAAAAAAAAAAAAAAAAAAAAAAAAAAAAAAAAAAAAAAAAAAAAAAAAAAAAAAAAAAAAAAAAAAAAAAAAAAAAAAAAAAAAAAAAAAAAAAAAAAAAAAAAAAAAAAAAAAAAAAAAAAAAAAACj3GEAo9xhAKfoa3yn6Gt8p+hr/Kfoa/yn6Gv8p+hr/Kfoa/yn6Gv8p+hr/Kfoa/yn6Gv8p+hr/Kfoa/yn6Gv8p+hr/Kfoa/yn6Gu8p+hrvKfoa3yn6Gt8p+hm/KfoZvyn6Gb8p+hm/Kfoa3yn6Gt8p+hr/Kfoa/yn6Gv8p+hr/Kfoa/yn6Gv8p+hr/Kfoa/yn6Gv8p+hr/Kfoa/yn6Gv8p+hr/Kfoa/yn6Gv8p+hr/Kfoa7yn6Gu8p+RpQKfkaUAAAAAAAAAAAAAAAAAAAAAAAAAAAAAAAAAAAAAAAAAAAAAAAAAAAAAAAAAAAAAAAAAAAAAAAAAAAAAAAAAAAAAAAAAAAAAAAAAAAAAAAAAAAAAAAAAAAAAAAAAAAAAAAAAAAAAAAAAAAAAAAAAAAAAAAAAAAAAAAAAAAAAAAAAAAAAAAAAAAAAAAAAAAAAAAAAAAAAAAAAAAAAAAAAAAAAAAAAAAAAAAAAAAAAAAAAAAAAAAAAAAAAAAAAAAAAAAAAAAAAAAAAAAAAAAAAAAAAAAAAAAAAAAAAAAAAAAAAAAAAAAAAAAAAAAAAAAAAAAAAAAAAAAAAAAAAAAAAAAAAAAAAAAAAAAAAAAAAAAAAAAAAAAAAAAAAAAAAAAAAAAAAAAAAAAAAAAAAAAAAAAAAAAAAAAAAAAAAAAAAAAAAAAAAAAAAAAAAAw/yAQMP8gECn7G48p+xuPKfoa7yn6Gu8p+hr/Kfoa/yn6Gv8p+hr/Kfoa/yn6Gv8p+hr/Kfoa/yn6Gv8p+hr/Kfoa/yn6Gv8p+hr/Kfoa/yn6Gv8p+hr/Kfoa/yn6Gv8p+hr/Kfoa/yn6Gv8p+hr/Kfoa/yn6Gv8p+hr/Kfoa/yn6Gv8p+hr/Kfoa/yn6Gv8p+hr/Kfoa/yn6Gv8p+hr/Kfsbjyn7G48AAAAAAAAAAAAAAAAAAAAAAAAAAAAAAAAAAAAAAAAAAAAAAAAAAAAAAAAAAAAAAAAAAAAAAAAAAAAAAAAAAAAAAAAAAAAAAAAAAAAAAAAAAAAAAAAAAAAAAAAAAAAAAAAAAAAAAAAAAAAAAAAAAAAAAAAAAAAAAAAAAAAAAAAAAAAAAAAAAAAAAAAAAAAAAAAAAAAAAAAAAAAAAAAAAAAAAAAAAAAAAAAAAAAAAAAAAAAAAAAAAAAAAAAAAAAAAAAAAAAAAAAAAAAAAAAAAAAAAAAAAAAAAAAAAAAAAAAAAAAAAAAAAAAAAAAAAAAAAAAAAAAAAAAAAAAAAAAAAAAAAAAAAAAAAAAAAAAAAAAAAAAAAAAAAAAAAAAAAAAAAAAAAAAAAAAAAAAAAAAAAAAAAAAAAAAAAAAAAAAAAAAAAAAAAAAAAAAAAAAAAAAAAAAAAAAAAAAAADD/IBAw/yAQKfsbjyn7G48p+hrvKfoa7yn6Gv8p+hr/Kfoa/yn6Gv8p+hr/Kfoa/yn6Gv8p+hr/Kfoa/yn6Gv8p+hr/Kfoa/yn6Gv8p+hr/Kfoa/yn6Gv8p+hr/Kfoa/yn6Gv8p+hr/Kfoa/yn6Gv8p+hr/Kfoa/yn6Gv8p+hr/Kfoa/yn6Gv8p+hr/Kfoa/yn6Gv8p+hr/Kfoa/yn6Gv8p+xuPKfsbjwAAAAAAAAAAAAAAAAAAAAAAAAAAAAAAAAAAAAAAAAAAAAAAAAAAAAAAAAAAAAAAAAAAAAAAAAAAAAAAAAAAAAAAAAAAAAAAAAAAAAAAAAAAAAAAAAAAAAAAAAAAAAAAAAAAAAAAAAAAAAAAAAAAAAAAAAAAAAAAAAAAAAAAAAAAAAAAAAAAAAAAAAAAAAAAAAAAAAAAAAAAAAAAAAAAAAAAAAAAAAAAAAAAAAAAAAAAAAAAAAAAAAAAAAAAAAAAAAAAAAAAAAAAAAAAAAAAAAAAAAAAAAAAADD/IBAw/yAQKfoazyn6Gs8p+hrPKfoazyn6Gs8p+hrPKfoZvyn6Gb8AAAAAAAAAAAAAAAAAAAAAAAAAAAAAAAAAAAAAAAAAAAAAAAAAAAAAAAAAAAAAAAAAAAAAAAAAAAAAAAAAAAAAAAAAAAAAAAAAAAAAAAAAAAAAAAAAAAAAAAAAAAAAAAAAAAAAAAAAADD/IBAw/yAQKPkagCj5GoAp+hrPKfoazyn6Gv8p+hr/Kfoa/yn6Gv8p+hr/Kfoa/yn6Gv8p+hr/Kfoa/yn6Gv8p+hr/Kfoa/yn6Gv8p+hr/Kfoa/yn6Gv8p+hr/Kfoa/yn6Gv8p+hr/Kfoa/yn6Gv8p+hr/Kfoa/yn6Gt8p+hrfKfsbjyn7G48o9xggKPcYIAAAAAAAAAAAAAAAAAAAAAAAAAAAAAAAAAAAAAAAAAAAAAAAAAAAAAAAAAAAAAAAAAAAAAAAAAAAAAAAAAAAAAAAAAAAAAAAAAAAAAAAAAAAAAAAAAAAAAAAAAAAAAAAAAAAAAAAAAAAKfsaryn7Gq8p+hrPKfoazyn6Gs8p+hrPKfoazyn6Gs8r+hswK/obMAAAAAAAAAAAAAAAAAAAAAAAAAAAAAAAAAAAAAAAAAAAAAAAAAAAAAAAAAAAAAAAAAAAAAAAAAAAAAAAAAAAAAAAAAAAAAAAAAAAAAAAAAAAMP8gEDD/IBAp+hrPKfoazyn6Gs8p+hrPKfoazyn6Gs8p+hm/KfoZvwAAAAAAAAAAAAAAAAAAAAAAAAAAAAAAAAAAAAAAAAAAAAAAAAAAAAAAAAAAAAAAAAAAAAAAAAAAAAAAAAAAAAAAAAAAAAAAAAAAAAAAAAAAAAAAAAAAAAAAAAAAAAAAAAAAAAAAAAAAMP8gEDD/IBAo+RqAKPkagCn6Gs8p+hrPKfoa/yn6Gv8p+hr/Kfoa/yn6Gv8p+hr/Kfoa/yn6Gv8p+hr/Kfoa/yn6Gv8p+hr/Kfoa/yn6Gv8p+hr/Kfoa/yn6Gv8p+hr/Kfoa/yn6Gv8p+hr/Kfoa/yn6Gv8p+hr/Kfoa3yn6Gt8p+xuPKfsbjyj3GCAo9xggAAAAAAAAAAAAAAAAAAAAAAAAAAAAAAAAAAAAAAAAAAAAAAAAAAAAAAAAAAAAAAAAAAAAAAAAAAAAAAAAAAAAAAAAAAAAAAAAAAAAAAAAAAAAAAAAAAAAAAAAAAAAAAAAAAAAAAAAAAAp+xqvKfsaryn6Gs8p+hrPKfoazyn6Gs8p+hrPKfoazyv6GzAr+hswAAAAAAAAAAAAAAAAAAAAAAAAAAAAAAAAAAAAAAAAAAAAAAAAAAAAAAAAAAAAAAAAAAAAAAAAAAAAAAAAAAAAAAAAAAAAAAAAAAAAAAAAAAAo9xggKPcYICn6Gv8p+hr/Kfoa/yn6Gv8p+hr/Kfoa/yn6Gt8p+hrfAAAAAAAAAAAAAAAAAAAAAAAAAAAAAAAAAAAAAAAAAAAAAAAAAAAAAAAAAAAAAAAAAAAAAAAAAAAAAAAAAAAAAAAAAAAAAAAAAAAAAAAAAAAAAAAAAAAAAAAAAAAAAAAAAAAAAAAAAAAAAAAAAAAAAAAAAAAAAAAAAAAAAAAAAAAo9xhAKPcYQCn4GXAp+BlwKfoZvyn6Gb8p+hrfKfoa3yn6Gu8p+hrvKfoa/yn6Gv8p+hr/Kfoa/yn6Gv8p+hr/Kfoa3yn6Gt8p+xqvKfsaryj5GoAo+RqAKPcYQCj3GEAAAAAAAAAAAAAAAAAAAAAAAAAAAAAAAAAAAAAAAAAAAAAAAAAAAAAAAAAAAAAAAAAAAAAAAAAAAAAAAAAAAAAAAAAAAAAAAAAAAAAAAAAAAAAAAAAAAAAAAAAAAAAAAAAAAAAAAAAAAAAAAAAAAAAAAAAAAAAAAAAAAAAAAAAAACn6Gt8p+hrfKfoa/yn6Gv8p+hr/Kfoa/yn6Gv8p+hr/K/obMCv6GzAAAAAAAAAAAAAAAAAAAAAAAAAAAAAAAAAAAAAAAAAAAAAAAAAAAAAAAAAAAAAAAAAAAAAAAAAAAAAAAAAAAAAAAAAAAAAAAAAAAAAAAAAAACj3GCAo9xggKfoa/yn6Gv8p+hr/Kfoa/yn6Gv8p+hr/Kfoa3yn6Gt8AAAAAAAAAAAAAAAAAAAAAAAAAAAAAAAAAAAAAAAAAAAAAAAAAAAAAAAAAAAAAAAAAAAAAAAAAAAAAAAAAAAAAAAAAAAAAAAAAAAAAAAAAAAAAAAAAAAAAAAAAAAAAAAAAAAAAAAAAAAAAAAAAAAAAAAAAAAAAAAAAAAAAAAAAACj3GEAo9xhAKfgZcCn4GXAp+hm/KfoZvyn6Gt8p+hrfKfoa7yn6Gu8p+hr/Kfoa/yn6Gv8p+hr/Kfoa/yn6Gv8p+hrfKfoa3yn7Gq8p+xqvKPkagCj5GoAo9xhAKPcYQAAAAAAAAAAAAAAAAAAAAAAAAAAAAAAAAAAAAAAAAAAAAAAAAAAAAAAAAAAAAAAAAAAAAAAAAAAAAAAAAAAAAAAAAAAAAAAAAAAAAAAAAAAAAAAAAAAAAAAAAAAAAAAAAAAAAAAAAAAAAAAAAAAAAAAAAAAAAAAAAAAAAAAAAAAAKfoa3yn6Gt8p+hr/Kfoa/yn6Gv8p+hr/Kfoa/yn6Gv8r+hswK/obMAAAAAAAAAAAAAAAAAAAAAAAAAAAAAAAAAAAAAAAAAAAAAAAAAAAAAAAAAAAAAAAAAAAAAAAAAAAAAAAAAAAAAAAAAAAAAAAAAAAAAAAAAAAKPcYICj3GCAp+hr/Kfoa/yn6Gv8p+hr/Kfoa/yn6Gv8p+hrfKfoa3wAAAAAAAAAAAAAAAAAAAAAAAAAAAAAAAAAAAAAAAAAAAAAAAAAAAAAAAAAAAAAAAAAAAAAAAAAAAAAAAAAAAAAAAAAAAAAAAAAAAAAAAAAAAAAAAAAAAAAAAAAAAAAAAAAAAAAAAAAAAAAAAAAAAAAAAAAAAAAAAAAAAAAAAAAAAAAAAAAAAAAAAAAAAAAAAAAAAAAAAAAAAAAAAAAAAAAAAAAAAAAAADD/IBAw/yAQAAAAAAAAAAAAAAAAAAAAAAAAAAAAAAAAAAAAAAAAAAAAAAAAAAAAAAAAAAAAAAAAAAAAAAAAAAAAAAAAAAAAAAAAAAAAAAAAAAAAAAAAAAAAAAAAAAAAAAAAAAAAAAAAAAAAAAAAAAAAAAAAAAAAAAAAAAAAAAAAAAAAAAAAAAAAAAAAAAAAAAAAAAAAAAAAAAAAAAAAAAAAAAAAAAAAAAAAAAAAAAAAAAAAAAAAAAAp+hrfKfoa3yn6Gv8p+hr/Kfoa/yn6Gv8p+hr/Kfoa/yv6GzAr+hswAAAAAAAAAAAAAAAAAAAAAAAAAAAAAAAAAAAAAAAAAAAAAAAAAAAAAAAAAAAAAAAAAAAAAAAAAAAAAAAAAAAAAAAAAAAAAAAAAAAAAAAAAAAo9xggKPcYICn6Gv8p+hr/Kfoa/yn6Gv8p+hr/Kfoa/yn6Gt8p+hrfAAAAAAAAAAAAAAAAAAAAAAAAAAAAAAAAAAAAAAAAAAAAAAAAAAAAAAAAAAAAAAAAAAAAAAAAAAAAAAAAAAAAAAAAAAAAAAAAAAAAAAAAAAAAAAAAAAAAAAAAAAAAAAAAAAAAAAAAAAAAAAAAAAAAAAAAAAAAAAAAAAAAAAAAAAAAAAAAAAAAAAAAAAAAAAAAAAAAAAAAAAAAAAAAAAAAAAAAAAAAAAAAMP8gEDD/IBAAAAAAAAAAAAAAAAAAAAAAAAAAAAAAAAAAAAAAAAAAAAAAAAAAAAAAAAAAAAAAAAAAAAAAAAAAAAAAAAAAAAAAAAAAAAAAAAAAAAAAAAAAAAAAAAAAAAAAAAAAAAAAAAAAAAAAAAAAAAAAAAAAAAAAAAAAAAAAAAAAAAAAAAAAAAAAAAAAAAAAAAAAAAAAAAAAAAAAAAAAAAAAAAAAAAAAAAAAAAAAAAAAAAAAAAAAACn6Gt8p+hrfKfoa/yn6Gv8p+hr/Kfoa/yn6Gv8p+hr/K/obMCv6GzAAAAAAAAAAAAAAAAAAAAAAAAAAAAAAAAAAAAAAAAAAAAAAAAAAAAAAAAAAAAAAAAAAAAAAAAAAAAAAAAAAAAAAAAAAAAAAAAAAAAAAAAAAACj3GCAo9xggKfoa/yn6Gv8p+hr/Kfoa/yn6Gv8p+hr/Kfoa3yn6Gt8AAAAAAAAAAAAAAAAAAAAAAAAAAAAAAAAAAAAAAAAAAAAAAAAAAAAAAAAAAAAAAAAAAAAAAAAAAAAAAAAAAAAAAAAAAAAAAAAAAAAAAAAAAAAAAAAAAAAAAAAAAAAAAAAAAAAAAAAAAAAAAAAAAAAAAAAAAAAAAAAAAAAAAAAAAAAAAAAAAAAAAAAAAAAAAAAAAAAAAAAAAAAAAAAAAAAAAAAAAAAAAAAAAAAAAAAAAAAAAAAAAAAAAAAAAAAAAAAAAAAAAAAAAAAAAAAAAAAAAAAAAAAAAAAAAAAAAAAAAAAAAAAAAAAAAAAAAAAAAAAAAAAAAAAAAAAAAAAAAAAAAAAAAAAAAAAAAAAAAAAAAAAAAAAAAAAAAAAAAAAAAAAAAAAAAAAAAAAAAAAAAAAAAAAAAAAAAAAAAAAAAAAAAAAAAAAAAAAAAAAAAAAAAAAAAAAAAAAAAAAAAAAAAAAAKfoa3yn6Gt8p+hr/Kfoa/yn6Gv8p+hr/Kfoa/yn6Gv8r+hswK/obMAAAAAAAAAAAAAAAAAAAAAAAAAAAAAAAAAAAAAAAAAAAAAAAAAAAAAAAAAAAAAAAAAAAAAAAAAAAAAAAAAAAAAAAAAAAAAAAAAAAAAAAAAAAKPcYICj3GCAp+hr/Kfoa/yn6Gv8p+hr/Kfoa/yn6Gv8p+hrfKfoa3wAAAAAAAAAAAAAAAAAAAAAAAAAAAAAAAAAAAAAAAAAAAAAAAAAAAAAAAAAAAAAAAAAAAAAAAAAAAAAAAAAAAAAAAAAAAAAAAAAAAAAAAAAAAAAAAAAAAAAAAAAAAAAAAAAAAAAAAAAAAAAAAAAAAAAAAAAAAAAAAAAAAAAAAAAAAAAAAAAAAAAAAAAAAAAAAAAAAAAAAAAAAAAAAAAAAAAAAAAAAAAAAAAAAAAAAAAAAAAAAAAAAAAAAAAAAAAAAAAAAAAAAAAAAAAAAAAAAAAAAAAAAAAAAAAAAAAAAAAAAAAAAAAAAAAAAAAAAAAAAAAAAAAAAAAAAAAAAAAAAAAAAAAAAAAAAAAAAAAAAAAAAAAAAAAAAAAAAAAAAAAAAAAAAAAAAAAAAAAAAAAAAAAAAAAAAAAAAAAAAAAAAAAAAAAAAAAAAAAAAAAAAAAAAAAAAAAAAAAAAAAAAAAAAAAp+hrfKfoa3yn6Gv8p+hr/Kfoa/yn6Gv8p+hr/Kfoa/yv6GzAr+hswAAAAAAAAAAAAAAAAAAAAAAAAAAAAAAAAAAAAAAAAAAAAAAAAAAAAAAAAAAAAAAAAAAAAAAAAAAAAAAAAAAAAAAAAAAAAAAAAAAAAAAAAAAAo9xggKPcYICn6Gv8p+hr/Kfoa/yn6Gv8p+hr/Kfoa/yn6Gt8p+hrfAAAAAAAAAAAAAAAAAAAAAAAAAAAAAAAAAAAAAAAAAAAAAAAAAAAAAAAAAAAAAAAAAAAAAAAAAAAAAAAAAAAAAAAAAAAAAAAAAAAAAAAAAAAAAAAAAAAAAAAAAAAAAAAAAAAAAAAAAAAAAAAAAAAAAAAAAAAAAAAAAAAAAAAAAAAAAAAAAAAAAAAAAAAAAAAAAAAAAAAAAAAAAAAAAAAAAAAAAAAAAAAAAAAAAAAAAAAAAAAAAAAAAAAAAAAAAAAAAAAAAAAAAAAAAAAAAAAAAAAAAAAAAAAAAAAAAAAAAAAAAAAAAAAAAAAAAAAAAAAAAAAAAAAAAAAAAAAAAAAAAAAAAAAAAAAAAAAAAAAAAAAAAAAAAAAAAAAAAAAAAAAAAAAAAAAAAAAAAAAAAAAAAAAAAAAAAAAAAAAAAAAAAAAAAAAAAAAAAAAAAAAAAAAAAAAAAAAAAAAAAAAAAAAAACn6Gt8p+hrfKfoa/yn6Gv8p+hr/Kfoa/yn6Gv8p+hr/K/obMCv6GzAAAAAAAAAAAAAAAAAAAAAAAAAAAAAAAAAAAAAAAAAAAAAAAAAAAAAAAAAAAAAAAAAAAAAAAAAAAAAAAAAAAAAAAAAAAAAAAAAAAAAAAAAAACj3GCAo9xggKfoa/yn6Gv8p+hr/Kfoa/yn6Gv8p+hr/Kfoa3yn6Gt8AAAAAAAAAAAAAAAAAAAAAAAAAAAAAAAAAAAAAAAAAAAAAAAAAAAAAAAAAAAAAAAAAAAAAAAAAAAAAAAAAAAAAAAAAAAAAAAAAAAAAAAAAAAAAAAAAAAAAAAAAAAAAAAAAAAAAAAAAAAAAAAAAAAAAAAAAAAAAAAAAAAAAAAAAAAAAAAAAAAAAAAAAAAAAAAAAAAAAAAAAAAAAAAAAAAAAAAAAAAAAAAAAAAAAAAAAAAAAAAAAAAAAAAAAAAAAAAAAAAAAAAAAAAAAAAAAAAAAAAAAAAAAAAAAAAAAAAAAAAAAAAAAAAAAAAAAAAAAAAAAAAAAAAAAAAAAAAAAAAAAAAAAAAAAAAAAAAAAAAAAAAAAAAAAAAAAAAAAAAAAAAAAAAAAAAAAAAAAAAAAAAAAAAAAAAAAAAAAAAAAAAAAAAAAAAAAAAAAAAAAAAAAAAAAAAAAAAAAAAAAAAAAAAAAKfoa3yn6Gt8p+hr/Kfoa/yn6Gv8p+hr/Kfoa/yn6Gv8r+hswK/obMAAAAAAAAAAAAAAAAAAAAAAAAAAAAAAAAAAAAAAAAAAAAAAAAAAAAAAAAAAAAAAAAAAAAAAAAAAAAAAAAAAAAAAAAAAAAAAAAAAAAAAAAAAAKPcYICj3GCAp+hr/Kfoa/yn6Gv8p+hr/Kfoa/yn6Gv8p+hrfKfoa3wAAAAAAAAAAAAAAAAAAAAAAAAAAAAAAAAAAAAAAAAAAAAAAAAAAAAAAAAAAAAAAAAAAAAAAAAAAAAAAAAAAAAAAAAAAAAAAAAAAAAAAAAAAAAAAAAAAAAAAAAAAAAAAAAAAAAAAAAAAAAAAAAAAAAAAAAAAAAAAAAAAAAAAAAAAAAAAAAAAAAAAAAAAAAAAAAAAAAAAAAAAAAAAAAAAAAAAAAAAAAAAAAAAAAAAAAAAAAAAAAAAAAAAAAAAAAAAAAAAAAAAAAAAAAAAAAAAAAAAAAAAAAAAAAAAAAAAAAAAAAAAAAAAAAAAAAAAAAAAAAAAAAAAAAAAAAAAAAAAAAAAAAAAAAAAAAAAAAAAAAAAAAAAAAAAAAAAAAAAAAAAAAAAAAAAAAAAAAAAAAAAAAAAAAAAAAAAAAAAAAAAAAAAAAAAAAAAAAAAAAAAAAAAAAAAAAAAAAAAAAAAAAAAAAAp+hrfKfoa3yn6Gv8p+hr/Kfoa/yn6Gv8p+hr/Kfoa/yv6GzAr+hswAAAAAAAAAAAAAAAAAAAAAAAAAAAAAAAAAAAAAAAAAAAAAAAAAAAAAAAAAAAAAAAAAAAAAAAAAAAAAAAAAAAAAAAAAAAAAAAAAAAAAAAAAAAo9xggKPcYICn6Gv8p+hr/Kfoa/yn6Gv8p+hr/Kfoa/yn6Gt8p+hrfAAAAAAAAAAAAAAAAAAAAAAAAAAAAAAAAAAAAAAAAAAAAAAAAAAAAAAAAAAAAAAAAAAAAAAAAAAAAAAAAAAAAAAAAAAAAAAAAAAAAAAAAAAAAAAAAAAAAAAAAAAAAAAAAAAAAAAAAAAAAAAAAAAAAAAAAAAAAAAAAAAAAAAAAAAAAAAAAAAAAAAAAAAAAAAAAAAAAAAAAAAAAAAAAAAAAAAAAAAAAAAAAAAAAAAAAAAAAAAAAAAAAAAAAAAAAAAAAAAAAAAAAAAAAAAAAAAAAAAAAAAAAAAAAAAAAAAAAAAAAAAAAAAAAAAAAAAAAAAAAAAAAAAAAAAAAAAAAAAAAAAAAAAAAAAAAAAAAAAAAAAAAAAAAAAAAAAAAAAAAAAAAAAAAAAAAAAAAAAAAAAAAAAAAAAAAAAAAAAAAAAAAAAAAAAAAAAAAAAAAAAAAAAAAAAAAAAAAAAAAAAAAAAAAACn6Gt8p+hrfKfoa/yn6Gv8p+hr/Kfoa/yn6Gv8p+hr/K/obMCv6GzAAAAAAAAAAAAAAAAAAAAAAAAAAAAAAAAAAAAAAAAAAAAAAAAAAAAAAAAAAAAAAAAAAAAAAAAAAAAAAAAAAAAAAAAAAAAAAAAAAAAAAAAAAACj3GCAo9xggKfoa/yn6Gv8p+hr/Kfoa/yn6Gv8p+hr/Kfoa3yn6Gt8AAAAAAAAAAAAAAAAAAAAAAAAAAAAAAAAAAAAAAAAAAAAAAAAAAAAAAAAAAAAAAAAAAAAAAAAAAAAAAAAAAAAAAAAAAAAAAAAAAAAAAAAAAAAAAAAAAAAAAAAAAAAAAAAAAAAAAAAAAAAAAAAAAAAAAAAAAAAAAAAAAAAAAAAAAAAAAAAAAAAAAAAAAAAAAAAAAAAAAAAAAAAAAAAAAAAAAAAAAAAAAAAAAAAAAAAAAAAAAAAAAAAAAAAAAAAAAAAAAAAAAAAAAAAAAAAAAAAAAAAAAAAAAAAAAAAAAAAAAAAAAAAAAAAAAAAAAAAAAAAAAAAAAAAAAAAAAAAAAAAAAAAAAAAAAAAAAAAAAAAAAAAAAAAAAAAAAAAAAAAAAAAAAAAAAAAAAAAAAAAAAAAAAAAAAAAAAAAAAAAAAAAAAAAAAAAAAAAAAAAAAAAAAAAAAAAAAAAAAAAAAAAAAAAAKfoa3yn6Gt8p+hr/Kfoa/yn6Gv8p+hr/Kfoa/yn6Gv8r+hswK/obMAAAAAAAAAAAAAAAAAAAAAAAAAAAAAAAAAAAAAAAAAAAAAAAAAAAAAAAAAAAAAAAAAAAAAAAAAAAAAAAAAAAAAAAAAAAAAAAAAAAAAAAAAAAKPcYICj3GCAp+hr/Kfoa/yn6Gv8p+hr/Kfoa/yn6Gv8p+hrfKfoa3wAAAAAAAAAAAAAAAAAAAAAAAAAAAAAAAAAAAAAAAAAAAAAAAAAAAAAAAAAAAAAAAAAAAAAAAAAAAAAAAAAAAAAAAAAAAAAAAAAAAAAAAAAAAAAAAAAAAAAAAAAAAAAAAAAAAAAAAAAAAAAAAAAAAAAAAAAAAAAAAAAAAAAAAAAAAAAAAAAAAAAAAAAAAAAAAAAAAAAAAAAAAAAAAAAAAAAAAAAAAAAAAAAAAAAAAAAAAAAAAAAAAAAAAAAAAAAAAAAAAAAAAAAAAAAAAAAAAAAAAAAAAAAAAAAAAAAAAAAAAAAAAAAAAAAAAAAAAAAAAAAAAAAAAAAAAAAAAAAAAAAAAAAAAAAAAAAAAAAAAAAAAAAAAAAAAAAAAAAAAAAAAAAAAAAAAAAAAAAAAAAAAAAAAAAAAAAAAAAAAAAAAAAAAAAAAAAAAAAAAAAAAAAAAAAAAAAAAAAAAAAAAAAAAAAp+hrfKfoa3yn6Gv8p+hr/Kfoa/yn6Gv8p+hr/Kfoa/yv6GzAr+hswAAAAAAAAAAAAAAAAAAAAAAAAAAAAAAAAAAAAAAAAAAAAAAAAAAAAAAAAAAAAAAAAAAAAAAAAAAAAAAAAAAAAAAAAAAAAAAAAAAAAAAAAAAAo9xggKPcYICn6Gv8p+hr/Kfoa/yn6Gv8p+hr/Kfoa/yn6Gt8p+hrfAAAAAAAAAAAAAAAAAAAAAAAAAAAAAAAAAAAAAAAAAAAAAAAAAAAAAAAAAAAAAAAAAAAAAAAAAAAAAAAAAAAAAAAAAAAAAAAAAAAAAAAAAAAAAAAAAAAAAAAAAAAAAAAAAAAAAAAAAAAAAAAAAAAAAAAAAAAAAAAAAAAAAAAAAAAAAAAAAAAAAAAAAAAAAAAAAAAAAAAAAAAAAAAAAAAAAAAAAAAAAAAAAAAAAAAAAAAAAAAAAAAAAAAAAAAAAAAAAAAAAAAAAAAAAAAAAAAAAAAAAAAAAAAAAAAAAAAAAAAAAAAAAAAAAAAAAAAAAAAAAAAAAAAAAAAAAAAAAAAAAAAAAAAAAAAAAAAAAAAAAAAAAAAAAAAAAAAAAAAAAAAAAAAAAAAAAAAAAAAAAAAAAAAAAAAAAAAAAAAAAAAAAAAAAAAAAAAAAAAAAAAAAAAAAAAAAAAAAAAAAAAAAAAAACn6Gt8p+hrfKfoa/yn6Gv8p+hr/Kfoa/yn6Gv8p+hr/K/obMCv6GzAAAAAAAAAAAAAAAAAAAAAAAAAAAAAAAAAAAAAAAAAAAAAAAAAAAAAAAAAAAAAAAAAAAAAAAAAAAAAAAAAAAAAAAAAAAAAAAAAAAAAAAAAAACj3GCAo9xggKfoa/yn6Gv8p+hr/Kfoa/yn6Gv8p+hr/Kfoa3yn6Gt8AAAAAAAAAAAAAAAAAAAAAAAAAAAAAAAAAAAAAAAAAAAAAAAAAAAAAAAAAAAAAAAAAAAAAAAAAAAAAAAAAAAAAAAAAAAAAAAAAAAAAAAAAAAAAAAAAAAAAAAAAAAAAAAAAAAAAAAAAAAAAAAAAAAAAAAAAAAAAAAAAAAAAAAAAAAAAAAAAAAAAAAAAAAAAAAAAAAAAAAAAAAAAAAAAAAAAAAAAAAAAAAAAAAAAAAAAAAAAAAAAAAAAAAAAAAAAAAAAAAAAAAAAAAAAAAAAAAAAAAAAAAAAAAAAAAAAAAAAAAAAAAAAAAAAAAAAAAAAAAAAAAAAAAAAAAAAAAAAAAAAAAAAAAAAAAAAAAAAAAAAAAAAAAAAAAAAAAAAAAAAAAAAAAAAAAAAAAAAAAAAAAAAAAAAAAAAAAAAAAAAAAAAAAAAAAAAAAAAAAAAAAAAAAAAAAAAAAAAAAAAAAAAAAAAKfoa3yn6Gt8p+hr/Kfoa/yn6Gv8p+hr/Kfoa/yn6Gv8r+hswK/obMAAAAAAAAAAAAAAAAAAAAAAAAAAAAAAAAAAAAAAAAAAAAAAAAAAAAAAAAAAAAAAAAAAAAAAAAAAAAAAAAAAAAAAAAAAAAAAAAAAAAAAAAAAAKPcYICj3GCAp+hr/Kfoa/yn6Gv8p+hr/Kfoa/yn6Gv8p+hrfKfoa3wAAAAAAAAAAAAAAAAAAAAAAAAAAAAAAAAAAAAAAAAAAAAAAAAAAAAAAAAAAAAAAAAAAAAAAAAAAAAAAAAAAAAAAAAAAAAAAAAAAAAAAAAAAAAAAAAAAAAAAAAAAAAAAAAAAAAAAAAAAAAAAAAAAAAAAAAAAAAAAAAAAAAAAAAAAAAAAAAAAAAAAAAAAAAAAAAAAAAAAAAAAAAAAAAAAAAAAAAAAAAAAAAAAAAAAAAAAAAAAAAAAAAAAAAAAAAAAAAAAAAAAAAAAAAAAAAAAAAAAAAAAAAAAAAAAAAAAAAAAAAAAAAAAAAAAAAAAAAAAAAAAAAAAAAAAAAAAAAAAAAAAAAAAAAAAAAAAAAAAAAAAAAAAAAAAAAAAAAAAAAAAAAAAAAAAAAAAAAAAAAAAAAAAAAAAAAAAAAAAAAAAAAAAAAAAAAAAAAAAAAAAAAAAAAAAAAAAAAAAAAAAAAAAAAAp+hrfKfoa3yn6Gv8p+hr/Kfoa/yn6Gv8p+hr/Kfoa/yv6GzAr+hswAAAAAAAAAAAAAAAAAAAAAAAAAAAAAAAAAAAAAAAAAAAAAAAAAAAAAAAAAAAAAAAAAAAAAAAAAAAAAAAAAAAAAAAAAAAAAAAAAAAAAAAAAAAo9xggKPcYICn6Gv8p+hr/Kfoa/yn6Gv8p+hr/Kfoa/yn6Gt8p+hrfAAAAAAAAAAAAAAAAAAAAAAAAAAAAAAAAAAAAAAAAAAAAAAAAAAAAAAAAAAAAAAAAAAAAAAAAAAAAAAAAAAAAAAAAAAAAAAAAAAAAAAAAAAAAAAAAAAAAAAAAAAAAAAAAAAAAAAAAAAAAAAAAAAAAAAAAAAAAAAAAAAAAAAAAAAAAAAAAAAAAAAAAAAAAAAAAAAAAAAAAAAAAAAAAAAAAAAAAAAAAAAAAAAAAAAAAAAAAAAAAAAAAAAAAAAAAAAAAAAAAAAAAAAAAAAAAAAAAAAAAAAAAAAAAAAAAAAAAAAAAAAAAAAAAAAAAAAAAAAAAAAAAAAAAAAAAAAAAAAAAAAAAAAAAAAAAAAAAAAAAAAAAAAAAAAAAAAAAAAAAAAAAAAAAAAAAAAAAAAAAAAAAAAAAAAAAAAAAAAAAAAAAAAAAAAAAAAAAAAAAAAAAAAAAAAAAAAAAAAAAAAAAAAAAACn6Gt8p+hrfKfoa/yn6Gv8p+hr/Kfoa/yn6Gv8p+hr/K/obMCv6GzAAAAAAAAAAAAAAAAAAAAAAAAAAAAAAAAAAAAAAAAAAAAAAAAAAAAAAAAAAAAAAAAAAAAAAAAAAAAAAAAAAAAAAAAAAAAAAAAAAAAAAAAAAACj3GCAo9xggKfoa/yn6Gv8p+hr/Kfoa/yn6Gv8p+hr/Kfoa3yn6Gt8AAAAAAAAAAAAAAAAAAAAAAAAAAAAAAAAAAAAAAAAAAAAAAAAAAAAAAAAAAAAAAAAAAAAAAAAAAAAAAAAAAAAAAAAAAAAAAAAAAAAAAAAAAAAAAAAAAAAAAAAAAAAAAAAAAAAAAAAAAAAAAAAAAAAAAAAAAAAAAAAAAAAAAAAAAAAAAAAAAAAAAAAAAAAAAAAAAAAAAAAAAAAAAAAAAAAAAAAAAAAAAAAAAAAAAAAAAAAAAAAAAAAAAAAAAAAAAAAAAAAAAAAAAAAAAAAAAAAAAAAAAAAAAAAAAAAAAAAAAAAAAAAAAAAAAAAAAAAAAAAAAAAAAAAAAAAAAAAAAAAAAAAAAAAAAAAAAAAAAAAAAAAAAAAAAAAAAAAAAAAAAAAAAAAAAAAAAAAAAAAAAAAAAAAAAAAAAAAAAAAAAAAAAAAAAAAAAAAAAAAAAAAAAAAAAAAAAAAAAAAAAAAAAAAAKfoa3yn6Gt8p+hr/Kfoa/yn6Gv8p+hr/Kfoa/yn6Gv8r+hswK/obMAAAAAAAAAAAAAAAAAAAAAAAAAAAAAAAAAAAAAAAAAAAAAAAAAAAAAAAAAAAAAAAAAAAAAAAAAAAAAAAAAAAAAAAAAAAAAAAAAAAAAAAAAAAKPcYICj3GCAp+hr/Kfoa/yn6Gv8p+hr/Kfoa/yn6Gv8p+hrfKfoa3wAAAAAAAAAAAAAAAAAAAAAAAAAAAAAAAAAAAAAAAAAAAAAAAAAAAAAAAAAAAAAAAAAAAAAAAAAAAAAAAAAAAAAAAAAAAAAAAAAAAAAAAAAAAAAAAAAAAAAAAAAAAAAAAAAAAAAAAAAAAAAAAAAAAAAAAAAAAAAAAAAAAAAAAAAAAAAAAAAAAAAAAAAAAAAAAAAAAAAAAAAAAAAAAAAAAAAAAAAAAAAAAAAAAAAAAAAAAAAAAAAAAAAAAAAAAAAAAAAAAAAAAAAAAAAAAAAAAAAAAAAAAAAAAAAAAAAAAAAAAAAAAAAAAAAAAAAAAAAAAAAAAAAAAAAAAAAAAAAAAAAAAAAAAAAAAAAAAAAAAAAAAAAAAAAAAAAAAAAAAAAAAAAAAAAAAAAAAAAAAAAAAAAAAAAAAAAAAAAAAAAAAAAAAAAAAAAAAAAAAAAAAAAAAAAAAAAAAAAAAAAAAAAAAAAp+hrfKfoa3yn6Gv8p+hr/Kfoa/yn6Gv8p+hr/Kfoa/yv6GzAr+hswAAAAAAAAAAAAAAAAAAAAAAAAAAAAAAAAAAAAAAAAAAAAAAAAAAAAAAAAAAAAAAAAAAAAAAAAAAAAAAAAAAAAAAAAAAAAAAAAAAAAAAAAAAAo9xggKPcYICn6Gv8p+hr/Kfoa/yn6Gv8p+hr/Kfoa/yn6Gu8p+hrvMP8gEDD/IBAAAAAAAAAAAAAAAAAAAAAAAAAAAAAAAAAAAAAAAAAAAAAAAAAAAAAAAAAAAAAAAAAAAAAAAAAAAAAAAAAAAAAAAAAAAAAAAAAAAAAAAAAAAAAAAAAAAAAAAAAAAAAAAAAAAAAAAAAAAAAAAAAAAAAAAAAAAAAAAAAAAAAAAAAAAAAAAAAAAAAAAAAAAAAAAAAAAAAAAAAAAAAAAAAAAAAAAAAAAAAAAAAAAAAAAAAAAAAAAAAAAAAAAAAAAAAAAAAAAAAAAAAAAAAAAAAAAAAAAAAAAAAAAAAAAAAAAAAAAAAAAAAAAAAAAAAAAAAAAAAAAAAAAAAAAAAAAAAAAAAAAAAAAAAAAAAAAAAAAAAAAAAAAAAAAAAAAAAAAAAAAAAAAAAAAAAAAAAAAAAAAAAAAAAAAAAAAAAAAAAAAAAAAAAAAAAAAAAAAAAAAAAAAAAAAAAAAAAAACn6Gu8p+hrvKfoa/yn6Gv8p+hr/Kfoa/yn6Gv8p+hr/K/obMCv6GzAAAAAAAAAAAAAAAAAAAAAAAAAAAAAAAAAAAAAAAAAAAAAAAAAAAAAAAAAAAAAAAAAAAAAAAAAAAAAAAAAAAAAAAAAAAAAAAAAAAAAAAAAAACj3GCAo9xggKfoa/yn6Gv8p+hr/Kfoa/yn6Gv8p+hr/Kfoa7yn6Gu8w/yAQMP8gEAAAAAAAAAAAAAAAAAAAAAAAAAAAAAAAAAAAAAAAAAAAAAAAAAAAAAAAAAAAAAAAAAAAAAAAAAAAAAAAAAAAAAAAAAAAAAAAAAAAAAAAAAAAAAAAAAAAAAAAAAAAAAAAAAAAAAAAAAAAAAAAAAAAAAAAAAAAAAAAAAAAAAAAAAAAAAAAAAAAAAAAAAAAAAAAAAAAAAAAAAAAAAAAAAAAAAAAAAAAAAAAAAAAAAAAAAAAAAAAAAAAAAAAAAAAAAAAAAAAAAAAAAAAAAAAAAAAAAAAAAAAAAAAAAAAAAAAAAAAAAAAAAAAAAAAAAAAAAAAAAAAAAAAAAAAAAAAAAAAAAAAAAAAAAAAAAAAAAAAAAAAAAAAAAAAAAAAAAAAAAAAAAAAAAAAAAAAAAAAAAAAAAAAAAAAAAAAAAAAAAAAAAAAAAAAAAAAAAAAAAAAAAAAAAAAAAAAAAAAKfoa7yn6Gu8p+hr/Kfoa/yn6Gv8p+hr/Kfoa/yn6Gv8r+hswK/obMAAAAAAAAAAAAAAAAAAAAAAAAAAAAAAAAAAAAAAAAAAAAAAAAAAAAAAAAAAAAAAAAAAAAAAAAAAAAAAAAAAAAAAAAAAAAAAAAAAAAAAAAAAAKPcYICj3GCAp+hr/Kfoa/yn6Gv8p+hr/Kfoa/yn6Gv8p+hr/Kfoa/yn6Gu8p+hrvKfoa3yn6Gt8p+hrfKfoa3yn6Gt8p+hrfKfoa3yn6Gt8p+hrfKfoa3yn6Gt8p+hrfKfoa3yn6Gt8p+hrfKfoa3yn6Gt8p+hrfKfoZvyn6Gb8AAAAAAAAAAAAAAAAAAAAAAAAAAAAAAAAAAAAAAAAAAAAAAAAAAAAAAAAAAAAAAAAAAAAAAAAAAAAAAAAAAAAAAAAAAAAAAAAAAAAAAAAAAAAAAAAAAAAAAAAAAAAAAAAAAAAAAAAAAAAAAAAAAAAAAAAAAAAAAAAAAAAAAAAAAAAAAAAAAAAAAAAAAAAAAAAAAAAAAAAAAAAAAAAAAAAAAAAAAAAAAAAAAAAAAAAAACr6Gp8q+hqfKfoa3yn6Gt8p+hrfKfoa3yn6Gt8p+hrfKfoa3yn6Gt8p+hrfKfoa3yn6Gt8p+hrfKfoa3yn6Gt8p+hrfKfoa3yn6Gt8p+hrfKfoa7yn6Gu8p+hr/Kfoa/yn6Gv8p+hr/Kfoa/yn6Gv8p+hr/Kfoa/yv6GzAr+hswAAAAAAAAAAAAAAAAAAAAAAAAAAAAAAAAAAAAAAAAAAAAAAAAAAAAAAAAAAAAAAAAAAAAAAAAAAAAAAAAAAAAAAAAAAAAAAAAAAAAAAAAAAAo9xggKPcYICn6Gv8p+hr/Kfoa/yn6Gv8p+hr/Kfoa/yn6Gv8p+hr/Kfoa7yn6Gu8p+hrfKfoa3yn6Gt8p+hrfKfoa3yn6Gt8p+hrfKfoa3yn6Gt8p+hrfKfoa3yn6Gt8p+hrfKfoa3yn6Gt8p+hrfKfoa3yn6Gt8p+hm/KfoZvwAAAAAAAAAAAAAAAAAAAAAAAAAAAAAAAAAAAAAAAAAAAAAAAAAAAAAAAAAAAAAAAAAAAAAAAAAAAAAAAAAAAAAAAAAAAAAAAAAAAAAAAAAAAAAAAAAAAAAAAAAAAAAAAAAAAAAAAAAAAAAAAAAAAAAAAAAAAAAAAAAAAAAAAAAAAAAAAAAAAAAAAAAAAAAAAAAAAAAAAAAAAAAAAAAAAAAAAAAAAAAAAAAAAAAAAAAAKvoanyr6Gp8p+hrfKfoa3yn6Gt8p+hrfKfoa3yn6Gt8p+hrfKfoa3yn6Gt8p+hrfKfoa3yn6Gt8p+hrfKfoa3yn6Gt8p+hrfKfoa3yn6Gt8p+hrvKfoa7yn6Gv8p+hr/Kfoa/yn6Gv8p+hr/Kfoa/yn6Gv8p+hr/K/obMCv6GzAAAAAAAAAAAAAAAAAAAAAAAAAAAAAAAAAAAAAAAAAAAAAAAAAAAAAAAAAAAAAAAAAAAAAAAAAAAAAAAAAAAAAAAAAAAAAAAAAAAAAAAAAAAAAAAAAAAAAAKfoa3yn6Gt8p+hr/Kfoa/yn6Gv8p+hr/Kfoa/yn6Gv8p+hr/Kfoa/yn6Gv8p+hr/Kfoa/yn6Gv8p+hr/Kfoa/yn6Gv8p+hr/Kfoa/yn6Gv8p+hr/Kfoa/yn6Gv8p+hr/Kfoa/yn6Gv8p+hr/Kfoa/yn6Gs8p+hrPAAAAAAAAAAAAAAAAAAAAAAAAAAAAAAAAAAAAAAAAAAAAAAAAAAAAAAAAAAAAAAAAAAAAAAAAAAAAAAAAAAAAAAAAAAAAAAAAAAAAAAAAAAAAAAAAAAAAAAAAAAAAAAAAAAAAAAAAAAAAAAAAAAAAAAAAAAAAAAAAAAAAAAAAAAAAAAAAAAAAAAAAAAAAAAAAAAAAAAAAAAAAAAAAAAAAAAAAAAAAAAAAAAAAAAAAAAAp+hm/KfoZvyn6Gv8p+hr/Kfoa/yn6Gv8p+hr/Kfoa/yn6Gv8p+hr/Kfoa/yn6Gv8p+hr/Kfoa/yn6Gv8p+hr/Kfoa/yn6Gv8p+hr/Kfoa/yn6Gv8p+hr/Kfoa/yn6Gv8p+hr/Kfoa/yn6Gv8p+hr/Kfoa7yn6Gu8AAAAAAAAAAAAAAAAAAAAAAAAAAAAAAAAAAAAAAAAAAAAAAAAAAAAAAAAAAAAAAAAAAAAAAAAAAAAAAAAAAAAAAAAAAAAAAAAAAAAAAAAAAAAAAAAAAAAAAAAAAAAAAAAp+hrfKfoa3yn6Gv8p+hr/Kfoa/yn6Gv8p+hr/Kfoa/yn6Gv8p+hr/Kfoa/yn6Gv8p+hr/Kfoa/yn6Gv8p+hr/Kfoa/yn6Gv8p+hr/Kfoa/yn6Gv8p+hr/Kfoa/yn6Gv8p+hr/Kfoa/yn6Gv8p+hr/Kfoazyn6Gs8AAAAAAAAAAAAAAAAAAAAAAAAAAAAAAAAAAAAAAAAAAAAAAAAAAAAAAAAAAAAAAAAAAAAAAAAAAAAAAAAAAAAAAAAAAAAAAAAAAAAAAAAAAAAAAAAAAAAAAAAAAAAAAAAAAAAAAAAAAAAAAAAAAAAAAAAAAAAAAAAAAAAAAAAAAAAAAAAAAAAAAAAAAAAAAAAAAAAAAAAAAAAAAAAAAAAAAAAAAAAAAAAAAAAAAAAAACn6Gb8p+hm/Kfoa/yn6Gv8p+hr/Kfoa/yn6Gv8p+hr/Kfoa/yn6Gv8p+hr/Kfoa/yn6Gv8p+hr/Kfoa/yn6Gv8p+hr/Kfoa/yn6Gv8p+hr/Kfoa/yn6Gv8p+hr/Kfoa/yn6Gv8p+hr/Kfoa/yn6Gv8p+hrvKfoa7wAAAAAAAAAAAAAAAAAAAAAAAAAAAAAAAAAAAAAAAAAAAAAAAAAAAAAAAAAAAAAAAAAAAAAAAAAAAAAAAAAAAAAAAAAAAAAAAAAAAAAAAAAAAAAAAAAAAAAAAAAAAAAAACj5GoAo+RqAKfoa/yn6Gv8p+hr/Kfoa/yn6Gv8p+hr/Kfoa/yn6Gv8p+hr/Kfoa/yn6Gv8p+hr/Kfoa/yn6Gv8p+hr/Kfoa/yn6Gv8p+hr/Kfoa/yn6Gv8p+hr/Kfoa/yn6Gv8p+hr/Kfoa/yn6Gv8p+hrPKfoazwAAAAAAAAAAAAAAAAAAAAAAAAAAAAAAAAAAAAAAAAAAAAAAAAAAAAAAAAAAAAAAAAAAAAAAAAAAAAAAAAAAAAAAAAAAAAAAAAAAAAAAAAAAAAAAAAAAAAAAAAAAAAAAAAAAAAAAAAAAAAAAAAAAAAAAAAAAAAAAAAAAAAAAAAAAAAAAAAAAAAAAAAAAAAAAAAAAAAAAAAAAAAAAAAAAAAAAAAAAAAAAAAAAAAAAAAAAKfoZvyn6Gb8p+hr/Kfoa/yn6Gv8p+hr/Kfoa/yn6Gv8p+hr/Kfoa/yn6Gv8p+hr/Kfoa/yn6Gv8p+hr/Kfoa/yn6Gv8p+hr/Kfoa/yn6Gv8p+hr/Kfoa/yn6Gv8p+hr/Kfoa/yn6Gv8p+hr/Kfoa/yn7G48p+xuPAAAAAAAAAAAAAAAAAAAAAAAAAAAAAAAAAAAAAAAAAAAAAAAAAAAAAAAAAAAAAAAAAAAAAAAAAAAAAAAAAAAAAAAAAAAAAAAAAAAAAAAAAAAAAAAAAAAAAAAAAAAAAAAAKPkagCj5GoAp+hr/Kfoa/yn6Gv8p+hr/Kfoa/yn6Gv8p+hr/Kfoa/yn6Gv8p+hr/Kfoa/yn6Gv8p+hr/Kfoa/yn6Gv8p+hr/Kfoa/yn6Gv8p+hr/Kfoa/yn6Gv8p+hr/Kfoa/yn6Gv8p+hr/Kfoa/yn6Gs8p+hrPAAAAAAAAAAAAAAAAAAAAAAAAAAAAAAAAAAAAAAAAAAAAAAAAAAAAAAAAAAAAAAAAAAAAAAAAAAAAAAAAAAAAAAAAAAAAAAAAAAAAAAAAAAAAAAAAAAAAAAAAAAAAAAAAAAAAAAAAAAAAAAAAAAAAAAAAAAAAAAAAAAAAAAAAAAAAAAAAAAAAAAAAAAAAAAAAAAAAAAAAAAAAAAAAAAAAAAAAAAAAAAAAAAAAAAAAAAAp+hm/KfoZvyn6Gv8p+hr/Kfoa/yn6Gv8p+hr/Kfoa/yn6Gv8p+hr/Kfoa/yn6Gv8p+hr/Kfoa/yn6Gv8p+hr/Kfoa/yn6Gv8p+hr/Kfoa/yn6Gv8p+hr/Kfoa/yn6Gv8p+hr/Kfoa/yn6Gv8p+hr/Kfsbjyn7G48AAAAAAAAAAAAAAAAAAAAAAAAAAAAAAAAAAAAAAAAAAAAAAAAAAAAAAAAAAAAAAAAAAAAAAAAAAAAAAAAAAAAAAAAAAAAAAAAAAAAAAAAAAAAAAAAAAAAAAAAAAAAAAAAw/yAQMP8gECn7G48p+xuPKfoa7yn6Gu8p+hr/Kfoa/yn6Gv8p+hr/Kfoa/yn6Gv8p+hr/Kfoa/yn6Gv8p+hr/Kfoa/yn6Gv8p+hr/Kfoa/yn6Gv8p+hr/Kfoa/yn6Gv8p+hr/Kfoa/yn6Gv8p+hr/Kfoazyn6Gs8AAAAAAAAAAAAAAAAAAAAAAAAAAAAAAAAAAAAAAAAAAAAAAAAAAAAAAAAAAAAAAAAAAAAAAAAAAAAAAAAAAAAAAAAAAAAAAAAAAAAAAAAAAAAAAAAAAAAAAAAAAAAAAAAAAAAAAAAAAAAAAAAAAAAAAAAAAAAAAAAAAAAAAAAAAAAAAAAAAAAAAAAAAAAAAAAAAAAAAAAAAAAAAAAAAAAAAAAAAAAAAAAAAAAAAAAAACn6Gb8p+hm/Kfoa/yn6Gv8p+hr/Kfoa/yn6Gv8p+hr/Kfoa/yn6Gv8p+hr/Kfoa/yn6Gv8p+hr/Kfoa/yn6Gv8p+hr/Kfoa/yn6Gv8p+hr/Kfoa/yn6Gv8p+hr/Kfoa/yn6Gv8p+hr/Kfsbjyn7G48AAAAAAAAAAAAAAAAAAAAAAAAAAAAAAAAAAAAAAAAAAAAAAAAAAAAAAAAAAAAAAAAAAAAAAAAAAAAAAAAAAAAAAAAAAAAAAAAAAAAAAAAAAAAAAAAAAAAAAAAAAAAAAAAAAAAAAAAAADD/IBAw/yAQKfsbjyn7G48p+hrvKfoa7yn6Gv8p+hr/Kfoa/yn6Gv8p+hr/Kfoa/yn6Gv8p+hr/Kfoa/yn6Gv8p+hr/Kfoa/yn6Gv8p+hr/Kfoa/yn6Gv8p+hr/Kfoa/yn6Gv8p+hr/Kfoa/yn6Gv8p+hrPKfoazwAAAAAAAAAAAAAAAAAAAAAAAAAAAAAAAAAAAAAAAAAAAAAAAAAAAAAAAAAAAAAAAAAAAAAAAAAAAAAAAAAAAAAAAAAAAAAAAAAAAAAAAAAAAAAAAAAAAAAAAAAAAAAAAAAAAAAAAAAAAAAAAAAAAAAAAAAAAAAAAAAAAAAAAAAAAAAAAAAAAAAAAAAAAAAAAAAAAAAAAAAAAAAAAAAAAAAAAAAAAAAAAAAAAAAAAAAAKfoZvyn6Gb8p+hr/Kfoa/yn6Gv8p+hr/Kfoa/yn6Gv8p+hr/Kfoa/yn6Gv8p+hr/Kfoa/yn6Gv8p+hr/Kfoa/yn6Gv8p+hr/Kfoa/yn6Gv8p+hr/Kfoa/yn6Gv8p+hr/Kfoa/yn6Gv8p+xuPKfsbjwAAAAAAAAAAAAAAAAAAAAAAAAAAAAAAAAAAAAAAAAAAAAAAAAAAAAAAAAAAAAAAAAAAAAAAAAAAAAAAAAAAAAAAAAAAAAAAAAAAAAAAAAAAAAAAAAAAAAAAAAAAAAAAAAAAAAAAAAAAAAAAAAAAAAAAAAAAAAAAAAAAAAAAAAAAKPcYICj3GCAo9xggKPcYICj3GCAo9xggKPcYICj3GCAo9xggKPcYICj3GCAo9xggKPcYICj3GCAo9xggKPcYICj3GCAo9xggKPcYICj3GCAo9xggKPcYIDD/IBAw/yAQAAAAAAAAAAAAAAAAAAAAAAAAAAAAAAAAAAAAAAAAAAAAAAAAAAAAAAAAAAAAAAAAAAAAAAAAAAAAAAAAAAAAAAAAAAAAAAAAAAAAAAAAAAAAAAAAAAAAAAAAAAAAAAAAAAAAAAAAAAAAAAAAAAAAAAAAAAAAAAAAAAAAAAAAAAAAAAAAAAAAAAAAAAAAAAAAAAAAAAAAAAAAAAAAAAAAAAAAAAAAAAAAAAAAAAAAAAAo9xggKPcYICj3GCAo9xggKPcYICj3GCAo9xggKPcYICj3GCAo9xggKPcYICj3GCAo9xggKPcYICj3GCAo9xggKPcYICj3GCAo9xggKPcYICj3GCAo9xggKPcYICj3GCAAAAAAAAAAAAAAAAAAAAAAAAAAAAAAAAAAAAAAAAAAAAAAAAAAAAAAAAAAAAAAAAAAAAAAAAAAAAAAAAAAAAAAAAAAAAAAAAAAAAAAAAAAAAAAAAAAAAAAAAAAAAAAAAAAAAAAAAAAAAAAAAAAAAAAAAAAAAAAAAAAAAAAAAAAAAAAAAAAAAAAAAAAAAAAAAAo9xggKPcYICj3GCAo9xggKPcYICj3GCAo9xggKPcYICj3GCAo9xggKPcYICj3GCAo9xggKPcYICj3GCAo9xggKPcYICj3GCAo9xggKPcYICj3GCAo9xggMP8gEDD/IBAAAAAAAAAAAAAAAAAAAAAAAAAAAAAAAAAAAAAAAAAAAAAAAAAAAAAAAAAAAAAAAAAAAAAAAAAAAAAAAAAAAAAAAAAAAAAAAAAAAAAAAAAAAAAAAAAAAAAAAAAAAAAAAAAAAAAAAAAAAAAAAAAAAAAAAAAAAAAAAAAAAAAAAAAAAAAAAAAAAAAAAAAAAAAAAAAAAAAAAAAAAAAAAAAAAAAAAAAAAAAAAAAAAAAAAAAAACj3GCAo9xggKPcYICj3GCAo9xggKPcYICj3GCAo9xggKPcYICj3GCAo9xggKPcYICj3GCAo9xggKPcYICj3GCAo9xggKPcYICj3GCAo9xggKPcYICj3GCAo9xggKPcYIAAAAAAAAAAAAAAAAAAAAAAAAAAAAAAAAAAAAAAAAAAAAAAAAAAAAAAAAAAAAAAAAAAAAAAAAAAAAAAAAAAAAAAAAAAAAAAAAAAAAAAAAAAAAAAAAAAAAAAAAAAAAAAAAAAAAAAAAAAAAAAAAAAAAAAAAAAAAAAAAAAAAAAAAAAAAAAAAAAAAAAAAAAAAAAAAAAAAAAAAAAAAAAAAAAAAAAAAAAAAAAAAAAAAAAAAAAAAAAAAAAAAAAAAAAAAAAAAAAAAAAAAAAAAAAAAAAAAAAAAAAAAAAAAAAAAAAAAAAAAAAAAAAAAAAAAAAAAAAAAAAAAAAAAAAAAAAAAAAAAAAAAAAAAAAAAAAAAAAAAAAAAAAAAAAAAAAAAAAAAAAAAAAAAAAAAAAAAAAAAAAAAAAAAAAAAAAAAAAAAAAAAAAAAAAAAAAAAAAAAAAAAAAAAAAAAAAAAAAAAAAAAAAAAAAAAAAAAAAAAAAAAAAAAAAAAAAAAAAAAAAAAAAAAAAAAAAAAAAAAAAAAAAAAAAAAAAAAAAAAAAAAAAAAAAAAAAAAAAAAAAAAAAAAAAAAAAAAAAAAAAAAAAAAAAAAAAAAAAAAAAAAAAAAAAAAAAAAAAAAAAAAAAAAAAAAAAAAAAAAAAAAAAAAAAAAAAAAAAAAAAAAAAAAAAAAAAAAAAAAAAAAAAAAAAAAAAAAAAAAAAAAAAAAAAAAAAAAAAAAAAAAAAAAAAAAAAAAAAAAAAAAAAAAAAAAAAAAAAAAAAAAAAAAAAAAAAAAAAAAAAAAAAAAAAAAAAAAAAAAAAAAAAAAAAAAAAAAAAAAAAAAAAAAAAAAAAAAAAAAAAAAAAAAAAAAAAAAAAAAAAAAAAAAAAAAAAAAAAAAAAAAAAAAAAAAAAAAAAAAAAAAAAAAAAAAAAAAAAAAAAAAAAAAAAAAAAAAAAAAAAAAAAAAAAAAAAAAAAAAAAAAAAAAAAAAAAAAAAAAAAAAAAAAAAAAAAAAAAAAAAAAAAAAAAAAAAAAAAAAAAAAAAAAAAAAAAAAAAAAAAAAAAAAAAAAAAAAAAAAAAAAAAAAAAAAAAAAAAAAAAAAAAAAAAAAAAAAAAAAAAAAAAAAAAAAAAAAAAAAAAAAAAAAAAAAAAAAAAAAAAAAAAAAAAAAAAAAAAAAAAAAAAAAAAAAAAAAAAAAAAAAAAAAAAAAAAAAAAAAAAAAAAAAAAAAAAAAAAAAAAAAAAAAAAAAAAAAAAAAAAAAAAAAAAAAAAAAAAAAAAAAAAAAAAAAAAAAAAAAAAAAAAAAAAAAAAAAAAAAAAAAAAAAAAAAAAAAAAAAAAAAAAAAAAAAAAAAAAAAAAAAAAAAAAAAAAAAAAAAAAAAAAAAAAAAAAAAAAAAAAAAAAAAAAAAAAAAAAAAAAAAAAAAAAAAAAAAAAAAAAAAAAAAAAAAAAAAAAAAAAAAAAAAAAAAAAAAAAAAAAAAAAAAAAAAAAAAAAAAAAAAAAAAAAAAAAAAAAAAAAAAAAAAAAAAAAAAAAAAAAAAAAAAAAAAAAAAAAAAAAAAAAAAAAAAAAAAAAAAAAAAAAAAAAAAAAAAAAAAAAAAAAAAAAAAAAAAAAAAAAAAAAAAAAAAAAAAAAAAAAAAAAAAAAAAAAAAAAAAAAAAAAAAAAAAAAAAAAAAAAAAAAAAAAAAAAAAAAAAAAAAAAAAAAAAAAAAAAAAAAAAAAAAAAAAAAAAAAAAAAAAAAAAAAAAAAAAAAAAAAAAAAAAAAAAAAAAAAAAAAAAAAAAAAAAAAAAAAAAAAAAAAAAAAAAAAAAAAAAAAAAAAAAAAAAAAAAAAAAAAAAAAAAAAAAAAAAAAAAAAAAAAAAAAAAAAAAAAAAAAAAAAAAAAAAAAAAAAAAAAAAAAAAAAAAAAAAAAAAAAAAAAAAAAAAAAAAAAAAAAAAAAAAAAAAAAAAAAAAAAAAAAAAAAAAAAAAAAAAAAAAAAAAAAAAAAAAAAAAAAAAAAAAAAAAAAAAAAAAAAAAAAAAAAAAAAAAAAAAAAAAAAAAAAAAAAAAAAAAAAAAAAAAAAAAAAAAAAAAAAAAAAAAAAAAAAAAAAAAAAAAAAAAAAAAAAAAAAAAAAAAAAAAAAAAAAAAAAAAAAAAAAAAAAAAAAAAAAAAAAAAAAAAAAAAAAAAAAAAAAAAAAAAAAAAAAAAAAAAAAAAAAAAAAAAAAAAAAAAAAAAAAAAAAAAAAAAAAAAAAAAAAAAAAAAAAAAAAAAAAAAAAAAAAAAAAAAAAAAAAAAAAAAAAAAAAAAAAAAAAAAAAAAAAAAAAAAAAAAAAAAAAAAAAAAAAAAAAAAAAAAAAAAAAAAAAAAAAAAAAAAAAAAAAAAAAAAAAAAAAAAAAAAAAAAAAAAAAAAAAAAAAAAAAAAAAAAAAAAAAAAAAAAAAAAAAAAAAAAAAAAAAAAAAAAAAAAAAAAAAAAAAAAAAAAAAAAAAAAAAAAAAAAAAAAAAAAAAAAAAAAAAAAAAAAAAAAAAAAAAAAAAAAAAAAAAAAAAAAAAAAAAAAAAAAAAAAAAAAAAAAAAAAAAAAAAAAAAAAAAAAAAAAAAAAAAAAAAAAAAAAAAAAAAAAAAAAAAAAAAAAAAAAAAAAAAAAAAAAAAAAAAAAAAAAAAAAAAAAAAAAAAAAAAAAAAAAAAAAAAAAAAAAAAAAAAAAAAAAAAAAAAAAAAAAAAAAAAAAAAAAAAAAAAAAAAAAAAAAAAAAAAAAAAAAAAAAAAAAAAAAAAAAAAAAAAAAAAAAAAAAAAAAAAAAAAAAAAAAAAAAAAAAAAAAAAAAAAAAAAAAAAAAAAAAAAAAAAAAAAAAAAAAAAAAAAAAAAAAAAAAAAAAAAAAAAAAAAAAAAAAAAAAAAAAAAAAAAAAAAAAAAAAAAAAAAAAAAAAAAAAAAAAAAAAAAAAAAAAAAAAAAAAAAAAAAAAAAAAAAAAAAAAAAAAAAAAAAAAAAAAAAAAAAAAAAAAAAAAAAAAAAAAAAAAAAAAAAAAAAAAAAAAAAAAAAAAAAAAAAAAAAAAAAAAAAAAAAAAAAAAAAAAAAAAAAAAAAAAAAAAAAAAAAAAAAAAAAAAAAAAAAAAAAAAAAAAAAAAAAAAAAAAAAAAAAAAAAAAAAAAAAAAAAAAAAAAAAAAAAAAAAAAAAAAAAAAAAAAAAAAAAAAAAAAAAAAAAAAAAAAAAAAAAAAAAAAAAAAAAAAAAAAAAAAAAAAAAAAAAAAAAAAAAAAAAAAAAAAAAAAAAAAAAAAAAAAAAAAAAAAAAAAAAAAAAAAAAAAAAAAAAAAAAAAAAAAAAAAAAAAAAAAAAAAAAAAAAAAAAAAAAAAAAAAAAAAAAAAAAAAAAAAAAAAAAAAAAAAAAAAAAAAAAAAAAAAAAAAAAAAAAAAAAAAAAAAAAAAAAAAAAAAAAAAAAAAAAAAAAAAAAAAAAAAAAAAAAAAAAAAAAAAAAAAAAAAAAAAAAAAAAAAAAAAAAAAAAAAAAAAAAAAAAAAAAAAAAAAAAAAAAAAAAAAAAAAAAAAAAAAAAAAAAAAAAAAAAAAAAAAAAAAAAAAAAAAAAAAAAAAAAAAAAAAAAAAAAAAAAAAAAAAAAAAAAAAAAAAAAAAAAAAAAAAAAAAAAAAAAAAAAAAAAAAAAAAAAAAAAAAAAAAAAAAAAAAAAAAAAAAAAAAAAAAAAAAAAAAAAAAAAAAAAAAAAAAAAAAAAAAAAAAAAAAAAAAAAAAAAAAAAAAAAAAAAAAAAAAAAAAAAAAAAAAAAAAAAAAAAAAAAAAAAAAAAAAAAAAAAAAAAAAAAAAAAAAAAAAAAAAAAAAAAAAAAAAAAAAAAAAAAAAAAAAAAAAAAAAAAAAAAAAAAAAAAAAAAAAAAAAAAAAAAAAAAAAAAAAAAAAAAAAAAAAAAAAAAAAAAAAAAAAAAAAAAAAAAAAAAAAAAAAAAAAAAAAAAAAAAAAAAAAAAAAAAAAAAAAAAAAAAAAAAAAAAAAAAAAAAAAAAAAAAAAAAAAAAAAAAAAAAAAAAAAAAAAAAAAAAAAAAAAAAAAAAAAAAAAAAAAAAAAAAAAAAAAAAAAAAAAAAAAAAAAAAAAAAAAAAAAAAAAAAAAAAAAAAAAAAAAAAAAAAAAAAAAAAAAAAAAAAAAAAAAAAAAAAAAAAAAAAAAAAAAAAAAAAAAAAAAAAAAAAAAAAAAAAAAAAAAAAAAAAAAAAAAAAAAAAAAAAAAAAAAAAAAAAAAAAAAAAAAAAAAAAAAAAAAAAAAAAAAAAAAAAAAAAAAAAAAAAAAAAAAAAAAAAAAAAAAAAAAAAAAAAAAAAAAAAAAAAAAAAAAAAAAAAAAAAAAAAAAAAAAAAAAAAAAAAAAAAAAAAAAAAAAAAAAAAAAAAAAAAAAAAAAAAAAAAAAAAAAAAAAAAAAAAAAAAAAAAAAAAAAAAAAAAAAAAAAAAAAAAAAAAAAAAAAAAAAAAAAAAAAAAAAAAAAAAAAAAAAAAAAAAAAAAAAAAAAAAAAAAAAAAAAAAAAAAAAAAAAAAAAAAAAAAAAAAAAAAAAAAAAAAAAAAAAAAAAAAAAAAAAAAAAAAAAAAAAAAAAAAAAAAAAAAAAAAAAAAAAAAAAAAAAAAAAAAAAAAAAAAAAAAAAAAAAAAAAAAAAAAAAAAAAAAAAAAAAAAAAAAAAAAAAAAAAAAAAAAAAAAAAAAAAAAAAAAAAAAAAAAAAAAAAAAAAAAAAAAAAAAAAAAAAAAAAAAAAAAAAAAAAAAAAAAAAAAAAAAAAAAAAAAAAAAAAAAAAAAAAAAAAAAAAAAAAAAAAAAAAAAAAAAAAAAAAAAAAAAAAAAAAAAAAAAAAAAAAAAAAAAAAAAAAAAAAAAAAAAAAAAAAAAAAAAAAAAAAAAAAAAAAAAAAAAAAAAAAAAAAAAAAAAAAAAAAAAAAAAAAAAAAAAAAAAAAAAAAAAAAAAAAAAAAAAAAAAAAAAAAAAAAAAAAAAAAAAAAAAAAAAAAAAAAAAAAAAAAAAAAAAAAAAAAAAAAAAAAAAAAAAAAAAAAAAAAAAAAAAAAAAAAAAAAAAAAAAAAAAAAAAAAAAAAAAAAAAAAAAAAAAAAAAAAAAAAAAAAAAAAAAAAAAAAAAAAAAAAAAAAAAAAAAAAAAAAAAAAAAAAAAAAAAAAAAAAAAAAAAAAAAAAAAAAAAAAAAAAAAAAAAAAAAAAAAAAAAAAAAAAAAAAAAAAAAAAAAAAAAAAAAAAAAAAAAAAAAAAAAAAAAAAAAAAAAAAAAAAAAAAAAAAAAAAAAAAAAAAAAAAAAAAAAAAAAAAAAAAAAAAAAAAAAAAAAAAAAAAAAAAAAAAAAAAAAAAAAAAAAAAAAAAAAAAAAAAAAAAAAAAAAAAAAAAAAAAAAAAAAAAAAAAAAAAAAAAAAAAAAAAAAAAAAAAAAAAAAAAAAAAAAAAAAAAAAAAAAAAAAAAAAAAAAAAAAAAAAAAAAAAAAAAAAAAAAAAAAAAAAAAAAAAAAAAAAAAAAAAAAAAAAAAAAAAAAAAAAAAAAAAAAAAAAAAAAAAAAAAAAAAAAAAAAAAAAAAAAAAAAAAAAAAAAAAAAAAAAAAAAAAAAAAAAAAAAAAAAAAAAAAAAAAAAAAAAAAAAAAAAAAAAAAAAAAAAAAAAAAAAAAAAAAAAAAAAAAAAAAAAAAAAAAAAAAAAAAAAAAAAAAAAAAAAAAAAAAAAAAAAAAAAAAAAAAAAAAAAAAAAAAAAAAAAAAAAAAAAAAAAAAAAAAAAAAAAAAAAAAAAAAAAAAAAAAAAAAAAAAAAAAAAAAAAAAAAAAAAAAAAAAAAAAAAAAAAAAAAAAAAAAAAAAAAAAAAAAAAAAAAAAAAAAAAAAAAAAAAAAAAAAAAAAAAAAAAAAAAAAAAAAAAAAAAAAAAAAAAAAAAAAAAAAAAAAAAAAAAAAAAAAAAAAAAAAAAAAAAAAAAAAAAAAAAAAAAAAAAAAAAAAAAAAAAAAAAAAAAAAAAAAAAAAAAAAAAAAAAAAAAAAAAAAAAAAAAAAAAAAAAAAAAAAAAAAAAAAAAAAAAAAAAAAAAAAAAAAAAAAAAAAAAAAAAAAAAAAAAAAAAAAAAAAAAAAAAAAAAAAAAAAAAAAAAAAAAAAAAAAAAAAAAAAAAAAAAAAAAAAAAAAAAAAAAAAAAAAAAAAAAAAAAAAAAAAAAAAAAAAAAAAAAAAAAAAAAAAAAAAAAAAAAAAAAAAAAAAAAAAAAAAAAAAAAAAAAAAAAAAAAAAAAAAAAAAAAAAAAAAAAAAAAAAAAAAAAAAAAAAAAAAAAAAAAAAAAAAAAAAAAAAAAAAAAAAAAAAAAAAAAAAAAAAAAAAAAAAAAAAAAAAAAAAAAAAAAAAAAAAAAAAAAAAAAAAAAAAAAAAAAAAAAAAAAAAAAAAAAAAAAAAAAAAAAAAAAAAAAAAAAAAAAAAAAAAAAAAAAAAAAAAAAAAAAAAAAAAAAAAAAAAAAAAAAAAAAAAAAAAAAAAAAAAAAAAAAAAAAAAAAAAAAAAAAAAAAAAAAAAAAAAAAAAAAAAAAAAAAAAAAAAAAAAAAAAAAAAAAAAAAAAAAAAAAAAAAAAAAAAAAAAAAAAAAAAAAAAAAAAAAAAAAAAAAAAAAAAAAAAAAAAAAAAAAAAAAAAAAAAAAAAAAAAAAAAAAAAAAAAAAAAAAAAAAAAAAAAAAAAAAAAAAAAAAAAAAAAAAAAAAAAAAAAAAAAAAAAAAAAAAAAAAAAAAAAAAAAAAAAAAAAAAAAAAAAAAAAAAAAAAAAAAAAAAAAAAAAAAAAAAAAAAAAAAAAAAAAAAAAAAAAAAAAAAAAAAAAAAAAAAAAAAAAAAAAAAAAAAAAAAAAAAAAAAAAAAAAAAAAAAAAAAAAAAAAAAAAAAAAAAAAAAAAAAAAAAAAAAAAAAAAAAAAAAAAAAAAAAAAAAAAAAAAAAAAAAAAAAA//////////////////////////////////////////////////////////////////////////////////////////////////////////////////////////////////////////////////////////////////////////////////////////////////////////////////////////////////////////////////////////////////8AAAD///////8AAAP/////AAAA////////AAAD/////AAAAP///////wAAAD////wAAAD///////8AAAA////8AAAA////////AAAAD////AAAAP///////wAAAA////AP//////////////AP///wD//////////////wD///8D///////////////A////A///////////////wP///wP//////////////8D///8D///////////////A////A///////////////wP///wP//////////////8D///8D///////////////A////A///////////////wP///wP//////////////8D///8D///////////////A////A///////////////wP///wP//////////////8D///8D///////////////A////A///////////////wP///wP//////////////8D///8D///////////////A////A///////////////wP///wP//////////////8D///8D//////wA///////A////A//////8AP//////wP//////////AAAA/////////////////wAAAP///////////////8AAAAAP///////////////AAAAAD//////////////8AAD/wAD//////////////AAA/8AA//////////////AA////AA/////////////wAP///wAP////////////wA/////8A////////////8AP/////AP///////////8A//////8A////////////AP//////AP///////////AP//AD//8A///////////wD//wA///AP//////////wD//wAA///A//////////8A//8AAP//wP/////////8A//8AAA///A//////////AP//AAAP//wP/////////AP//AP8D///A/////////wD//wD/A///wP////////wD//8D/8D//8A////////8A///A//A///AP///////8A///wP/wP//8D////////AP//8D/8D///A////////8D///A//A///wD////////A///wP/wP//8A////////wD//8D/8D//8A////////8A///A//A///AP////////wD//8D/A///AP////////8A///A/wP//wD/////////wD//wAAD//wD/////////8A//8AAA//8A//////////wD//wAA//8A//////////8A//8AAP//AP//////////wD//8AP//AP//////////8A///AD//wD///////////wD//////wD///////////8A//////8A////////////wA/////wA////////////8AP////8AP////////////8AP///wAP/////////////AD///8AD/////////////8AA/8AAP//////////////AAP/AAD///////////////AAAAAD///////////////wAAAAA////////////////wAAAP////////////////8AAAD//////////wP//////8D//////8D///8D///////A///////A////A///////////////wP///wP//////////////8D///8D///////////////A////A///////////////wP///wP//////////////8D///8D///////////////A////A///////////////wP///wP//////////////8D///8D///////////////A////A///////////////wP///wP//////////////8D///8D///////////////A////A///////////////wP///wP//////////////8D///8D///////////////A////A///////////////wP///wP//////////////8D///8D///////////////A////AP//////////////AP///wD//////////////wD////AAAAP///////wAAAD////wAAAD///////8AAAA////8AAAA////////AAAAP////AAAAP///////wAAAD/////AAAD///////8AAAD/////wAAA////////AAAA//////////////////////////////////////////////////////////////////////////////////////////////////////////////////////////////////////////////////////////////////////////////////////////////////////////////////////////////////////////////////////////////////8=;" parent="BuZ8btYsFFh4Lj0bBgy9-2" vertex="1">
          <mxGeometry x="660.9999999999999" y="21" width="128" height="128" as="geometry" />
        </mxCell>
        <mxCell id="BuZ8btYsFFh4Lj0bBgy9-40" value="" style="shape=table;startSize=0;container=1;collapsible=0;childLayout=tableLayout;" parent="BuZ8btYsFFh4Lj0bBgy9-2" vertex="1">
          <mxGeometry x="498" y="1062" width="271" height="80" as="geometry" />
        </mxCell>
        <mxCell id="BuZ8btYsFFh4Lj0bBgy9-41" value="" style="shape=tableRow;horizontal=0;startSize=0;swimlaneHead=0;swimlaneBody=0;top=0;left=0;bottom=0;right=0;collapsible=0;dropTarget=0;fillColor=none;points=[[0,0.5],[1,0.5]];portConstraint=eastwest;" parent="BuZ8btYsFFh4Lj0bBgy9-40" vertex="1">
          <mxGeometry width="271" height="40" as="geometry" />
        </mxCell>
        <mxCell id="BuZ8btYsFFh4Lj0bBgy9-42" value="版本号" style="shape=partialRectangle;html=1;whiteSpace=wrap;connectable=0;overflow=hidden;fillColor=none;top=0;left=0;bottom=0;right=0;pointerEvents=1;" parent="BuZ8btYsFFh4Lj0bBgy9-41" vertex="1">
          <mxGeometry width="90" height="40" as="geometry">
            <mxRectangle width="90" height="40" as="alternateBounds" />
          </mxGeometry>
        </mxCell>
        <mxCell id="BuZ8btYsFFh4Lj0bBgy9-43" value="版本描述" style="shape=partialRectangle;html=1;whiteSpace=wrap;connectable=0;overflow=hidden;fillColor=none;top=0;left=0;bottom=0;right=0;pointerEvents=1;" parent="BuZ8btYsFFh4Lj0bBgy9-41" vertex="1">
          <mxGeometry x="90" width="91" height="40" as="geometry">
            <mxRectangle width="91" height="40" as="alternateBounds" />
          </mxGeometry>
        </mxCell>
        <mxCell id="BuZ8btYsFFh4Lj0bBgy9-44" value="版本日期" style="shape=partialRectangle;html=1;whiteSpace=wrap;connectable=0;overflow=hidden;fillColor=none;top=0;left=0;bottom=0;right=0;pointerEvents=1;" parent="BuZ8btYsFFh4Lj0bBgy9-41" vertex="1">
          <mxGeometry x="181" width="90" height="40" as="geometry">
            <mxRectangle width="90" height="40" as="alternateBounds" />
          </mxGeometry>
        </mxCell>
        <mxCell id="BuZ8btYsFFh4Lj0bBgy9-45" value="" style="shape=tableRow;horizontal=0;startSize=0;swimlaneHead=0;swimlaneBody=0;top=0;left=0;bottom=0;right=0;collapsible=0;dropTarget=0;fillColor=none;points=[[0,0.5],[1,0.5]];portConstraint=eastwest;" parent="BuZ8btYsFFh4Lj0bBgy9-40" vertex="1">
          <mxGeometry y="40" width="271" height="40" as="geometry" />
        </mxCell>
        <mxCell id="BuZ8btYsFFh4Lj0bBgy9-46" value="" style="shape=partialRectangle;html=1;whiteSpace=wrap;connectable=0;overflow=hidden;fillColor=none;top=0;left=0;bottom=0;right=0;pointerEvents=1;" parent="BuZ8btYsFFh4Lj0bBgy9-45" vertex="1">
          <mxGeometry width="90" height="40" as="geometry">
            <mxRectangle width="90" height="40" as="alternateBounds" />
          </mxGeometry>
        </mxCell>
        <mxCell id="BuZ8btYsFFh4Lj0bBgy9-47" value="" style="shape=partialRectangle;html=1;whiteSpace=wrap;connectable=0;overflow=hidden;fillColor=none;top=0;left=0;bottom=0;right=0;pointerEvents=1;" parent="BuZ8btYsFFh4Lj0bBgy9-45" vertex="1">
          <mxGeometry x="90" width="91" height="40" as="geometry">
            <mxRectangle width="91" height="40" as="alternateBounds" />
          </mxGeometry>
        </mxCell>
        <mxCell id="BuZ8btYsFFh4Lj0bBgy9-48" value="" style="shape=partialRectangle;html=1;whiteSpace=wrap;connectable=0;overflow=hidden;fillColor=none;top=0;left=0;bottom=0;right=0;pointerEvents=1;" parent="BuZ8btYsFFh4Lj0bBgy9-45" vertex="1">
          <mxGeometry x="181" width="90" height="40" as="geometry">
            <mxRectangle width="90" height="40" as="alternateBounds" />
          </mxGeometry>
        </mxCell>
        <mxCell id="BuZ8btYsFFh4Lj0bBgy9-49" value="FpgaPublish" style="label;whiteSpace=wrap;html=1;image=img/clipart/Gear_128x128.png" parent="BuZ8btYsFFh4Lj0bBgy9-2" vertex="1">
          <mxGeometry x="16" y="1072" width="140" height="60" as="geometry" />
        </mxCell>
        <mxCell id="g63c0CVMapBVuL8HbR8m-4" style="edgeStyle=orthogonalEdgeStyle;rounded=0;orthogonalLoop=1;jettySize=auto;html=1;exitX=0.5;exitY=1;exitDx=0;exitDy=0;entryX=0.5;entryY=0;entryDx=0;entryDy=0;" edge="1" parent="BuZ8btYsFFh4Lj0bBgy9-2" source="g63c0CVMapBVuL8HbR8m-1" target="g63c0CVMapBVuL8HbR8m-2">
          <mxGeometry relative="1" as="geometry" />
        </mxCell>
        <mxCell id="g63c0CVMapBVuL8HbR8m-1" value="注册设计任务" style="rounded=1;whiteSpace=wrap;html=1;" vertex="1" parent="BuZ8btYsFFh4Lj0bBgy9-2">
          <mxGeometry x="45" y="61" width="120" height="60" as="geometry" />
        </mxCell>
        <mxCell id="g63c0CVMapBVuL8HbR8m-5" style="edgeStyle=orthogonalEdgeStyle;rounded=0;orthogonalLoop=1;jettySize=auto;html=1;exitX=0.5;exitY=1;exitDx=0;exitDy=0;" edge="1" parent="BuZ8btYsFFh4Lj0bBgy9-2" source="g63c0CVMapBVuL8HbR8m-2" target="g63c0CVMapBVuL8HbR8m-3">
          <mxGeometry relative="1" as="geometry" />
        </mxCell>
        <mxCell id="g63c0CVMapBVuL8HbR8m-2" value="分析设计流程" style="rounded=1;whiteSpace=wrap;html=1;" vertex="1" parent="BuZ8btYsFFh4Lj0bBgy9-2">
          <mxGeometry x="45" y="194" width="120" height="60" as="geometry" />
        </mxCell>
        <mxCell id="g63c0CVMapBVuL8HbR8m-10" style="edgeStyle=orthogonalEdgeStyle;rounded=0;orthogonalLoop=1;jettySize=auto;html=1;exitX=0.5;exitY=1;exitDx=0;exitDy=0;" edge="1" parent="BuZ8btYsFFh4Lj0bBgy9-2" source="g63c0CVMapBVuL8HbR8m-3" target="g63c0CVMapBVuL8HbR8m-9">
          <mxGeometry relative="1" as="geometry" />
        </mxCell>
        <mxCell id="g63c0CVMapBVuL8HbR8m-3" value="分析关联设计" style="rounded=1;whiteSpace=wrap;html=1;" vertex="1" parent="BuZ8btYsFFh4Lj0bBgy9-2">
          <mxGeometry x="45" y="341" width="120" height="60" as="geometry" />
        </mxCell>
        <mxCell id="g63c0CVMapBVuL8HbR8m-6" value="design manual" style="shape=note;whiteSpace=wrap;html=1;backgroundOutline=1;darkOpacity=0.05;" vertex="1" parent="BuZ8btYsFFh4Lj0bBgy9-2">
          <mxGeometry x="279" y="44" width="80" height="100" as="geometry" />
        </mxCell>
        <mxCell id="g63c0CVMapBVuL8HbR8m-7" value="flow manual" style="shape=note;whiteSpace=wrap;html=1;backgroundOutline=1;darkOpacity=0.05;" vertex="1" parent="BuZ8btYsFFh4Lj0bBgy9-2">
          <mxGeometry x="279" y="174" width="80" height="100" as="geometry" />
        </mxCell>
        <mxCell id="g63c0CVMapBVuL8HbR8m-8" value="plan manual" style="shape=note;whiteSpace=wrap;html=1;backgroundOutline=1;darkOpacity=0.05;" vertex="1" parent="BuZ8btYsFFh4Lj0bBgy9-2">
          <mxGeometry x="279" y="321" width="80" height="100" as="geometry" />
        </mxCell>
        <mxCell id="g63c0CVMapBVuL8HbR8m-14" style="edgeStyle=orthogonalEdgeStyle;rounded=0;orthogonalLoop=1;jettySize=auto;html=1;exitX=0.5;exitY=1;exitDx=0;exitDy=0;" edge="1" parent="BuZ8btYsFFh4Lj0bBgy9-2" source="g63c0CVMapBVuL8HbR8m-9" target="g63c0CVMapBVuL8HbR8m-13">
          <mxGeometry relative="1" as="geometry" />
        </mxCell>
        <mxCell id="g63c0CVMapBVuL8HbR8m-9" value="RTL设计" style="rounded=1;whiteSpace=wrap;html=1;" vertex="1" parent="BuZ8btYsFFh4Lj0bBgy9-2">
          <mxGeometry x="45" y="484" width="120" height="60" as="geometry" />
        </mxCell>
        <mxCell id="g63c0CVMapBVuL8HbR8m-12" value="verilog file" style="shape=note;whiteSpace=wrap;html=1;backgroundOutline=1;darkOpacity=0.05;" vertex="1" parent="BuZ8btYsFFh4Lj0bBgy9-2">
          <mxGeometry x="279" y="464" width="80" height="100" as="geometry" />
        </mxCell>
        <mxCell id="g63c0CVMapBVuL8HbR8m-17" style="edgeStyle=orthogonalEdgeStyle;rounded=0;orthogonalLoop=1;jettySize=auto;html=1;exitX=0.5;exitY=1;exitDx=0;exitDy=0;" edge="1" parent="BuZ8btYsFFh4Lj0bBgy9-2" source="g63c0CVMapBVuL8HbR8m-13" target="g63c0CVMapBVuL8HbR8m-16">
          <mxGeometry relative="1" as="geometry" />
        </mxCell>
        <mxCell id="g63c0CVMapBVuL8HbR8m-13" value="仿真设计" style="rounded=1;whiteSpace=wrap;html=1;" vertex="1" parent="BuZ8btYsFFh4Lj0bBgy9-2">
          <mxGeometry x="45" y="631" width="120" height="60" as="geometry" />
        </mxCell>
        <mxCell id="g63c0CVMapBVuL8HbR8m-15" value="system verilog file" style="shape=note;whiteSpace=wrap;html=1;backgroundOutline=1;darkOpacity=0.05;" vertex="1" parent="BuZ8btYsFFh4Lj0bBgy9-2">
          <mxGeometry x="279" y="611" width="80" height="100" as="geometry" />
        </mxCell>
        <mxCell id="g63c0CVMapBVuL8HbR8m-21" style="edgeStyle=orthogonalEdgeStyle;rounded=0;orthogonalLoop=1;jettySize=auto;html=1;exitX=0.5;exitY=1;exitDx=0;exitDy=0;" edge="1" parent="BuZ8btYsFFh4Lj0bBgy9-2" source="g63c0CVMapBVuL8HbR8m-16" target="g63c0CVMapBVuL8HbR8m-19">
          <mxGeometry relative="1" as="geometry" />
        </mxCell>
        <mxCell id="g63c0CVMapBVuL8HbR8m-16" value="综合自动化" style="rounded=1;whiteSpace=wrap;html=1;" vertex="1" parent="BuZ8btYsFFh4Lj0bBgy9-2">
          <mxGeometry x="45" y="774" width="120" height="60" as="geometry" />
        </mxCell>
        <mxCell id="g63c0CVMapBVuL8HbR8m-18" value="tcl script" style="shape=note;whiteSpace=wrap;html=1;backgroundOutline=1;darkOpacity=0.05;" vertex="1" parent="BuZ8btYsFFh4Lj0bBgy9-2">
          <mxGeometry x="279" y="759" width="80" height="100" as="geometry" />
        </mxCell>
        <mxCell id="g63c0CVMapBVuL8HbR8m-23" style="edgeStyle=orthogonalEdgeStyle;rounded=0;orthogonalLoop=1;jettySize=auto;html=1;exitX=0.5;exitY=1;exitDx=0;exitDy=0;entryX=0.5;entryY=1;entryDx=0;entryDy=0;" edge="1" parent="BuZ8btYsFFh4Lj0bBgy9-2" source="g63c0CVMapBVuL8HbR8m-19" target="g63c0CVMapBVuL8HbR8m-22">
          <mxGeometry relative="1" as="geometry" />
        </mxCell>
        <mxCell id="g63c0CVMapBVuL8HbR8m-19" value="映射自动化" style="rounded=1;whiteSpace=wrap;html=1;" vertex="1" parent="BuZ8btYsFFh4Lj0bBgy9-2">
          <mxGeometry x="45" y="910" width="120" height="60" as="geometry" />
        </mxCell>
        <mxCell id="g63c0CVMapBVuL8HbR8m-20" value="tcl script" style="shape=note;whiteSpace=wrap;html=1;backgroundOutline=1;darkOpacity=0.05;" vertex="1" parent="BuZ8btYsFFh4Lj0bBgy9-2">
          <mxGeometry x="279" y="883" width="80" height="100" as="geometry" />
        </mxCell>
        <mxCell id="g63c0CVMapBVuL8HbR8m-27" style="edgeStyle=orthogonalEdgeStyle;rounded=0;orthogonalLoop=1;jettySize=auto;html=1;exitX=0.5;exitY=0;exitDx=0;exitDy=0;" edge="1" parent="BuZ8btYsFFh4Lj0bBgy9-2" source="g63c0CVMapBVuL8HbR8m-22" target="g63c0CVMapBVuL8HbR8m-25">
          <mxGeometry relative="1" as="geometry" />
        </mxCell>
        <mxCell id="g63c0CVMapBVuL8HbR8m-22" value="在线调试" style="rounded=1;whiteSpace=wrap;html=1;" vertex="1" parent="BuZ8btYsFFh4Lj0bBgy9-2">
          <mxGeometry x="614" y="910" width="120" height="60" as="geometry" />
        </mxCell>
        <mxCell id="g63c0CVMapBVuL8HbR8m-24" value="ltx file" style="shape=note;whiteSpace=wrap;html=1;backgroundOutline=1;darkOpacity=0.05;" vertex="1" parent="BuZ8btYsFFh4Lj0bBgy9-2">
          <mxGeometry x="473" y="886" width="80" height="100" as="geometry" />
        </mxCell>
        <mxCell id="g63c0CVMapBVuL8HbR8m-32" style="edgeStyle=orthogonalEdgeStyle;rounded=0;orthogonalLoop=1;jettySize=auto;html=1;exitX=0.5;exitY=0;exitDx=0;exitDy=0;entryX=0.5;entryY=1;entryDx=0;entryDy=0;" edge="1" parent="BuZ8btYsFFh4Lj0bBgy9-2" source="g63c0CVMapBVuL8HbR8m-25" target="g63c0CVMapBVuL8HbR8m-31">
          <mxGeometry relative="1" as="geometry" />
        </mxCell>
        <mxCell id="g63c0CVMapBVuL8HbR8m-25" value="下载文件" style="rounded=1;whiteSpace=wrap;html=1;" vertex="1" parent="BuZ8btYsFFh4Lj0bBgy9-2">
          <mxGeometry x="614" y="774" width="120" height="60" as="geometry" />
        </mxCell>
        <mxCell id="g63c0CVMapBVuL8HbR8m-26" value="BIN文件" style="shape=note;whiteSpace=wrap;html=1;backgroundOutline=1;darkOpacity=0.05;" vertex="1" parent="BuZ8btYsFFh4Lj0bBgy9-2">
          <mxGeometry x="473" y="759" width="80" height="100" as="geometry" />
        </mxCell>
        <mxCell id="g63c0CVMapBVuL8HbR8m-29" value="手动化设计" style="swimlane;horizontal=0;whiteSpace=wrap;html=1;" vertex="1" parent="BuZ8btYsFFh4Lj0bBgy9-2">
          <mxGeometry x="16" y="30" width="379" height="409" as="geometry" />
        </mxCell>
        <mxCell id="g63c0CVMapBVuL8HbR8m-30" value="自动化设计" style="swimlane;horizontal=0;whiteSpace=wrap;html=1;" vertex="1" parent="BuZ8btYsFFh4Lj0bBgy9-2">
          <mxGeometry x="13" y="452" width="737" height="573" as="geometry" />
        </mxCell>
        <mxCell id="g63c0CVMapBVuL8HbR8m-31" value="封装IP" style="rounded=1;whiteSpace=wrap;html=1;" vertex="1" parent="g63c0CVMapBVuL8HbR8m-30">
          <mxGeometry x="601" y="191" width="120" height="60" as="geometry" />
        </mxCell>
        <mxCell id="g63c0CVMapBVuL8HbR8m-33" value="xml文件" style="shape=note;whiteSpace=wrap;html=1;backgroundOutline=1;darkOpacity=0.05;" vertex="1" parent="g63c0CVMapBVuL8HbR8m-30">
          <mxGeometry x="457" y="163" width="80" height="100" as="geometry" />
        </mxCell>
      </root>
    </mxGraphModel>
  </diagram>
</mxfile>
